<svg width="24" height="22" viewBox="0 0 24 22" fill="none" xmlns="http://www.w3.org/2000/svg">
<ellipse cx="12.0233" cy="10.8582" rx="11.7189" ry="10.8324" fill="white"/>
<path d="M8.90323 11.5751C7.96164 11.3923 6.60684 11.4245 5.97757 11.5204C5.6417 8.95822 7.77752 6.37357 10.9403 5.78979C8.73635 7.21506 8.3904 9.90219 8.90365 11.5751H8.90323Z" fill="#A5D9E6"/>
<path d="M15.2286 10.4076C14.8936 8.29954 13.5678 6.32311 10.9397 5.78979L12.0368 10.8578L13.672 10.5543L15.2282 10.4076H15.2286Z" fill="#A5D9E6"/>
<path fill-rule="evenodd" clip-rule="evenodd" d="M17.594 9.15843C16.7673 6.92938 13.9466 5.46841 10.9895 6.01422C8.03231 6.56005 6.03627 8.90984 6.2013 11.2613C6.8957 11.1916 8.02533 11.1839 8.87764 11.3361C9.26482 11.1885 9.80517 11.0404 10.361 10.9315C10.9271 10.8205 11.5291 10.7462 12.0169 10.7598C12.4617 10.5741 13.0482 10.4291 13.6169 10.3306C14.1753 10.2339 14.7357 10.1788 15.1545 10.1776C15.8779 9.73455 16.9238 9.3405 17.594 9.15843ZM10.8922 5.56472C14.1636 4.96089 17.3501 6.64058 18.1467 9.25604C18.1651 9.31622 18.156 9.3807 18.1216 9.43454C18.0872 9.48839 18.0305 9.52692 17.9646 9.54122C17.3682 9.67058 16.1338 10.1119 15.3702 10.5962C15.3278 10.6231 15.2773 10.6371 15.2258 10.6364C14.8436 10.6309 14.2819 10.6819 13.7084 10.7812C13.1336 10.8807 12.5686 11.0251 12.1733 11.1981C12.14 11.2127 12.1037 11.2202 12.067 11.2202H12.0665C12.0626 11.2202 12.0586 11.2201 12.0546 11.2199C11.6179 11.2005 11.0362 11.2677 10.464 11.3799C9.89323 11.4918 9.35339 11.6441 9.00281 11.7849C8.95558 11.8039 8.90312 11.8089 8.85271 11.7991C7.94632 11.6231 6.62305 11.6541 6.01853 11.7462C5.95175 11.7564 5.88336 11.7409 5.82921 11.7034C5.77506 11.6659 5.73984 11.6096 5.7317 11.5476C5.37808 8.84997 7.62078 6.16854 10.8922 5.56472Z" fill="#303030"/>
<path fill-rule="evenodd" clip-rule="evenodd" d="M8.93913 11.4608C9.07356 11.436 9.20431 11.5165 9.23118 11.6406L10.1745 15.9995C10.2013 16.1236 10.1141 16.2444 9.97968 16.2692C9.84525 16.294 9.7145 16.2135 9.68764 16.0893L8.74436 11.7305C8.7175 11.6063 8.8047 11.4856 8.93913 11.4608Z" fill="#303030"/>
<path fill-rule="evenodd" clip-rule="evenodd" d="M15.2589 10.347C15.3934 10.3222 15.5241 10.4027 15.551 10.5269L16.4955 14.8908C16.5224 15.0149 16.4352 15.1356 16.3008 15.1604C16.1663 15.1853 16.0356 15.1047 16.0087 14.9806L15.0642 10.6167C15.0373 10.4926 15.1245 10.3718 15.2589 10.347Z" fill="#303030"/>
<path fill-rule="evenodd" clip-rule="evenodd" d="M10.7668 5.62615C10.8266 5.57194 10.912 5.54928 10.9939 5.56589C13.7536 6.12592 15.1303 8.20459 15.4751 10.3742C15.495 10.4995 15.4012 10.6159 15.2655 10.6343C15.1299 10.6527 15.0038 10.566 14.9839 10.4408C14.6753 8.49922 13.5118 6.71265 11.2613 6.10205L12.2811 10.8128C12.308 10.937 12.2208 11.0577 12.0864 11.0825C11.952 11.1073 11.8212 11.0268 11.7943 10.9027L10.6972 5.83468C10.6808 5.75878 10.7069 5.68035 10.7668 5.62615Z" fill="#303030"/>
<path fill-rule="evenodd" clip-rule="evenodd" d="M11.1436 5.65828C11.2223 5.76197 11.195 5.90489 11.0827 5.9775C8.99268 7.32911 8.64774 9.89995 9.14251 11.5126C9.17988 11.6344 9.10324 11.7611 8.97135 11.7956C8.83945 11.8301 8.70224 11.7593 8.66487 11.6375C8.13313 9.90438 8.4801 7.10096 10.7979 5.60203C10.9102 5.52941 11.065 5.5546 11.1436 5.65828Z" fill="#303030"/>
<path fill-rule="evenodd" clip-rule="evenodd" d="M16.4109 14.7849C16.4359 14.9093 16.3468 15.0289 16.212 15.052L9.94414 16.1248C9.80935 16.1479 9.67982 16.0657 9.65484 15.9413C9.62985 15.8168 9.71887 15.6972 9.85366 15.6741L16.1216 14.6013C16.2564 14.5782 16.3859 14.6604 16.4109 14.7849Z" fill="#303030"/>
</svg>
