<svg width="131" height="55" viewBox="0 0 131 55" fill="none" xmlns="http://www.w3.org/2000/svg">
<path d="M9.55189 48.9515L9.44802 48.9698L9.30953 48.9942C9.06107 49.0023 8.86965 48.929 8.70674 48.8149C8.54383 48.7008 8.40334 48.5114 8.3545 48.2344C8.27104 47.9636 8.21609 47.652 8.20188 47.3689C8.15304 47.0919 8.13882 46.8088 8.15923 46.5196C8.16742 46.1612 8.17562 45.8028 8.21844 45.4382C8.22664 45.0798 8.26945 44.7153 8.30006 44.2815L8.34087 43.7031C8.34497 43.5239 8.38369 43.3386 8.41631 43.1186L8.4245 42.7602L8.14343 42.9883C7.99474 43.1573 7.83994 43.2917 7.67904 43.3914C7.51814 43.4912 7.35724 43.591 7.19634 43.6907C6.88064 43.9249 6.56494 44.1591 6.28387 44.3871C6.00279 44.6152 5.80927 44.9349 5.69721 45.3116C5.64628 45.4277 5.58925 45.5091 5.52611 45.556C5.46297 45.6028 5.42835 45.6089 5.3591 45.6211C5.28986 45.6333 5.25524 45.6394 5.18599 45.6517C5.11675 45.6639 5.07602 45.6353 5.00067 45.6129C4.8907 45.5966 4.80925 45.5396 4.72169 45.4479C4.64023 45.3909 4.55267 45.2992 4.53436 45.1954L4.50384 45.0223C4.49163 44.953 4.47942 44.8838 4.53645 44.8023C4.58128 44.6516 4.70145 44.5233 4.81552 44.3604C4.93569 44.2321 5.09049 44.0978 5.25139 43.998C5.46933 43.8168 5.69337 43.6702 5.94593 43.4828C6.16386 43.3016 6.3879 43.155 6.64046 42.9677L7.3411 42.4872C7.56514 42.3406 7.78307 42.1593 8.00101 41.9781C8.19043 41.8376 8.37985 41.6971 8.49392 41.5342C8.61409 41.4059 8.66502 41.2899 8.70985 41.1392L9.01559 39.2289C9.11954 38.6037 9.18887 37.9846 9.29282 37.3594L9.39067 36.6996L9.48852 36.0397L9.50482 35.9298L9.11587 35.7485L9.01811 35.8014C8.89183 35.8951 8.79407 35.948 8.70241 36.0356C8.57613 36.1292 8.47837 36.1822 8.34599 36.2412C8.09343 36.4285 7.80625 36.622 7.51907 36.8154C7.23189 37.0088 6.9386 37.1676 6.67994 37.3203C6.49052 37.4608 6.32962 37.5606 6.19724 37.6197C6.03023 37.6848 5.89174 37.7092 5.78788 37.7275C5.71863 37.7397 5.60866 37.7234 5.52721 37.6664C5.44575 37.6094 5.3704 37.587 5.35819 37.5177C5.34598 37.4485 5.33377 37.3792 5.35008 37.2692C5.37249 37.1939 5.3888 37.0839 5.44584 37.0025L5.60674 36.9027C5.66988 36.8559 5.73302 36.809 5.79616 36.7622C5.83078 36.7561 5.8593 36.7154 5.89392 36.7093C5.89392 36.7093 5.92854 36.7032 5.99168 36.6563C6.12406 36.5973 6.25034 36.5036 6.37662 36.41C6.5029 36.3163 6.63528 36.2573 6.76156 36.1636C7.04874 35.9702 7.37055 35.7706 7.69235 35.5711C8.01415 35.3716 8.34206 35.2066 8.66386 35.0071C9.05491 34.7954 9.3645 34.5266 9.59264 34.2008C9.78615 33.8811 9.92673 33.4636 9.97975 32.9544C10.0471 32.1215 10.1144 31.2886 10.2163 30.4495C10.3183 29.6105 10.4202 28.7714 10.5568 27.9263L10.6322 27.3418C10.6648 27.1219 10.6914 26.8673 10.7525 26.6066C10.7851 26.3867 10.887 26.1545 10.9888 25.9224C10.9766 25.8531 11.0398 25.8063 11.166 25.7127C11.2638 25.6597 11.3616 25.6068 11.4308 25.5946L11.4654 25.5885L11.5 25.5824C11.5754 25.6048 11.6222 25.6679 11.7159 25.7942C11.8096 25.9205 11.8625 26.0182 11.8808 26.1221C11.9052 26.2606 11.8889 26.3706 11.8726 26.4805L11.7952 26.8512C11.8074 26.9204 11.7789 26.9611 11.785 26.9958C11.7626 27.0711 11.734 27.1118 11.734 27.1118C11.6199 27.8816 11.5057 28.6514 11.3855 29.3866C11.2306 30.1279 11.1164 30.8977 10.9962 31.6329L10.6782 33.4739L10.8798 33.4026C11.1222 33.3599 11.3585 33.2825 11.554 33.1767C11.7495 33.0708 11.9043 32.9364 12.0937 32.7959L12.4155 32.5964C12.5133 32.5434 12.6457 32.4844 12.7719 32.3907C13.3707 32.1423 13.8066 31.7799 14.1488 31.2912C14.491 30.8024 14.6703 30.1997 14.7559 29.4706C14.7927 29.0714 14.864 28.6662 14.9699 28.2548C15.0759 27.8434 15.1819 27.4321 15.3224 27.0146C15.3673 26.8639 15.406 26.6786 15.4447 26.4932C15.4895 26.3425 15.5629 26.1511 15.6016 25.9658C15.6016 25.9658 15.5955 25.9312 15.5894 25.8966C15.5894 25.8966 15.6179 25.8558 15.6118 25.8212L15.6505 25.6359C15.6729 25.5605 15.7015 25.5198 15.73 25.4791C15.7931 25.4323 15.8909 25.3793 15.9825 25.2918C16.0803 25.2388 16.1434 25.192 16.2127 25.1798C16.2941 25.2368 16.3817 25.3285 16.4692 25.4201C16.5629 25.5464 16.5812 25.6503 16.5934 25.7195C16.5832 25.8641 16.5669 25.9741 16.5506 26.0841C16.5058 26.2348 16.4895 26.3447 16.4385 26.4608C16.4161 26.5361 16.3876 26.5769 16.3652 26.6522C16.3428 26.7276 16.3143 26.7683 16.3204 26.8029C16.2144 27.2143 16.1085 27.6257 16.031 27.9963C15.919 28.373 15.813 28.7844 15.7356 29.1551L15.5012 30.0531L15.8678 30.3098L16.4768 29.9168C16.6723 29.811 16.8963 29.6644 17.0918 29.5585C17.2874 29.4526 17.4768 29.3121 17.7008 29.1655L17.8903 29.025C18.0858 28.9191 18.2813 28.8133 18.4707 28.6728C18.6662 28.5669 18.8903 28.4203 19.0858 28.3144C19.1489 28.2676 19.2467 28.2147 19.3159 28.2024C19.3852 28.1902 19.4483 28.1434 19.5176 28.1312C19.5868 28.119 19.6622 28.1414 19.7375 28.1638C19.819 28.2208 19.8658 28.284 19.9126 28.3471C20.0063 28.4734 20.0307 28.6119 19.9737 28.6933C19.9228 28.8094 19.768 28.9438 19.5378 29.0558L19.0205 29.3612C18.825 29.4671 18.6702 29.6015 18.5439 29.6951C18.1875 29.9008 17.8371 30.141 17.4807 30.3467C17.1243 30.5523 16.7679 30.758 16.4053 30.929C15.9165 31.1937 15.5438 31.5093 15.2871 31.8758C15.0366 32.277 14.9021 32.7291 14.8491 33.2382C14.7778 33.6435 14.741 34.0426 14.6697 34.4479C14.5984 34.8532 14.5209 35.2238 14.4435 35.5944C14.4109 35.8144 14.3722 35.9997 14.3395 36.2196C14.3069 36.4396 14.2682 36.6249 14.2295 36.8102C14.2071 36.8856 14.1847 36.9609 14.1969 37.0302C14.2091 37.0994 14.1867 37.1748 14.1989 37.244L14.2233 37.3825C14.2355 37.4517 14.207 37.4925 14.2131 37.5271L14.2212 37.7755L14.8363 37.4172C14.9626 37.3235 15.0603 37.2706 15.1866 37.1769L15.5084 36.9774C15.7039 36.8715 15.9341 36.7595 16.1581 36.6129C16.3537 36.5071 16.5777 36.3605 16.7671 36.22C17.2844 35.9146 17.8303 35.5684 18.3761 35.2223C18.9281 34.9108 19.4739 34.5646 20.0198 34.2185C20.1521 34.1595 20.2845 34.1004 20.4515 34.0353C20.5839 33.9762 20.7509 33.9111 20.924 33.8806C20.9587 33.8745 20.9994 33.903 21.034 33.8969C21.0686 33.8908 21.1032 33.8847 21.1725 33.8725C21.2071 33.8663 21.2886 33.9234 21.37 33.9804C21.4576 34.0721 21.5451 34.1637 21.592 34.2269L21.541 34.3429C21.5186 34.4183 21.4677 34.5344 21.3821 34.6566C21.3536 34.6973 21.3251 34.738 21.2905 34.7441C21.2559 34.7502 21.2212 34.7563 21.1866 34.7624C21.152 34.7685 21.1235 34.8093 21.0889 34.8154C21.0542 34.8215 21.0257 34.8622 21.0257 34.8622C20.543 35.1615 20.0542 35.4262 19.5654 35.6909C19.0827 35.9902 18.5939 36.2549 18.1397 36.5134L16.3922 37.5355C15.8117 37.8878 15.1967 38.2461 14.6101 38.5637C14.4146 38.6696 14.2659 38.8386 14.0826 39.0137C13.8992 39.1889 13.8035 39.4556 13.7831 39.7448C13.7627 40.034 13.7362 40.2886 13.7097 40.5431C13.6831 40.7977 13.6913 41.0462 13.6586 41.2661C13.5934 41.706 13.5628 42.1398 13.5322 42.5736C13.5016 43.0073 13.5056 43.435 13.5096 43.8627C13.477 44.0826 13.5136 44.2904 13.5503 44.4981L13.6601 45.1213L13.7334 45.5368L13.8067 45.9522C13.825 46.0561 13.8087 46.1661 13.7577 46.2821C13.7068 46.3982 13.6844 46.4736 13.6844 46.4736C13.5459 46.498 13.442 46.5163 13.2913 46.4715C13.1406 46.4266 13.0653 46.4042 13.0592 46.3696C12.9065 46.111 12.7945 45.8808 12.7518 45.6384C12.6805 45.4368 12.6378 45.1945 12.6358 44.9806C12.6318 44.553 12.6563 44.0846 12.6808 43.6161C12.7053 43.1477 12.7298 42.6793 12.7889 42.2048C12.793 42.0256 12.7971 41.8464 12.8358 41.6611C12.846 41.5165 12.8501 41.3373 12.8481 41.1234C12.8359 41.0542 12.8522 40.9442 12.8685 40.8343C12.8909 40.7589 12.9072 40.6489 12.9174 40.5043C12.9052 40.4351 12.9276 40.3597 12.9154 40.2905C12.9032 40.2213 12.9256 40.1459 12.948 40.0706L12.9746 39.816L12.7444 39.928C12.2149 40.1641 11.7322 40.4634 11.3187 40.7505C10.8706 41.0437 10.4633 41.3655 10.0498 41.6526L9.79726 41.8399L9.54471 42.0272C9.48767 42.1087 9.43064 42.1901 9.3736 42.2716C9.31657 42.353 9.26564 42.4691 9.27785 42.5383L9.21262 42.9782L9.14739 43.4181C9.06175 44.1472 9.00463 44.8355 8.95362 45.5585C8.9026 46.2815 8.95545 46.9861 9.11217 47.6725L9.159 47.7356L9.19973 47.7641L9.24656 47.8272C9.24656 47.8272 9.28118 47.8211 9.31581 47.815C9.32802 47.8843 9.36874 47.9128 9.40337 47.9067L9.51334 47.923L9.58869 47.9454C9.80863 47.978 9.95933 48.0229 10.0408 48.0799C10.1222 48.1369 10.1813 48.2693 10.1365 48.42C10.0916 48.5707 10.0407 48.6868 9.94904 48.7743C9.85738 48.8619 9.725 48.9209 9.55189 48.9515ZM13.5682 32.8572L13.5396 32.8979L13.505 32.904C13.0223 33.2033 12.5742 33.4965 12.1262 33.7897C11.6781 34.0829 11.2585 34.3354 10.8451 34.6225C10.7188 34.7162 10.6271 34.8037 10.5355 34.8913C10.4153 35.0196 10.3644 35.1356 10.3481 35.2456C10.2502 35.9054 10.1238 36.606 10.026 37.2658C9.92815 37.9257 9.8303 38.5855 9.72635 39.2107C9.69374 39.4306 9.6326 39.6913 9.58368 40.0212L9.52455 40.4957L9.88499 40.7178L10.1722 40.5243C10.3677 40.4184 10.5571 40.278 10.6834 40.1843C11.0398 39.9786 11.4248 39.7323 11.8036 39.4513L12.9523 38.6776C13.0155 38.6307 13.1071 38.5432 13.158 38.4271C13.209 38.311 13.2253 38.201 13.2762 38.085C13.3802 37.4598 13.4841 36.8346 13.582 36.1747C13.6798 35.5149 13.7776 34.8551 13.8755 34.1952L14.0773 32.9102L13.9327 32.9C13.8981 32.9061 13.8574 32.8776 13.8574 32.8776L13.7881 32.8898C13.7535 32.8959 13.7128 32.8674 13.6781 32.8735C13.6435 32.8796 13.6028 32.8511 13.5682 32.8572ZM28.2078 50.624C28.0693 50.6485 27.9654 50.6668 27.884 50.6097C27.774 50.5934 27.6579 50.5425 27.5704 50.4508C27.3138 50.2105 27.0918 49.964 26.8923 49.6422C26.6989 49.3551 26.5747 49.0557 26.5259 48.7787C26.3977 48.0516 26.3041 47.3185 26.2451 46.5792C26.1923 45.8745 26.2087 45.1577 26.2658 44.4693C26.2904 43.394 26.3903 42.3411 26.4841 41.2536C26.578 40.1661 26.7125 39.1072 26.8064 38.0196C26.8268 37.7305 26.8411 37.4067 26.89 37.0767C26.9104 36.7876 26.9593 36.4576 26.9797 36.1685C27.0695 35.2602 27.1877 34.3111 27.306 33.3621C27.4303 32.4477 27.5486 31.4987 27.73 30.5029C27.9114 29.507 28.0866 28.4766 28.2904 27.4054C28.5004 26.3688 28.7388 25.2915 28.9996 24.1388C29.1382 23.5075 29.3114 22.8701 29.5192 22.2266C29.727 21.5831 29.9348 20.9396 30.1773 20.2899C30.2099 20.07 30.2771 19.8439 30.379 19.6118L30.6153 18.9276C30.6601 18.7769 30.7396 18.62 30.819 18.4632C30.8985 18.3064 31.0065 18.1089 31.149 17.9053C31.3201 17.6609 31.4627 17.4573 31.646 17.2822C31.7947 17.1132 31.9556 17.0134 32.1287 16.9829C32.3365 16.9462 32.5686 17.0481 32.7906 17.2945C32.9779 17.5471 33.1652 17.7997 33.3179 18.0583C33.3363 18.1622 33.3831 18.2253 33.4584 18.2477C33.5053 18.3109 33.546 18.3394 33.5867 18.3679L33.7089 18.4535L33.8881 18.4576C34.1651 18.4087 34.4482 18.3945 34.7252 18.3457C35.0082 18.3315 35.2506 18.2887 35.5276 18.2399C36.2322 18.187 36.9308 18.0996 37.6293 18.0121C38.334 17.9592 39.0325 17.8718 39.7311 17.7843C39.9795 17.7762 40.2687 17.7966 40.5579 17.817C40.8471 17.8374 41.177 17.8863 41.5476 17.9638C42.069 18.086 42.4987 18.2958 42.8591 18.5179C43.1849 18.746 43.4476 19.021 43.6125 19.3489C43.7428 19.6829 43.8038 20.0291 43.7671 20.4283C43.7365 20.8621 43.5959 21.2795 43.3861 21.7092C43.1702 22.1043 42.9543 22.4993 42.7037 22.9005C42.4532 23.3017 42.1619 23.6743 41.8645 24.0123C40.8583 25.1893 39.8684 26.2563 38.8601 27.2195C37.8295 28.258 36.8152 29.1865 35.7479 30.0173C34.6868 30.8826 33.648 31.6727 32.5563 32.365C31.4707 33.0919 30.3729 33.7495 29.2568 34.3033C28.6988 34.5802 28.2914 34.9019 28.0694 35.2623C27.8127 35.6289 27.6783 36.081 27.6599 36.584C27.613 37.1278 27.6007 37.6654 27.5537 38.2092C27.5068 38.7529 27.4884 39.2559 27.4354 39.7651C27.3864 40.7019 27.2967 41.6101 27.2477 42.547C27.1987 43.4838 27.1435 44.3859 27.123 45.282C27.0924 45.7158 27.0903 46.1089 27.1575 46.4897C27.2308 46.9052 27.2918 47.2514 27.3529 47.5976C27.3834 47.7707 27.3732 47.9153 27.3976 48.0538C27.422 48.1923 27.4464 48.3308 27.4709 48.4693L27.5014 48.6424L27.6236 48.7279L27.7518 48.8481L27.8679 48.899C27.9148 48.9622 27.9555 48.9907 28.0308 49.0131C28.0716 49.0416 28.1408 49.0294 28.21 49.0172C28.2447 49.0111 28.2854 49.0396 28.3546 49.0274C28.3893 49.0213 28.4239 49.0152 28.4931 49.003L28.5624 48.9908L28.7009 48.9664C28.7009 48.9664 28.7355 48.9602 28.7701 48.9541C28.8047 48.948 28.8332 48.9073 28.8679 48.9012C29.0756 48.8646 29.1856 48.8809 29.2609 48.9033C29.3077 48.9664 29.3546 49.0296 29.3668 49.0988C29.3912 49.2373 29.3464 49.388 29.2791 49.6141C29.1773 49.8462 29.0632 50.0091 28.9491 50.172C28.8351 50.3349 28.7434 50.4225 28.611 50.4815C28.4848 50.5752 28.3463 50.5996 28.2078 50.624ZM36.7025 19.0323C35.9409 19.1666 35.226 19.364 34.5458 19.5554C33.837 19.7874 33.169 20.048 32.5071 20.3432L32.4378 20.3554L30.348 22.4731L28.192 32.3134L28.5626 32.3909C28.8294 32.4866 29.084 32.5131 29.3732 32.5335C29.6624 32.554 29.9047 32.5112 30.1817 32.4624C30.4587 32.4135 30.7295 32.3301 30.9943 32.212C31.2591 32.0939 31.5524 31.9351 31.8742 31.7356C32.7703 31.1492 33.6604 30.5281 34.5382 29.8379C35.3876 29.1883 36.2308 28.5042 37.0272 27.7569C37.8297 27.0442 38.5853 26.2684 39.3349 25.4579C40.0498 24.6536 40.7587 23.8146 41.4268 22.9472C41.6325 22.6967 41.8321 22.4116 42.0032 22.1672C42.1743 21.9229 42.3047 21.65 42.4351 21.3771C42.594 21.0635 42.6836 20.7621 42.7041 20.4729C42.7306 20.2184 42.6878 19.976 42.6105 19.7398C42.5046 19.5442 42.3295 19.3609 42.0912 19.2244C41.853 19.088 41.5108 18.9698 41.1341 18.8577C40.9488 18.819 40.7696 18.8149 40.5842 18.7762C40.3643 18.7436 40.1851 18.7395 40.0059 18.7354C39.4397 18.7638 38.8735 18.7923 38.3074 18.8207C37.7473 18.8837 37.2219 18.9407 36.7025 19.0323ZM47.8613 39.7333C47.7921 39.7455 47.7574 39.7516 47.7228 39.7577C47.6882 39.7638 47.6475 39.7353 47.6128 39.7414C47.4744 39.7658 47.3583 39.7149 47.2707 39.6232C47.1832 39.5316 47.0936 39.2261 47.0713 38.6945C47.051 37.7699 47.0369 36.88 47.0859 35.9432C47.1349 35.0064 47.1839 34.0695 47.3022 33.1205C47.4204 32.1715 47.5733 31.2164 47.7547 30.2206C47.9422 29.2593 48.1989 28.2859 48.4496 27.2778C48.4496 27.2778 48.4781 27.2371 48.472 27.2025C48.4659 27.1679 48.4944 27.1271 48.4822 27.0579C48.4822 27.0579 48.5107 27.0172 48.5046 26.9825C48.5677 26.9357 48.6655 26.8828 48.7979 26.8237C48.8956 26.7708 48.9934 26.7179 49.0851 26.6303L49.2255 26.8197C49.2785 26.9175 49.3253 26.9806 49.3314 27.0152C49.3049 27.2698 49.2438 27.5305 49.1826 27.7912C49.1276 28.0864 49.0665 28.3471 48.9707 28.6139C48.9259 28.7646 48.9096 28.8746 48.8648 29.0253C48.8199 29.176 48.769 29.292 48.7588 29.4366C48.714 29.5873 48.6631 29.7034 48.6468 29.8134C48.6304 29.9233 48.6141 30.0333 48.6325 30.1372L48.5978 30.1433C48.61 30.2125 48.5224 30.7278 48.3695 31.6829L48.1575 33.1125L48.0658 33.807L48.4996 33.2307C48.5567 33.1492 48.7278 32.9049 49.013 32.4976C49.2981 32.0903 49.5833 31.683 49.9255 31.1943L50.6955 30.0947C50.9236 29.7689 51.0723 29.5999 51.1293 29.5184C51.6488 28.82 52.2374 28.1093 52.8892 27.3518C53.5471 26.6289 54.2458 25.9345 54.9912 25.3033C55.7367 24.6721 56.5575 24.0633 57.4598 23.5115C58.3335 23.0004 59.2887 22.5464 60.3376 22.2187C60.4761 22.1943 60.6085 22.1352 60.747 22.1108C60.8854 22.0864 61.0178 22.0273 61.1563 22.0029C61.2256 21.9907 61.3355 22.007 61.4394 21.9887C61.5086 21.9765 61.6186 21.9928 61.6879 21.9806C61.6879 21.9806 61.7286 22.0091 61.81 22.0661C61.8569 22.1293 61.8976 22.1578 61.9383 22.1863C61.9159 22.2617 61.8874 22.3024 61.8304 22.3838C61.7733 22.4653 61.7448 22.506 61.6817 22.5529C61.6531 22.5936 61.6185 22.5997 61.5493 22.6119L61.4108 22.6363C61.3477 22.6832 61.2438 22.7015 61.1745 22.7137C61.1053 22.7259 61.0422 22.7727 60.9729 22.7849C59.2458 23.5178 57.6816 24.3648 56.2865 25.3605C54.8913 26.3562 53.6305 27.5067 52.5734 28.7997C51.5223 30.1274 50.6342 31.5691 49.9151 33.1596C49.202 34.7847 48.6173 36.5299 48.2362 38.4177C48.2484 38.487 48.2199 38.5277 48.226 38.5623C48.2382 38.6316 48.2097 38.6723 48.2097 38.6723L48.2158 38.7069C48.1974 39.2099 48.1424 39.5052 48.0507 39.5928C47.9591 39.6803 47.8959 39.7272 47.8613 39.7333ZM75.1829 39.735C75.0954 39.6434 74.9732 39.5578 74.8856 39.4662C74.7981 39.3745 74.7105 39.2829 74.623 39.1912L74.6169 39.1566L74.6046 39.0873C74.6046 39.0873 74.5985 39.0527 74.5924 39.0181C74.5924 39.0181 74.621 38.9774 74.6148 38.9428C74.3993 36.9102 74.3751 34.9511 74.5424 33.0653C74.7157 31.2141 75.0398 29.4077 75.5492 27.64C75.6103 27.3794 75.706 27.1126 75.8772 26.8682C76.0483 26.6239 76.2255 26.4141 76.4088 26.239L76.4434 26.2329C76.478 26.2268 76.5065 26.1861 76.5758 26.1739C76.7143 26.1495 76.8242 26.1658 76.9342 26.1821C77.0442 26.1984 77.1195 26.2208 77.1542 26.2147C77.1664 26.2839 77.2193 26.3817 77.2845 26.5487C77.315 26.7218 77.3333 26.8257 77.3109 26.901C76.327 28.6096 75.783 30.3833 75.6381 32.1938C75.4994 34.0389 75.4584 35.831 75.4867 37.611L75.509 38.1425C75.4927 38.2525 75.511 38.3564 75.5232 38.4256L75.5721 38.7026C75.5843 38.7718 75.568 38.8818 75.5802 38.951C75.5985 39.0549 75.6107 39.1241 75.6107 39.1241C75.5598 39.2402 75.4742 39.3624 75.4172 39.4439C75.3601 39.5253 75.2746 39.6475 75.1829 39.735ZM76.1837 18.8891C76.1491 18.8952 76.1145 18.9013 76.0677 18.8382C76.0208 18.775 75.974 18.7119 75.915 18.5795C75.8803 18.5856 75.8803 18.5856 75.8803 18.5856L75.8681 18.5164C75.8173 18.0255 75.9049 17.5103 76.1657 16.9646C76.3918 16.4249 76.6607 16.1276 76.9255 16.0095L76.9601 16.0034L77.0293 15.9912C77.0986 15.979 77.2085 15.9953 77.347 15.9709C77.457 15.9872 77.567 16.0035 77.6423 16.0259L77.685 16.2683C77.7034 16.3721 77.6809 16.4475 77.6932 16.5167C77.5465 16.8996 77.3998 17.2824 77.2409 17.596C77.0881 17.9443 76.8946 18.264 76.7296 18.543C76.6726 18.6244 76.5748 18.6773 76.4485 18.771C76.3222 18.8647 76.253 18.8769 76.1837 18.8891ZM91.4694 33.4362C90.8462 33.5461 90.28 33.5746 89.7587 33.4523C89.2374 33.33 88.8423 33.1141 88.4982 32.7821C88.0848 32.4623 87.8262 32.0081 87.6593 31.4664C87.4924 30.9246 87.411 30.2607 87.462 29.5377C87.4926 29.104 87.5518 28.6294 87.6801 28.1427C87.7739 27.6621 87.9022 27.1754 88.0713 26.7172C88.6296 25.2265 89.3446 23.8153 90.2164 22.4835C91.0597 21.1925 92.0945 19.9748 93.2514 18.8426C93.561 18.5738 93.8767 18.3397 94.227 18.0994C94.5773 17.8591 94.9337 17.6535 95.2963 17.4825C95.3655 17.4703 95.4694 17.4519 95.5386 17.4397C95.6079 17.4275 95.671 17.3807 95.7749 17.3624C96.1211 17.3013 96.4164 17.3564 96.6954 17.5214C96.9743 17.6864 97.2024 17.9674 97.3388 18.3361C97.5057 18.8778 97.5219 19.3747 97.3997 19.8961C97.2428 20.4235 96.9861 20.7901 96.589 20.9672C96.5197 20.9794 96.4912 21.0201 96.4566 21.0262C96.3874 21.0384 96.3527 21.0445 96.3527 21.0445C96.2489 21.0628 96.1796 21.0751 96.1043 21.0526C96.035 21.0649 95.9536 21.0078 95.9067 20.9447C95.8314 20.9223 95.7846 20.8591 95.7662 20.7553C95.754 20.686 95.7357 20.5822 95.7459 20.4376C95.7337 20.3683 95.7561 20.293 95.8071 20.1769C95.8295 20.1015 95.8804 19.9855 95.9313 19.8694C95.9252 19.8348 95.9537 19.794 95.9762 19.7187C95.9986 19.6433 96.021 19.568 96.0434 19.4926L96.2573 18.8837L95.6158 18.8898C95.5466 18.902 95.5119 18.9081 95.5119 18.9081C95.4773 18.9142 95.4366 18.8857 95.402 18.8918C95.3327 18.904 95.292 18.8755 95.2574 18.8816C95.1881 18.8938 95.1474 18.8653 95.1128 18.8714C95.0435 18.8836 94.9804 18.9304 94.9458 18.9365C94.8765 18.9487 94.848 18.9894 94.8134 18.9956C93.9702 19.6797 93.2023 20.3863 92.5444 21.1092C91.8233 21.8789 91.2184 22.6995 90.7173 23.5019C90.1815 24.3103 89.7273 25.1758 89.3769 26.0229C89.0387 26.9393 88.7697 27.8435 88.5822 28.8047C88.4151 29.4768 88.3804 30.0898 88.4659 30.5745C88.5575 31.0938 88.7346 31.491 89.0726 31.7883C89.3414 32.0979 89.6611 32.2914 90.101 32.3567C90.5124 32.4626 91.0093 32.4464 91.5632 32.3487C91.6325 32.3365 91.7363 32.3182 91.8748 32.2938C91.9787 32.2755 92.1111 32.2164 92.2496 32.192C93.1029 31.9702 93.9726 31.6383 94.8993 31.225C95.7974 30.8525 96.7119 30.3699 97.6834 29.8059C99.046 29.0302 100.447 28.0692 101.818 26.935C103.195 25.8354 104.598 24.4813 106.075 22.9358C106.144 22.9236 106.173 22.8829 106.23 22.8014C106.258 22.7607 106.321 22.7139 106.378 22.6324C106.499 22.5041 106.619 22.3758 106.739 22.2475C106.859 22.1193 106.985 22.0256 107.152 21.9604C107.152 21.9604 107.146 21.9258 107.181 21.9197L107.25 21.9075C107.319 21.8953 107.429 21.9116 107.533 21.8933C107.643 21.9096 107.753 21.9259 107.829 21.9483C107.841 22.0176 107.824 22.1275 107.843 22.2314C107.833 22.376 107.816 22.486 107.794 22.5613C107.737 22.6428 107.674 22.6896 107.617 22.7711C107.56 22.8525 107.496 22.8993 107.439 22.9808C107.376 23.0276 107.348 23.0684 107.348 23.0684C107.319 23.1091 107.285 23.1152 107.25 23.1213C106.586 23.8096 105.893 24.5385 105.126 25.2451C104.329 25.9924 103.527 26.7051 102.655 27.43C101.783 28.1549 100.842 28.892 99.889 29.5598C98.8727 30.2745 97.8441 30.92 96.7973 31.4615C95.8889 31.9787 95.0315 32.3798 94.1557 32.677C93.2861 33.0088 92.4734 33.2592 91.6425 33.4057L91.5733 33.4179L91.4694 33.4362ZM114.014 29.4253C113.46 29.523 112.9 29.5861 112.328 29.5799C111.761 29.6083 111.218 29.5614 110.662 29.4452C109.261 29.1925 108.169 28.671 107.375 27.8115C106.581 26.9519 106.096 25.8236 105.991 24.4143C105.793 22.4857 106.013 20.6976 106.61 19.0216C107.173 17.3517 108.153 15.8224 109.515 14.4398C109.939 14.0081 110.381 13.6803 110.898 13.3749C111.387 13.1102 111.923 12.9087 112.477 12.811C112.719 12.7682 112.967 12.7601 113.25 12.7459C113.499 12.7378 113.747 12.7297 114.037 12.7501C114.407 12.8275 114.743 12.9111 115.057 13.07C115.336 13.235 115.546 13.4122 115.727 13.6301C115.845 13.8949 115.928 14.1658 115.977 14.4427C115.991 14.7258 115.942 15.0557 115.824 15.3979C115.718 15.8092 115.572 16.1921 115.356 16.5871C115.14 16.9822 114.924 17.3773 114.639 17.7845C113.732 19.1224 112.704 20.3747 111.518 21.5476C110.333 22.7205 108.99 23.814 107.498 24.8626L107.21 25.056L107.265 25.3676C107.501 26.504 107.994 27.2739 108.703 27.6487C109.418 28.0582 110.073 28.3352 110.698 28.4392C111.22 28.5615 111.729 28.6145 112.267 28.6268C112.804 28.6391 113.364 28.576 113.918 28.4783C114.23 28.4234 114.576 28.3623 114.916 28.2667C115.256 28.171 115.625 28.0346 115.959 27.9043C117.497 27.3119 118.998 26.5117 120.462 25.5039C121.933 24.5306 123.36 23.315 124.78 21.8509C124.963 21.6758 125.1 21.4375 125.259 21.1239C125.383 20.8164 125.473 20.515 125.522 20.1851C125.564 19.8206 125.689 19.5131 125.894 19.2626C126.1 19.0121 126.416 18.778 126.807 18.5662C126.807 18.5662 126.842 18.5601 126.876 18.554C126.911 18.5479 126.939 18.5072 127.009 18.495C127.147 18.4706 127.292 18.4808 127.436 18.491C127.587 18.5358 127.662 18.5582 127.703 18.5867C127.784 18.6437 127.843 18.7761 127.88 18.9839C127.917 19.1916 127.947 19.3647 127.943 19.5439C127.955 19.6132 127.904 19.7292 127.86 19.8799C127.78 20.0367 127.631 20.2058 127.426 20.4562C126.442 21.5579 125.474 22.5495 124.523 23.4312C123.537 24.319 122.574 25.1315 121.627 25.8339C120.645 26.5425 119.645 27.1472 118.668 27.6766C117.655 28.2121 116.631 28.6783 115.623 29.0346C115.358 29.1526 115.087 29.2361 114.81 29.2849C114.533 29.3338 114.291 29.3765 114.014 29.4253ZM113.269 14.0636C112.334 14.2284 111.47 14.5949 110.643 15.169C109.816 15.7432 109.124 16.4722 108.525 17.3275C107.932 18.2174 107.531 19.1806 107.309 20.1479C107.058 21.156 107.05 22.1213 107.278 23.0093L107.43 23.8748L108.107 23.2558C108.29 23.0807 108.473 22.9056 108.691 22.7244C108.909 22.5431 109.127 22.3619 109.31 22.1868C110.457 21.1992 111.551 20.1139 112.632 18.9593C113.686 17.8455 114.464 16.3874 114.938 14.6259L115.118 14.0231L114.47 13.9945C114.256 13.9965 114.077 13.9924 113.863 13.9944C113.656 14.031 113.442 14.033 113.269 14.0636Z" fill="#FB6868"/>
</svg>
