<svg width="24" height="22" viewBox="0 0 24 22" fill="none" xmlns="http://www.w3.org/2000/svg">
<ellipse cx="11.8154" cy="10.9471" rx="11.7259" ry="10.8324" fill="white"/>
<g clip-path="url(#clip0_274_1494)">
<path fill-rule="evenodd" clip-rule="evenodd" d="M8.71001 15.4333C7.58426 15.5451 6.5416 15.7911 5.9269 16.0092C5.75882 16.0688 5.57015 15.9915 5.50548 15.8365C5.44081 15.6816 5.52464 15.5076 5.69272 15.448C6.36687 15.2088 7.46568 14.9521 8.64016 14.8354C9.80952 14.7193 11.0969 14.7375 12.1273 15.0802C13.0661 15.3925 14.1896 15.6377 15.1936 15.7265C15.6955 15.7709 16.1588 15.7753 16.5492 15.7329C16.9452 15.6898 17.2371 15.6016 17.4218 15.4823C17.5693 15.3871 17.7726 15.4201 17.8759 15.5561C17.9793 15.6921 17.9434 15.8796 17.7959 15.9748C17.485 16.1756 17.0706 16.2816 16.6256 16.33C16.1753 16.379 15.6631 16.3721 15.1314 16.3251C14.068 16.231 12.8911 15.9735 11.906 15.6458C11.0124 15.3486 9.84087 15.3209 8.71001 15.4333Z" fill="#303030"/>
<path fill-rule="evenodd" clip-rule="evenodd" d="M6.34591 12.6562C6.64836 13.2336 7.26546 14.1762 8.30631 14.8225C8.45569 14.9152 8.49523 15.1021 8.39463 15.2398C8.29403 15.3775 8.09139 15.414 7.94202 15.3212C6.53512 14.4476 5.83425 13.1153 5.59904 12.5895C5.45895 12.2771 5.7488 11.9381 6.11731 12.0045C6.92612 12.1485 9.61894 12.6028 12.3392 12.7777C13.7195 12.8663 15.9584 12.9339 16.6668 12.9537L16.6674 12.9538C17.0075 12.9638 17.2322 13.3038 17.0602 13.5895L17.06 13.5898C16.6657 14.2432 16.0489 14.8164 15.4568 15.2488C14.8683 15.6787 14.2706 15.9936 13.8906 16.111C13.7199 16.1637 13.5351 16.0788 13.4779 15.9214C13.4207 15.7639 13.5127 15.5936 13.6835 15.5408C13.9645 15.454 14.4947 15.1844 15.0519 14.7775C15.5227 14.4336 15.9886 14.0091 16.3252 13.5454C15.4059 13.5181 13.5194 13.4562 12.2939 13.3775L12.2939 13.3775C9.84953 13.2204 7.43389 12.8418 6.34591 12.6562Z" fill="#303030"/>
<path d="M8.86017 9.61514C9.61285 9.61514 10.223 9.05257 10.223 8.3586C10.223 7.66463 9.61285 7.10205 8.86017 7.10205C8.10748 7.10205 7.49731 7.66463 7.49731 8.3586C7.49731 9.05257 8.10748 9.61514 8.86017 9.61514Z" fill="#A2D3DF"/>
<path fill-rule="evenodd" clip-rule="evenodd" d="M8.86019 7.4028C8.2876 7.4028 7.82342 7.83077 7.82342 8.3587C7.82342 8.88663 8.2876 9.3146 8.86019 9.3146C9.43279 9.3146 9.89697 8.88663 9.89697 8.3587C9.89697 7.83077 9.43279 7.4028 8.86019 7.4028ZM7.17126 8.3587C7.17126 7.49869 7.92742 6.80151 8.86019 6.80151C9.79296 6.80151 10.5491 7.49869 10.5491 8.3587C10.5491 9.21871 9.79296 9.91589 8.86019 9.91589C7.92742 9.91589 7.17126 9.21871 7.17126 8.3587Z" fill="#303030"/>
<path fill-rule="evenodd" clip-rule="evenodd" d="M8.74208 8.04839C8.55632 8.10847 8.45855 8.29602 8.52372 8.4673C8.58888 8.63857 8.7923 8.72871 8.97806 8.66863C9.16383 8.60855 9.26159 8.421 9.19643 8.24973C9.13127 8.07845 8.92785 7.98831 8.74208 8.04839ZM7.90832 8.66633C7.72394 8.18169 8.00058 7.651 8.52621 7.481C9.05185 7.311 9.62744 7.56606 9.81182 8.0507C9.99621 8.53533 9.71957 9.06602 9.19393 9.23603C8.66829 9.40603 8.09271 9.15097 7.90832 8.66633Z" fill="white"/>
<path fill-rule="evenodd" clip-rule="evenodd" d="M8.86026 5.53125C9.04035 5.53125 9.18634 5.66585 9.18634 5.83189V6.22087C9.18634 6.38691 9.04035 6.52152 8.86026 6.52152C8.68017 6.52152 8.53418 6.38691 8.53418 6.22087V5.83189C8.53418 5.66585 8.68017 5.53125 8.86026 5.53125Z" fill="#303030"/>
<path fill-rule="evenodd" clip-rule="evenodd" d="M6.69133 6.35905C6.81867 6.24164 7.02514 6.24164 7.15248 6.35905L7.45122 6.63449C7.57856 6.7519 7.57856 6.94226 7.45122 7.05967C7.32388 7.17708 7.11742 7.17708 6.99008 7.05967L6.69133 6.78423C6.56399 6.66682 6.56399 6.47646 6.69133 6.35905Z" fill="#303030"/>
<path fill-rule="evenodd" clip-rule="evenodd" d="M5.79297 8.35875C5.79297 8.19271 5.93896 8.05811 6.11905 8.05811H6.54149C6.72158 8.05811 6.86757 8.19271 6.86757 8.35875C6.86757 8.52479 6.72158 8.65939 6.54149 8.65939H6.11905C5.93896 8.65939 5.79297 8.52479 5.79297 8.35875Z" fill="#303030"/>
<path fill-rule="evenodd" clip-rule="evenodd" d="M7.45144 9.65857C7.57866 9.77608 7.57847 9.96644 7.45101 10.0837L7.15226 10.3587C7.0248 10.476 6.81834 10.4758 6.69112 10.3583C6.56389 10.2408 6.56409 10.0504 6.69154 9.93311L6.99029 9.65817C7.11775 9.54087 7.32421 9.54105 7.45144 9.65857Z" fill="#303030"/>
<path fill-rule="evenodd" clip-rule="evenodd" d="M8.86026 10.1958C9.04035 10.1958 9.18634 10.3304 9.18634 10.4964V10.8859C9.18634 11.052 9.04035 11.1866 8.86026 11.1866C8.68017 11.1866 8.53418 11.052 8.53418 10.8859V10.4964C8.53418 10.3304 8.68017 10.1958 8.86026 10.1958Z" fill="#303030"/>
<path fill-rule="evenodd" clip-rule="evenodd" d="M10.2689 9.65857C10.3961 9.54105 10.6026 9.54087 10.73 9.65817L11.0288 9.93311C11.1562 10.0504 11.1564 10.2408 11.0292 10.3583C10.902 10.4758 10.6955 10.476 10.568 10.3587L10.2693 10.0837C10.1418 9.96644 10.1417 9.77608 10.2689 9.65857Z" fill="#303030"/>
<path fill-rule="evenodd" clip-rule="evenodd" d="M10.8252 8.17491C10.8252 8.00887 10.9712 7.87427 11.1513 7.87427H11.5428C11.7229 7.87427 11.8689 8.00887 11.8689 8.17491C11.8689 8.34095 11.7229 8.47556 11.5428 8.47556H11.1513C10.9712 8.47556 10.8252 8.34095 10.8252 8.17491Z" fill="#303030"/>
<path fill-rule="evenodd" clip-rule="evenodd" d="M11.029 6.35905C11.1563 6.47646 11.1563 6.66682 11.029 6.78423L10.7302 7.05967C10.6029 7.17708 10.3964 7.17708 10.2691 7.05967C10.1417 6.94226 10.1417 6.7519 10.2691 6.63449L10.5678 6.35905C10.6952 6.24164 10.9016 6.24164 11.029 6.35905Z" fill="#303030"/>
</g>
<defs>
<clipPath id="clip0_274_1494">
<rect width="12.4512" height="10.8324" fill="white" transform="translate(5.48352 5.53101)"/>
</clipPath>
</defs>
</svg>
