<svg width="230" height="275" viewBox="0 0 230 275" fill="none" xmlns="http://www.w3.org/2000/svg">
<path d="M109.827 175.746C110.059 176.154 110.59 176.602 110.734 177.061C109.938 174.492 115.292 166.787 116.874 168.245C118.444 168.724 116.486 171.608 116.32 171.792C117.991 171.119 119.385 172.841 119.407 174.075C119.418 174.706 118.655 173.646 118.71 174.197C118.71 174.278 119.23 176.286 119.407 176.205C117.427 176.887 113.887 177.285 113.057 179.497C112.471 178.916 111.84 178.691 110.944 177.998C112.714 179.568 108.798 185.122 106.807 185.214C106.486 185.235 107.216 183.991 106.409 183.798C105.303 183.522 106.265 184.847 105.701 184.745C106.176 184.807 102.559 183.033 102.736 183.482C102.183 182.085 103.51 180.444 101.951 178.742C101.165 177.581 103.732 177.305 104.55 177.051C105.502 176.755 105.535 178.406 106.741 177.642C107.681 177.051 108.743 176.143 109.827 175.766V175.746ZM48.8634 48.4295C45.4784 48.4295 41.3412 45.1171 38.7194 48.562C36.8057 51.0896 36.7946 53.9025 39.007 56.2466C41.9717 59.3755 50.3347 55.3905 54.2949 57.7448C57.6357 59.7322 66.1093 56.8785 64.1624 52.1801C63.7089 51.0794 59.3172 48.2766 58.1003 47.4001C55.556 45.5758 51.64 48.6231 48.8634 48.4193V48.4295ZM154.596 114.87C154.485 114.391 153.799 113.759 154.286 113.25C155.182 112.526 156.775 111.548 157.947 111.364C159.286 111.15 164.64 108.368 165.934 109.733C167.428 111.109 165.492 103.353 170.105 105.035C167.793 103.893 167.35 100.683 166.167 98.8485C165.06 97.1261 162.494 96.4433 161.952 93.6711C161.952 93.6711 173.866 97.4013 172.151 91.5614C171.532 88.6873 166.244 84.8959 172.605 83.9277C176.012 83.5811 179.618 86.0476 183.059 85.8947C185.946 85.7622 199.198 85.0386 200.349 82.4295C200.681 81.7262 204.696 78.7196 204.597 78.5871C203.855 77.5883 206.444 73.6135 206.201 73.5626C207.86 73.9295 209.63 74.2454 208.878 70.8311C215.393 70.3725 212.34 61.2814 216.156 61.2814C218.557 61.2814 217.572 58.4481 217.595 57.6123C217.639 55.7778 220.57 57.1945 220.349 55.6249C219.995 53.5866 219.199 55.737 217.96 54.6057C218.679 55.4109 224.11 49.0104 224.929 48.6537C226.765 47.8384 227.628 47.0332 226.909 45.056C226.666 43.7209 228.679 43.5272 229.42 43.1603C230.216 42.7526 229.464 41.0506 229.763 40.7143C229.497 40.9181 227.96 41.8761 228.104 40.5512C228.104 37.9625 228.801 37.8605 228.093 35.5878C227.849 34.8234 229.398 33.2844 229.166 32.0614C228.834 30.288 228.27 30.1759 227.617 29.5032C225.736 27.098 229.84 19.7904 224.619 17.8947C221.422 16.7329 223.612 13.6753 222.351 11.586C221.643 10.4139 223.092 9.74126 219.951 9.8126C218.911 9.83298 217.96 12.9211 217.218 10.0164C217.263 10.1693 213.159 6.37795 213.645 6.37795C210.404 6.37795 207.661 2.72927 209.055 0.731671C210.382 -1.1742 203.844 1.25145 204.165 1.2005C198.579 1.97508 205.028 8.36536 205.039 9.4355C205.039 11.2191 202.506 16.794 201.057 18.0782C198.767 20.0962 198.944 24.2544 196.621 25.9667C195.382 27.047 195.691 27.6687 195.094 29.0038C194.497 30.3695 191.798 32.0614 190.592 33.1927C188.866 34.8234 189.674 34.9966 188.556 36.6987C187.904 37.6975 187.107 36.5254 186.123 37.351C184.286 38.8797 183.855 39.318 183.092 41.4481C182.45 43.2622 178.556 43.8534 176.864 44.7706C175.99 45.2496 170.26 44.5974 171.067 46.0854C171.476 46.8498 173.069 46.7071 173.678 48.5212C174.353 50.5086 174.507 51.3342 173.235 52.9954C171.996 54.6159 166.886 57.6327 164.905 58.0302C161.631 58.6825 156.686 59.8443 155.879 63.6459C155.746 64.2574 154.076 67.4373 154.02 67.3761C154.275 67.6309 156.211 70.5662 156.244 70.5356C158.301 69.4553 157.66 70.5152 160.127 70.9535C162.063 71.0656 160.757 73.7664 162.206 73.7664C161.122 73.8989 158.08 73.8072 157.815 73.6339C157.859 73.6543 159.231 71.6159 158.069 71.0961C157.759 70.9636 156.874 72.0847 156.874 72.2682C156.874 73.4912 156.144 72.3293 155.127 72.3905C154.43 72.4313 151.631 73.9702 151.432 74.6633C149.905 79.1273 142.925 79.6369 139.197 81.818C136.962 83.1225 134.053 80.9007 131.874 82.0829C130.237 82.9696 130.591 84.9876 126.94 83.9481C125.48 83.5302 125.181 83.3467 123.765 83.8257C121.398 84.6411 122.217 81.288 121.641 80.5338C120.867 79.7286 114.396 77.3539 114.916 76.508C114.772 76.6915 117.15 76.6609 117.416 76.5692C116.597 76.8749 118.179 72.5841 118.179 72.4618C118.179 71.4223 118.599 67.7226 120.259 67.4678C130.281 66.7544 111.962 58.9577 111.254 61.1999C111.365 60.8635 112.725 64.9199 112.493 64.5938C111.885 63.493 111.508 62.3617 110.181 61.5973C107.935 60.303 111.652 59.6915 110.767 59.0392C106.851 55.4109 101.044 58.8761 96.5303 58.6417C93.5767 58.4888 89.5501 61.4139 87.6363 59.5794C87.1717 59.1309 80.3463 56.9499 80.3463 56.9193C80.2357 57.4391 81.5853 60.0278 79.9813 60.2113C79.937 60.2214 78.6206 63.6051 78.676 64.3288C78.8308 66.3569 83.2114 68.6501 83.8641 70.9433C84.8154 74.2964 78.3994 76.5284 80.6782 80.7172C81.9282 84.1825 84.3066 87.6477 85.5677 91.1639C86.508 93.0901 87.6363 92.815 89.9704 93.5895C93.3886 94.9349 92.0059 92.2952 94.6055 91.4696C96.1984 90.96 101.718 92.6009 103.079 93.6507C105.457 95.8317 108.134 96.0152 110.778 97.228C111.918 97.8191 114.075 97.8395 114.805 98.9504C116.099 101.03 114.473 103.445 114.141 105.483C114.163 105.351 108.367 114.422 108.168 114.473C108.256 114.452 106.597 112.832 105.347 112.964C104.086 113.097 104.418 114.106 103.754 114.84C100.103 118.835 100.623 114.096 98.5657 113.78C99.6609 114.116 96.7958 118.712 96.2095 119.11C94.5059 120.353 95.4241 117.571 94.3621 120.975C93.8754 122.534 93.5324 122.718 92.393 122.983C90.1585 123.768 91.1762 121.209 88.3 123.309C87.0389 124.226 85.3243 123.88 84.4172 124.777C83.9526 125.245 84.3508 128.191 82.2601 127.804C81.53 127.559 78.5764 124.929 78.145 124.838C78.1671 124.899 75.9104 125.368 75.8883 125.408C73.2334 128.17 74.6051 124.878 73.5321 125.378C73.1338 125.531 74.2843 128.67 72.7688 128.67C73.2776 128.67 68.5098 125.225 68.7421 127.62C68.7421 128.894 66.762 129.618 67.8572 130.81C68.7643 131.799 70.2576 137.394 66.939 136.151C66.0098 135.723 61.6955 140.533 59.7265 141.104C59.0296 141.338 53.3215 145.955 55.014 146.475C56.3415 146.883 54.0848 150.093 53.2551 150.419C52.8569 150.572 50.4674 149.441 49.6488 149.482C47.4254 149.604 45.4895 147.484 44.3501 147.484C42.8124 147.484 39.3057 152.009 37.5579 152.957C36.0866 153.752 35.965 155.291 34.195 155.413C31.872 155.576 31.1308 152.396 30.0688 150.888C29.394 149.94 24.0953 147.871 24.3607 149.217C24.8364 150.205 26.9382 150.745 26.2634 152.121C25.3674 153.986 25.1019 156.555 25.5112 158.512C25.7767 159.786 28.852 165.595 28.5201 166.206C27.9449 166.92 30.8764 170.089 31.1529 171.129C31.5622 172.77 33.0888 175.878 35.1906 176.439C34.7039 176.388 34.8256 176.357 33.9516 176.816C33.9295 176.816 34.5822 179.7 34.7481 179.751C36.6619 180.404 35.9207 183.104 36.0092 185.255C36.0313 185.887 35.4118 186.59 35.7548 188.027C36.6287 191.737 37.757 188.527 38.8964 189.209C39.715 189.699 37.4583 193.113 40.1243 193.796C40.7327 193.949 39.8699 199.126 39.6708 199.146C38.7637 199.208 36.2415 200.634 35.5114 201.45C34.7924 201.847 33.476 203.396 33.8521 203.692C33.5534 203.468 31.4848 202.866 31.1087 203.213C30.8432 203.447 29.2392 207.208 28.9184 207.208C28.9184 207.208 27.1705 207.025 27.259 207.147C27.1595 206.729 27.2037 206.332 27.3807 205.955C26.0754 204.467 22.9559 207.218 22.624 207.779C21.6395 209.41 19.9248 210.347 18.6305 211.693C18.0221 212.324 13.4645 212.274 13.4977 212.335C14.0066 213.762 15.323 211.366 15.323 214.057C15.323 214.944 15.6327 216.004 15.7765 216.809C15.5663 215.637 12.2919 216.717 12.3804 214.74C12.4247 213.762 9.01753 214.699 11.23 217.41C12.0928 218.338 9.64808 218.99 9.8472 219.683C10.4888 221.935 12.7787 220.274 12.3694 218.317C12.5906 218.317 12.7123 217.991 12.9335 217.991V219.112C12.9335 219.112 13.3097 218.694 13.542 218.256C13.6747 218.134 13.6968 217.93 13.8628 217.93C14.3606 219.367 14.0619 220.58 13.5198 221.732C14.5597 221.558 13.4424 221.65 13.9402 221.253C14.438 221.64 14.7809 222.231 15.1238 222.822C14.3274 222.72 11.5176 222.944 11.5176 223.8C11.5176 224.911 8.89585 223.688 8.33168 224.392C7.66795 225.217 9.09497 226.97 11.1415 228.723C9.10603 227.673 7.15909 226.165 5.20109 225.543C4.55948 225.248 1.59482 227.949 1.59482 228.519C1.59482 231.373 -1.53577 231.709 0.975343 234.522C1.86032 235.399 1.91563 238.14 2.53511 238.191C3.65239 238.273 5.14578 238.456 4.4378 240.199C4.22762 240.729 3.71876 243.481 3.99531 243.624C5.67676 244.286 1.67226 245.866 3.89575 247.517L4.38249 247.578C5.17896 248.465 9.15028 247.619 10.1348 247.384C10.2233 247.598 10.3229 247.812 10.4114 248.027C9.96888 248.067 9.53746 248.108 9.09497 248.149C9.4379 248.689 9.4379 248.587 9.4379 249.168C9.01753 248.393 6.81616 248.587 6.40686 249.219C4.68117 251.848 3.04397 248.536 4.23868 253.02C4.61479 254.458 4.47099 255.222 4.86922 256.679C7.00422 255.711 3.71876 253.173 7.50202 253.255C7.18121 253.754 7.32502 254.274 7.01528 254.723C7.40246 254.621 8.8516 254.702 9.85826 254.906C8.80735 256.272 7.3914 259.859 8.89585 260.471C7.85601 262.815 4.92453 270.306 7.64583 271.875C7.92238 271.845 12.1481 272.895 12.1592 272.895C14.1504 275.636 14.7477 272.752 16.927 271.539C21.2855 269.093 24.1063 269.694 28.3542 268.95C29.2281 268.797 35.7769 261.622 35.3676 260.471C34.6817 258.127 42.3699 259.411 40.8655 255.589C42.4695 259.645 44.9917 251.125 48.2661 253.856C51.2086 256.078 55.1357 249.606 56.9388 247.853C57.4034 247.446 61.7951 243.664 62.1048 243.573C65.1801 242.166 62.9787 243.777 64.1181 240.892C65.2686 238.568 62.4478 239.19 61.4854 237.957C60.6557 236.815 61.8172 233.809 58.7751 234.349C55.7441 234.889 51.0869 236.928 50.9763 238.884C50.7219 243.257 47.0714 240.831 46.8059 240.311C46.4629 239.679 46.0979 237.631 46.297 237.386C46.6952 237.019 47.0603 238.018 47.2041 237.814C47.7572 236.958 45.8545 235.195 45.4673 234.706C45.0912 234.003 44.0514 234.318 44.0071 233.748C43.985 233.615 44.1067 231.312 44.151 231.353C43.6642 230.68 43.7306 230.588 43.2217 230.384C41.7836 229.814 43.277 229.11 44.5824 229.6C44.6156 228.142 45.6554 227.898 47.4143 224.422C48.0559 223.148 50.5891 222.608 50.5891 221.344C50.5891 220.08 49.5382 217.583 50.4121 215.851C51.7728 212.712 53.244 209.787 55.7441 207.178C55.9211 206.984 59.8813 205.017 59.4942 204.732C59.284 204.609 59.9145 200.41 59.4278 200.482C58.7309 200.798 58.0561 199.636 57.5804 199.391C58.2995 199.768 58.6203 198.28 58.4875 198.341C58.5871 198.565 58.753 198.749 58.9742 198.881C59.9477 197.985 57.8791 196.476 59.4167 195.661C60.8216 194.917 61.8504 197.455 63.3106 196.109C63.7642 195.691 63.0009 192.542 64.1071 192.685C65.4567 192.685 69.6824 192.736 70.0696 191.217C70.0032 191.492 66.6514 189.383 66.5408 189.434C66.0872 189.586 65.7553 188.048 66.0208 187.772C67.2598 186.519 66.8616 188.588 67.7576 188.251C67.824 187.997 67.824 187.742 67.7576 187.487C68.6426 186.998 71.1537 190.015 72.5475 188.506C73.5874 187.385 72.1272 186.926 73.2112 186.111C74.3838 185.571 75.1471 188.404 76.0542 188.058C77.4481 187.548 77.4259 186.804 77.0941 186.019C79.5277 189.77 86.7735 195.059 89.1961 196.395C89.9483 196.812 92.924 199.218 93.5103 198.79C93.997 198.433 96.121 196.558 94.9152 194.703C94.5944 194.163 93.1674 192.247 93.3886 191.472C94.0192 188.272 87.6584 186.539 85.8995 185.275C83.1229 183.023 81.2977 180.424 79.1074 177.744C77.791 176.133 80.3685 172.76 78.6317 172.118C78.0012 171.893 81.0654 171.343 81.0764 171.027C81.2092 168.092 73.3772 164.331 71.3307 162.558C70.6448 162.028 67.6912 161.192 67.5474 160.866C67.3483 160.366 66.5629 158.094 67.1713 156.779C66.0098 155.801 63.8084 157.696 63.1557 155.067C63.388 156.025 64.8372 152.131 64.5385 152.335C65.6226 151.347 67.8018 155.75 68.8417 151.887C68.6204 152.244 67.9014 151.418 67.9014 151.214C67.9014 149.736 70.2355 148.167 70.7223 146.638C71.2864 144.875 76.9945 143.173 78.687 143.856C80.3131 144.518 82.4592 142.938 83.8862 143.896C85.9217 145.221 86.508 146.312 89.1739 146.261C91.4749 146.22 91.3311 147.352 92.4152 147.851L93.278 148.422C93.4992 148.503 97.3378 149.4 97.2604 149.41C97.913 149.288 101.586 149.339 103.134 149.594C102.272 148.238 101.486 143.805 102.05 143.978C105.535 144.773 102.083 141.899 104.185 140.319C105.192 139.565 102.968 137.71 105.446 137.71C106.995 137.71 107.515 137.944 108.566 138.76C110.292 140.35 119.894 138.372 116.863 134.917C119.694 138.128 121.033 132.492 121.21 131.279C121.398 129.974 118.146 128.976 118.522 126.846C118.743 125.592 121.133 124.491 121.509 126.244C122.139 128.925 122.847 121.383 124.529 123.717C126.287 127.753 133.511 122.147 131.033 121.841C131.763 121.933 138.069 121.688 138.212 121.413C138.268 121.301 134.319 114.564 134.164 114.33C133.522 113.331 132.228 112.475 132.361 111.221C132.416 110.64 134.507 111.395 134.507 110.498C135.403 114.228 139.407 110.691 141.653 111.099C142.173 111.099 141.354 111.649 141.487 111.802C141.896 112.281 146.41 111.221 147.483 114.075C147.77 114.84 148.876 115.981 149.75 116.103C150.624 116.226 153.711 116.154 154.651 114.89L154.596 114.87Z" fill="#71A454"/>
</svg>
