<svg width="195" height="63" viewBox="0 0 195 63" fill="none" xmlns="http://www.w3.org/2000/svg">
<path d="M9.55189 57.8914L9.44802 57.9097L9.30953 57.9341C9.06107 57.9423 8.86965 57.8689 8.70674 57.7548C8.54383 57.6408 8.40334 57.4514 8.3545 57.1744C8.27104 56.9035 8.21609 56.5919 8.20188 56.3088C8.15304 56.0318 8.13882 55.7488 8.15923 55.4596C8.16742 55.1011 8.17562 54.7427 8.21844 54.3782C8.22664 54.0197 8.26945 53.6552 8.30006 53.2214L8.34087 52.6431C8.34497 52.4638 8.38369 52.2785 8.41631 52.0586L8.4245 51.7001L8.14343 51.9282C7.99474 52.0972 7.83994 52.2316 7.67904 52.3314C7.51814 52.4311 7.35724 52.5309 7.19634 52.6307C6.88064 52.8648 6.56494 53.099 6.28387 53.3271C6.00279 53.5551 5.80927 53.8748 5.69721 54.2516C5.64628 54.3676 5.58925 54.4491 5.52611 54.4959C5.46297 54.5428 5.42835 54.5489 5.3591 54.5611C5.28986 54.5733 5.25524 54.5794 5.18599 54.5916C5.11675 54.6038 5.07602 54.5753 5.00067 54.5529C4.8907 54.5366 4.80925 54.4795 4.72169 54.3879C4.64023 54.3308 4.55267 54.2392 4.53436 54.1353L4.50384 53.9622C4.49163 53.893 4.47942 53.8237 4.53645 53.7423C4.58128 53.5916 4.70145 53.4633 4.81552 53.3004C4.93569 53.1721 5.09049 53.0377 5.25139 52.9379C5.46933 52.7567 5.69337 52.6101 5.94593 52.4228C6.16386 52.2416 6.3879 52.095 6.64046 51.9076L7.3411 51.4271C7.56514 51.2805 7.78307 51.0993 8.00101 50.9181C8.19043 50.7776 8.37985 50.6371 8.49392 50.4742C8.61409 50.3459 8.66502 50.2298 8.70985 50.0791L9.01559 48.1689C9.11954 47.5437 9.18887 46.9246 9.29282 46.2993L9.39067 45.6395L9.48852 44.9797L9.50482 44.8697L9.11587 44.6884L9.01811 44.7413C8.89183 44.835 8.79407 44.8879 8.70241 44.9755C8.57613 45.0692 8.47837 45.1221 8.34599 45.1811C8.09343 45.3685 7.80625 45.5619 7.51907 45.7553C7.23189 45.9488 6.9386 46.1076 6.67994 46.2603C6.49052 46.4008 6.32962 46.5006 6.19724 46.5596C6.03023 46.6247 5.89174 46.6492 5.78788 46.6675C5.71863 46.6797 5.60866 46.6634 5.52721 46.6063C5.44575 46.5493 5.3704 46.5269 5.35819 46.4576C5.34598 46.3884 5.33377 46.3192 5.35008 46.2092C5.37249 46.1338 5.3888 46.0239 5.44584 45.9424L5.60674 45.8426C5.66988 45.7958 5.73302 45.749 5.79616 45.7022C5.83078 45.696 5.8593 45.6553 5.89392 45.6492C5.89392 45.6492 5.92854 45.6431 5.99168 45.5963C6.12406 45.5372 6.25034 45.4436 6.37662 45.3499C6.5029 45.2562 6.63528 45.1972 6.76156 45.1035C7.04874 44.9101 7.37055 44.7106 7.69235 44.511C8.01415 44.3115 8.34206 44.1466 8.66386 43.947C9.05491 43.7353 9.3645 43.4665 9.59264 43.1407C9.78615 42.821 9.92673 42.4035 9.97975 41.8944C10.0471 41.0615 10.1144 40.2285 10.2163 39.3895C10.3183 38.5504 10.4202 37.7114 10.5568 36.8662L10.6322 36.2818C10.6648 36.0618 10.6914 35.8073 10.7525 35.5466C10.7851 35.3266 10.887 35.0945 10.9888 34.8623C10.9766 34.7931 11.0398 34.7463 11.166 34.6526C11.2638 34.5997 11.3616 34.5467 11.4308 34.5345L11.4654 34.5284L11.5 34.5223C11.5754 34.5447 11.6222 34.6079 11.7159 34.7341C11.8096 34.8604 11.8625 34.9582 11.8808 35.062C11.9052 35.2005 11.8889 35.3105 11.8726 35.4205L11.7952 35.7911C11.8074 35.8604 11.7789 35.9011 11.785 35.9357C11.7626 36.0111 11.734 36.0518 11.734 36.0518C11.6199 36.8216 11.5057 37.5914 11.3855 38.3266C11.2306 39.0678 11.1164 39.8376 10.9962 40.5728L10.6782 42.4138L10.8798 42.3426C11.1222 42.2998 11.3585 42.2225 11.554 42.1166C11.7495 42.0107 11.9043 41.8763 12.0937 41.7358L12.4155 41.5363C12.5133 41.4834 12.6457 41.4243 12.7719 41.3307C13.3707 41.0823 13.8066 40.7198 14.1488 40.2311C14.491 39.7424 14.6703 39.1396 14.7559 38.4105C14.7927 38.0114 14.864 37.6061 14.9699 37.1947C15.0759 36.7834 15.1819 36.372 15.3224 35.9545C15.3673 35.8038 15.406 35.6185 15.4447 35.4332C15.4895 35.2825 15.5629 35.0911 15.6016 34.9057C15.6016 34.9057 15.5955 34.8711 15.5894 34.8365C15.5894 34.8365 15.6179 34.7958 15.6118 34.7612L15.6505 34.5758C15.6729 34.5005 15.7015 34.4598 15.73 34.419C15.7931 34.3722 15.8909 34.3193 15.9825 34.2317C16.0803 34.1788 16.1434 34.1319 16.2127 34.1197C16.2941 34.1768 16.3817 34.2684 16.4692 34.3601C16.5629 34.4863 16.5812 34.5902 16.5934 34.6595C16.5832 34.8041 16.5669 34.914 16.5506 35.024C16.5058 35.1747 16.4895 35.2847 16.4385 35.4007C16.4161 35.4761 16.3876 35.5168 16.3652 35.5922C16.3428 35.6675 16.3143 35.7082 16.3204 35.7429C16.2144 36.1542 16.1085 36.5656 16.031 36.9362C15.919 37.313 15.813 37.7244 15.7356 38.095L15.5012 38.9931L15.8678 39.2497L16.4768 38.8568C16.6723 38.7509 16.8963 38.6043 17.0918 38.4984C17.2874 38.3925 17.4768 38.2521 17.7008 38.1055L17.8903 37.965C18.0858 37.8591 18.2813 37.7532 18.4707 37.6127C18.6662 37.5068 18.8903 37.3602 19.0858 37.2544C19.1489 37.2075 19.2467 37.1546 19.3159 37.1424C19.3852 37.1302 19.4483 37.0833 19.5176 37.0711C19.5868 37.0589 19.6622 37.0813 19.7375 37.1038C19.819 37.1608 19.8658 37.2239 19.9126 37.2871C20.0063 37.4133 20.0307 37.5518 19.9737 37.6333C19.9228 37.7494 19.768 37.8838 19.5378 37.9957L19.0205 38.3011C18.825 38.407 18.6702 38.5414 18.5439 38.6351C18.1875 38.8407 17.8371 39.081 17.4807 39.2866C17.1243 39.4923 16.7679 39.6979 16.4053 39.8689C15.9165 40.1336 15.5438 40.4492 15.2871 40.8158C15.0366 41.2169 14.9021 41.669 14.8491 42.1781C14.7778 42.5834 14.741 42.9826 14.6697 43.3878C14.5984 43.7931 14.5209 44.1637 14.4435 44.5344C14.4109 44.7543 14.3722 44.9396 14.3395 45.1596C14.3069 45.3795 14.2682 45.5648 14.2295 45.7502C14.2071 45.8255 14.1847 45.9009 14.1969 45.9701C14.2091 46.0394 14.1867 46.1147 14.1989 46.1839L14.2233 46.3224C14.2355 46.3917 14.207 46.4324 14.2131 46.467L14.2212 46.7155L14.8363 46.3571C14.9626 46.2635 15.0603 46.2105 15.1866 46.1169L15.5084 45.9173C15.7039 45.8115 15.9341 45.6995 16.1581 45.5529C16.3537 45.447 16.5777 45.3004 16.7671 45.1599C17.2844 44.8545 17.8303 44.5084 18.3761 44.1622C18.9281 43.8507 19.4739 43.5046 20.0198 43.1584C20.1521 43.0994 20.2845 43.0404 20.4515 42.9752C20.5839 42.9162 20.7509 42.851 20.924 42.8205C20.9587 42.8144 20.9994 42.8429 21.034 42.8368C21.0686 42.8307 21.1032 42.8246 21.1725 42.8124C21.2071 42.8063 21.2886 42.8633 21.37 42.9204C21.4576 43.012 21.5451 43.1037 21.592 43.1668L21.541 43.2829C21.5186 43.3582 21.4677 43.4743 21.3821 43.5965C21.3536 43.6372 21.3251 43.6779 21.2905 43.6841C21.2559 43.6902 21.2212 43.6963 21.1866 43.7024C21.152 43.7085 21.1235 43.7492 21.0889 43.7553C21.0542 43.7614 21.0257 43.8021 21.0257 43.8021C20.543 44.1014 20.0542 44.3661 19.5654 44.6308C19.0827 44.9301 18.5939 45.1948 18.1397 45.4534L16.3922 46.4755C15.8117 46.8277 15.1967 47.1861 14.6101 47.5037C14.4146 47.6096 14.2659 47.7786 14.0826 47.9537C13.8992 48.1288 13.8035 48.3956 13.7831 48.6848C13.7627 48.974 13.7362 49.2285 13.7097 49.4831C13.6831 49.7376 13.6913 49.9861 13.6586 50.2061C13.5934 50.6459 13.5628 51.0797 13.5322 51.5135C13.5016 51.9473 13.5056 52.375 13.5096 52.8026C13.477 53.0226 13.5136 53.2303 13.5503 53.438L13.6601 54.0612L13.7334 54.4767L13.8067 54.8922C13.825 54.996 13.8087 55.106 13.7577 55.2221C13.7068 55.3382 13.6844 55.4135 13.6844 55.4135C13.5459 55.4379 13.442 55.4562 13.2913 55.4114C13.1406 55.3666 13.0653 55.3442 13.0592 55.3096C12.9065 55.0509 12.7945 54.8207 12.7518 54.5784C12.6805 54.3768 12.6378 54.1344 12.6358 53.9206C12.6318 53.4929 12.6563 53.0245 12.6808 52.5561C12.7053 52.0877 12.7298 51.6193 12.7889 51.1448C12.793 50.9656 12.7971 50.7863 12.8358 50.601C12.846 50.4564 12.8501 50.2772 12.8481 50.0634C12.8359 49.9941 12.8522 49.8842 12.8685 49.7742C12.8909 49.6988 12.9072 49.5889 12.9174 49.4443C12.9052 49.375 12.9276 49.2997 12.9154 49.2304C12.9032 49.1612 12.9256 49.0858 12.948 49.0105L12.9746 48.7559L12.7444 48.8679C12.2149 49.1041 11.7322 49.4034 11.3187 49.6905C10.8706 49.9837 10.4633 50.3054 10.0498 50.5925L9.79726 50.7798L9.54471 50.9671C9.48767 51.0486 9.43064 51.1301 9.3736 51.2115C9.31657 51.293 9.26564 51.409 9.27785 51.4783L9.21262 51.9182L9.14739 52.3581C9.06175 53.0871 9.00463 53.7755 8.95362 54.4984C8.9026 55.2214 8.95545 55.9261 9.11217 56.6124L9.159 56.6755L9.19973 56.7041L9.24656 56.7672C9.24656 56.7672 9.28118 56.7611 9.31581 56.755C9.32802 56.8242 9.36874 56.8527 9.40337 56.8466L9.51334 56.8629L9.58869 56.8854C9.80863 56.918 9.95933 56.9628 10.0408 57.0198C10.1222 57.0769 10.1813 57.2093 10.1365 57.3599C10.0916 57.5106 10.0407 57.6267 9.94904 57.7143C9.85738 57.8018 9.725 57.8609 9.55189 57.8914ZM13.5682 41.7971L13.5396 41.8379L13.505 41.844C13.0223 42.1433 12.5742 42.4365 12.1262 42.7297C11.6781 43.0229 11.2585 43.2753 10.8451 43.5624C10.7188 43.6561 10.6271 43.7437 10.5355 43.8312C10.4153 43.9595 10.3644 44.0756 10.3481 44.1856C10.2502 44.8454 10.1238 45.5459 10.026 46.2058C9.92815 46.8656 9.8303 47.5254 9.72635 48.1506C9.69374 48.3706 9.6326 48.6312 9.58368 48.9612L9.52455 49.4357L9.88499 49.6577L10.1722 49.4643C10.3677 49.3584 10.5571 49.2179 10.6834 49.1242C11.0398 48.9186 11.4248 48.6722 11.8036 48.3912L12.9523 47.6175C13.0155 47.5707 13.1071 47.4831 13.158 47.367C13.209 47.251 13.2253 47.141 13.2762 47.0249C13.3802 46.3997 13.4841 45.7745 13.582 45.1147C13.6798 44.4548 13.7776 43.795 13.8755 43.1352L14.0773 41.8502L13.9327 41.84C13.8981 41.8461 13.8574 41.8175 13.8574 41.8175L13.7881 41.8298C13.7535 41.8359 13.7128 41.8073 13.6781 41.8134C13.6435 41.8195 13.6028 41.791 13.5682 41.7971ZM28.1367 58.1486C28.0675 58.1608 27.9636 58.1791 27.8882 58.1567C27.7844 58.175 27.6744 58.1587 27.5583 58.1078C27.1123 58.0079 26.8211 57.7737 26.7194 57.3989C26.583 57.0303 26.5036 56.5802 26.4874 56.0833C26.4732 55.8002 26.4528 55.4825 26.4264 55.1302C26.3715 54.8186 26.3512 54.5009 26.3594 54.1424C26.2557 52.947 26.1744 51.6761 26.0931 50.4053C26.0118 49.1345 26.0059 47.8861 26.0692 46.6255L26.1347 43.758C26.1838 42.8212 26.2267 41.8498 26.2757 40.913C26.3247 39.9762 26.3676 39.0048 26.4105 38.0333L26.5575 35.2229L26.5514 35.1883C26.5963 34.4307 26.6351 33.6385 26.6739 32.8463C26.7127 32.0541 26.7454 31.2273 26.8188 30.4289C26.8127 30.3943 26.8066 30.3597 26.7944 30.2905C26.7822 30.2212 26.8046 30.1459 26.827 30.0705C26.8209 30.0359 26.8087 29.9666 26.7904 29.8628C26.7782 29.7935 26.8006 29.7182 26.8291 29.6775C26.9086 29.5207 26.9941 29.3985 27.1204 29.3048C27.2121 29.2172 27.3037 29.1297 27.3608 29.0482C27.4768 29.0992 27.6051 29.2193 27.7334 29.3395C27.8617 29.4597 27.9554 29.586 28.0083 29.6837C28.0327 29.8222 28.0571 29.9607 28.053 30.1399C28.0143 30.3252 28.0102 30.5045 27.9715 30.6898C27.9837 30.759 27.9552 30.7997 27.9674 30.869C27.945 30.9443 27.9165 30.9851 27.9287 31.0543C27.6759 33.0623 27.4801 34.9889 27.3413 36.834C27.168 38.6851 27.0578 40.4895 27.0046 42.2124C26.9514 43.9353 26.9328 45.6521 26.9367 47.2936C26.9405 48.9351 26.979 50.5704 27.0806 52.1589C27.0785 52.552 27.111 52.9389 27.1721 53.2852C27.2331 53.6314 27.2942 53.9776 27.3552 54.3238C27.3857 54.4969 27.3816 54.6761 27.406 54.8146C27.4366 54.9877 27.4671 55.1609 27.4976 55.334L27.5179 55.6517L28.5545 55.8616L28.7256 55.6172L28.8967 55.3729L29.0678 55.1285C29.1819 54.9656 29.3306 54.7966 29.4793 54.6276C29.5933 54.4647 29.7359 54.261 29.8785 54.0574C30.7279 52.801 31.6181 51.573 32.4858 50.4205C33.3535 49.2679 34.2274 48.15 35.1073 47.0666C35.9934 46.0179 36.8855 45.0039 37.7838 44.0244C38.682 43.045 39.621 42.094 40.5376 41.2184C40.9958 40.7806 41.4602 40.3775 41.9592 39.9682C42.4583 39.5589 42.9573 39.1496 43.4563 38.7404C43.5826 38.6467 43.772 38.5062 43.9675 38.4003C44.163 38.2945 44.33 38.2293 44.5317 38.1581C44.6009 38.1459 44.6294 38.1051 44.6987 38.0929L44.8718 38.0624C45.1141 38.0197 45.2994 38.0584 45.4155 38.1093C45.5031 38.201 45.5967 38.3272 45.6904 38.4535C45.7148 38.592 45.7392 38.7305 45.6883 38.8466C45.6374 38.9627 45.448 39.1032 45.1262 39.3027C43.8329 40.0662 42.6271 40.9214 41.515 41.9029C40.4029 42.8843 39.3662 43.8882 38.4048 44.9145C37.4434 45.9408 36.5227 46.9956 35.712 48.0667C34.8667 49.1439 34.0845 50.1743 33.3655 51.1578C32.9601 51.6934 32.5894 52.2228 32.2533 52.7462L31.1819 54.363L31.188 54.3977C30.9028 54.8049 30.6461 55.1715 30.3956 55.5726C30.145 55.9738 29.8884 56.3404 29.6378 56.7415L29.5238 56.9044C29.2895 57.1956 29.0838 57.4461 28.8781 57.6966C28.6723 57.947 28.4137 58.0997 28.1367 58.1486ZM53.2543 46.8655C52.735 46.9571 52.2727 46.9672 51.8328 46.902C51.3929 46.8367 51.0447 46.684 50.7189 46.4558C50.3116 46.1706 49.9899 45.7633 49.7537 45.2338C49.4829 44.7103 49.2977 44.0647 49.1573 43.2684C49.0496 41.6453 49.2596 40.0018 49.8219 38.3319C50.3842 36.662 51.2194 35.1225 52.3153 33.6441C52.4294 33.4812 52.6127 33.3061 52.8021 33.1656C52.9915 33.0251 53.1524 32.9253 53.2909 32.9009L53.6371 32.8399C53.9141 32.791 54.1911 32.7422 54.468 32.6934C54.745 32.6445 55.0159 32.5611 55.2929 32.5122C55.8122 32.4206 56.303 32.3698 56.7246 32.3312C57.1462 32.2925 57.5677 32.2539 57.9547 32.2214C58.6715 32.2378 59.3314 32.3356 59.9118 32.5903C60.4921 32.8449 60.987 33.2217 61.3616 33.7268C61.6955 34.2034 61.8971 34.7391 62.0009 35.3277C62.0761 35.957 62.0068 36.5761 61.8397 37.2481C61.2672 39.0626 60.4503 40.706 59.3544 42.1843C58.2586 43.6627 56.9183 44.97 55.3337 46.1062C55.1097 46.2528 54.8449 46.3709 54.5802 46.4889C54.3154 46.607 54.016 46.7312 53.6698 46.7923L53.4621 46.8289L53.2543 46.8655ZM52.201 35.6277C51.4391 36.9758 50.9074 38.2119 50.6119 39.3707C50.2819 40.5355 50.1249 41.6699 50.1817 42.8022C50.1878 43.4437 50.2793 43.963 50.4626 44.3948C50.6173 44.8673 50.8575 45.2176 51.1834 45.4458C51.4338 45.6515 51.7413 45.7758 52.0427 45.8654C52.3441 45.9551 52.6964 45.9286 53.1119 45.8554C53.3196 45.8187 53.562 45.776 53.8268 45.6579C54.063 45.5806 54.3278 45.4625 54.6211 45.3037C54.9144 45.1449 55.2015 44.9514 55.4887 44.758C55.7759 44.5646 56.0223 44.3426 56.2281 44.0922C56.9593 43.1778 57.6621 42.3043 58.2955 41.4429C58.929 40.5815 59.5279 39.7263 60.1329 38.9056C60.361 38.5798 60.5077 38.1969 60.6197 37.8202C60.6972 37.4496 60.7746 37.0789 60.8643 36.7775C60.9723 35.9731 60.8563 35.3153 60.5387 34.7287C60.1865 34.1482 59.6163 33.749 58.8628 33.5249C58.5268 33.4413 58.1908 33.3578 57.8323 33.3496C57.4739 33.3414 57.1562 33.3617 56.8446 33.4167C56.3599 33.5021 55.9281 33.6854 55.5432 33.9317C55.1643 34.2127 54.8608 34.5161 54.6734 34.8705C54.537 35.1087 54.429 35.3062 54.321 35.5038C54.2131 35.7013 54.1214 35.7889 54.0868 35.795C54.0175 35.8072 53.8729 35.797 53.6408 35.6951C53.4147 35.6279 53.148 35.5321 52.8751 35.4017L52.4169 35.2326L52.201 35.6277ZM70.7884 46.0228C70.1652 46.1327 69.5991 46.1611 69.0777 46.0388C68.5564 45.9166 68.1613 45.7007 67.8172 45.3686C67.4038 45.0489 67.1453 44.5947 66.9783 44.0529C66.8114 43.5112 66.73 42.8473 66.7811 42.1243C66.8117 41.6905 66.8708 41.216 66.9992 40.7293C67.0929 40.2487 67.2213 39.762 67.3904 39.3038C67.9486 37.8131 68.6636 36.4019 69.5354 35.0701C70.3788 33.779 71.4135 32.5613 72.5704 31.4291C72.88 31.1604 73.1957 30.9262 73.546 30.6859C73.8963 30.4457 74.2528 30.24 74.6153 30.069C74.6845 30.0568 74.7884 30.0385 74.8576 30.0263C74.9269 30.0141 74.99 29.9672 75.0939 29.9489C75.4401 29.8879 75.7354 29.9429 76.0144 30.1079C76.2934 30.2729 76.5214 30.554 76.6578 30.9226C76.8248 31.4644 76.841 31.9613 76.7187 32.4826C76.5618 33.0101 76.3052 33.3766 75.908 33.5537C75.8388 33.5659 75.8103 33.6067 75.7756 33.6128C75.7064 33.625 75.6718 33.6311 75.6718 33.6311C75.5679 33.6494 75.4987 33.6616 75.4233 33.6392C75.3541 33.6514 75.2726 33.5944 75.2258 33.5312C75.1504 33.5088 75.1036 33.4457 75.0853 33.3418C75.0731 33.2726 75.0548 33.1687 75.065 33.0241C75.0527 32.9549 75.0752 32.8795 75.1261 32.7634C75.1485 32.6881 75.1994 32.572 75.2504 32.4559C75.2443 32.4213 75.2728 32.3806 75.2952 32.3052C75.3176 32.2299 75.34 32.1545 75.3624 32.0792L75.5763 31.4703L74.9348 31.4763C74.8656 31.4885 74.831 31.4946 74.831 31.4946C74.7963 31.5007 74.7556 31.4722 74.721 31.4783C74.6518 31.4905 74.611 31.462 74.5764 31.4681C74.5072 31.4803 74.4664 31.4518 74.4318 31.4579C74.3626 31.4701 74.2994 31.517 74.2648 31.5231C74.1956 31.5353 74.167 31.576 74.1324 31.5821C73.2892 32.2663 72.5213 32.9728 71.8634 33.6957C71.1424 34.4654 70.5374 35.2861 70.0363 36.0884C69.5006 36.8968 69.0463 37.7623 68.6959 38.6095C68.3577 39.5259 68.0888 40.4301 67.9013 41.3913C67.7342 42.0633 67.6995 42.6763 67.7849 43.161C67.8765 43.6804 68.0536 44.0775 68.3916 44.3749C68.6604 44.6845 68.9801 44.878 69.42 44.9432C69.8314 45.0492 70.3283 45.033 70.8823 44.9353C70.9515 44.9231 71.0554 44.9048 71.1939 44.8803C71.2977 44.862 71.4301 44.803 71.5686 44.7786C72.422 44.5567 73.2916 44.2249 74.2183 43.8116C75.1165 43.439 76.0309 42.9565 77.0024 42.3925C78.365 41.6168 79.7663 40.6557 81.137 39.5215C82.5139 38.422 83.9173 37.0679 85.394 35.5224C85.4632 35.5101 85.4917 35.4694 85.5488 35.388C85.5773 35.3472 85.6404 35.3004 85.6975 35.219C85.8176 35.0907 85.9378 34.9624 86.058 34.8341C86.1782 34.7058 86.3044 34.6121 86.4714 34.547C86.4714 34.547 86.4653 34.5124 86.5 34.5063L86.5692 34.4941C86.6385 34.4819 86.7484 34.4982 86.8523 34.4798C86.9623 34.4962 87.0722 34.5125 87.1476 34.5349C87.1598 34.6041 87.1435 34.7141 87.1618 34.818C87.1516 34.9626 87.1353 35.0725 87.1129 35.1479C87.0558 35.2293 86.9927 35.2762 86.9357 35.3576C86.8786 35.4391 86.8155 35.4859 86.7585 35.5673C86.6953 35.6142 86.6668 35.6549 86.6668 35.6549C86.6383 35.6956 86.6037 35.7017 86.569 35.7078C85.905 36.3961 85.2125 37.1251 84.4446 37.8317C83.6482 38.579 82.8457 39.2916 81.974 40.0165C81.1022 40.7414 80.1613 41.4785 79.2081 42.1464C78.1917 42.8611 77.1632 43.5065 76.1163 44.0481C75.2079 44.5652 74.3505 44.9663 73.4747 45.2635C72.6051 45.5954 71.7925 45.8458 70.9615 45.9923L70.8923 46.0045L70.7884 46.0228ZM88.9458 44.4633C88.6688 44.5121 88.3858 44.5263 88.1597 44.4591C87.9398 44.4265 87.7076 44.3246 87.5386 44.1759C87.2596 44.0109 87.0316 43.7299 86.832 43.4081C86.6325 43.0863 86.5246 42.6769 86.4392 42.1922C86.3964 41.9498 86.3476 41.6729 86.3273 41.3552C86.2723 41.0436 86.2866 40.7197 86.3416 40.4245C86.4498 39.0131 86.6394 37.6589 86.9389 36.3209C87.2039 34.989 87.5503 33.7142 88.0066 32.4557C88.4284 31.2033 88.9662 30.0018 89.614 28.8166C90.1925 27.6436 90.8871 26.5216 91.6917 25.4159C92.205 24.6828 92.8059 24.0413 93.4597 23.4977C94.085 22.9947 94.7978 22.5834 95.5697 22.3045C95.6736 22.2862 95.7714 22.2333 95.9098 22.2089C96.0137 22.1906 96.1115 22.1376 96.25 22.1132C96.6308 22.0461 97.0239 22.0481 97.4637 22.1134C97.869 22.1847 98.2865 22.3253 98.6815 22.5412C98.9198 22.6777 99.1173 22.7857 99.1988 22.8427C99.2802 22.8997 99.3271 22.9629 99.3332 22.9975C99.3576 23.136 99.3881 23.3091 99.4125 23.4476C99.437 23.5861 99.4267 23.7307 99.3758 23.8467L99.3412 23.8528C99.2027 23.8773 99.0988 23.8956 99.0296 23.9078C98.9604 23.92 98.885 23.8976 98.8789 23.863C98.4716 23.5778 98.0419 23.368 97.6245 23.2274C97.1785 23.1275 96.7447 23.0969 96.3292 23.1702C95.7753 23.2679 95.2804 23.4979 94.8323 23.7911C94.3903 24.1189 93.9483 24.4468 93.5756 24.7624C93.266 25.0312 92.991 25.2938 92.7283 25.6258C92.4309 25.9638 92.1742 26.3303 91.9237 26.7315C91.2393 27.7089 90.6648 28.7027 90.1311 29.725C89.5974 30.7472 89.139 31.7919 88.756 32.859C88.373 33.9261 88.0653 35.0156 87.833 36.1275C87.5661 37.2456 87.3745 38.386 87.2867 39.5081C87.2439 39.8727 87.2418 40.2657 87.2805 40.6873C87.2845 41.115 87.3353 41.6058 87.4208 42.0905C87.4635 42.3329 87.5348 42.5345 87.6345 42.6954C87.7404 42.8909 87.8341 43.0172 87.997 43.1313C88.1253 43.2514 88.276 43.2963 88.4267 43.3411C88.5774 43.3859 88.7159 43.3615 88.889 43.331C88.9928 43.3126 89.0967 43.2943 89.2291 43.2353C89.3329 43.217 89.4246 43.1294 89.5509 43.0358L89.7118 42.936C90.1599 42.6428 90.5733 42.3557 91.0214 42.0625C91.4349 41.7754 91.7954 41.3905 92.1498 40.9711C92.767 40.2197 93.3719 39.399 93.9708 38.5437C94.5412 37.7292 95.1339 36.8393 95.686 35.9209C96.073 35.2815 96.4885 34.6013 96.8634 33.8927C97.2382 33.184 97.5845 32.5161 97.9593 31.8074C98.1182 31.4938 98.2771 31.1802 98.436 30.8666C98.5949 30.553 98.7884 30.2333 98.9819 29.9136C99.1408 29.6 99.3343 29.2802 99.4932 28.9666C99.6521 28.653 99.8171 28.374 99.9821 28.0951C100.119 27.8568 100.233 27.6939 100.353 27.5656C100.479 27.472 100.605 27.3783 100.744 27.3539C100.744 27.3539 100.785 27.3824 100.854 27.3702C100.888 27.3641 100.923 27.358 100.992 27.3458C101.178 27.3845 101.341 27.4985 101.434 27.6248C101.534 27.7857 101.624 28.0912 101.697 28.5067C101.707 28.969 101.752 29.4252 101.756 29.8529C101.76 30.2805 101.804 30.7367 101.843 31.1583L101.872 31.7245L101.9 32.2906L101.926 32.6429L102.262 32.7265C102.488 32.7937 102.708 32.8263 102.922 32.8243C103.136 32.8223 103.378 32.7796 103.586 32.743C103.932 32.6819 104.238 32.5924 104.537 32.4682C104.802 32.3501 105.095 32.1913 105.389 32.0325C105.458 32.0203 105.556 31.9673 105.653 31.9144C105.717 31.8675 105.814 31.8146 105.912 31.7617C106.044 31.7026 106.205 31.6029 106.332 31.5092C106.458 31.4155 106.619 31.3158 106.745 31.2221C106.78 31.216 106.843 31.1692 106.906 31.1223C106.975 31.1101 107.004 31.0694 107.061 30.9879C107.095 30.9818 107.13 30.9757 107.159 30.935C107.193 30.9289 107.222 30.8882 107.285 30.8413C107.411 30.7477 107.509 30.6947 107.635 30.6011C107.767 30.542 107.865 30.4891 107.969 30.4708C108.004 30.4647 108.044 30.4932 108.114 30.481C108.189 30.5034 108.277 30.5951 108.37 30.7213C108.429 30.8537 108.476 30.9169 108.482 30.9515C108.494 31.0207 108.466 31.0615 108.466 31.0615C108.456 31.2061 108.37 31.3282 108.209 31.428L107.767 31.7558C107.676 31.8434 107.578 31.8963 107.515 31.9432C107.452 31.99 107.388 32.0368 107.319 32.049L107.291 32.0898C106.877 32.3768 106.464 32.6639 106.044 32.9164C105.631 33.2035 105.205 33.4214 104.779 33.6392C104.445 33.7695 104.181 33.8876 103.91 33.971C103.645 34.0891 103.403 34.1319 103.195 34.1685C102.814 34.2356 102.34 34.1765 101.771 33.9911C101.203 33.8057 100.721 32.8912 100.352 31.207L100.082 30.0766L99.5072 31.0704C99.3931 31.2333 99.3137 31.3901 99.2281 31.5123C99.1487 31.6691 99.0977 31.7852 99.0407 31.8666C98.8696 32.111 98.7677 32.3431 98.6598 32.5407C98.5518 32.7382 98.4092 32.9418 98.2952 33.1047C98.0792 33.4998 97.8226 33.8663 97.6066 34.2614C97.3907 34.6565 97.1687 35.0169 96.9466 35.3773C96.3315 36.3426 95.757 37.3363 95.1419 38.3016C94.5267 39.2668 93.9115 40.232 93.2841 41.128C92.9195 41.6921 92.4734 42.1991 91.9174 42.6899C91.3614 43.1806 90.7239 43.6143 90.0456 44.0195C89.8501 44.1254 89.6546 44.2312 89.4529 44.3025C89.2574 44.4083 89.0843 44.4389 88.9458 44.4633ZM117.668 37.2213C117.114 37.3189 116.598 37.2313 116.191 36.9461C115.784 36.6609 115.491 36.2129 115.312 35.6019C115.073 34.8585 114.927 34.0276 114.843 33.1498C114.766 32.3067 114.73 31.492 114.705 30.7467C114.695 30.2844 114.685 29.8221 114.738 29.3129C114.756 28.8099 114.81 28.3008 114.856 27.757C114.854 27.5432 114.881 27.2886 114.901 26.9994L114.975 26.2011L114.991 25.4843L114.323 25.7448C114.225 25.7978 114.128 25.8507 114.058 25.8629C113.954 25.8812 113.891 25.9281 113.822 25.9403C113.655 26.0054 113.523 26.0645 113.419 26.0828C113.286 26.1418 113.183 26.1601 113.079 26.1785C112.981 26.2314 112.883 26.2843 112.814 26.2965C112.71 26.3149 112.606 26.3332 112.537 26.3454L112.502 26.3515C112.168 26.4818 111.863 26.5713 111.557 26.6609C111.217 26.7566 110.912 26.8461 110.6 26.9011L110.566 26.9072C110.427 26.9316 110.323 26.9499 110.213 26.9336C110.103 26.9173 110.028 26.8949 109.981 26.8318C109.906 26.8093 109.865 26.7808 109.853 26.7116C109.841 26.6423 109.828 26.5731 109.851 26.4977C109.832 26.3939 109.877 26.2432 109.991 26.0803C110.105 25.9174 110.226 25.7891 110.352 25.6954C110.812 25.4715 111.348 25.2699 111.918 25.0623C112.454 24.8607 113.059 24.647 113.704 24.4617C114.384 24.2704 114.867 23.9711 115.14 23.4946C115.419 23.0527 115.588 22.5945 115.682 22.1139C115.882 21.2219 116.059 20.4053 116.271 19.5825C116.489 18.7944 116.713 18.0409 116.937 17.2874C117.055 16.9453 117.22 16.6663 117.426 16.4159C117.638 16.2 117.897 16.0473 118.174 15.9985C118.243 15.9863 118.353 16.0026 118.422 15.9904C118.497 16.0128 118.607 16.0291 118.711 16.0108C118.793 16.0678 118.909 16.1187 119.025 16.1697C119.106 16.2267 119.188 16.2837 119.235 16.3469L119.275 16.3754L119.281 16.41C119.294 16.4793 119.271 16.5546 119.283 16.6238C119.261 16.6992 119.239 16.7745 119.245 16.8092L119.222 16.8845L119.159 16.9313C118.481 17.3365 118.035 17.8436 117.821 18.4525C117.572 19.0675 117.428 19.6642 117.34 20.1794C117.244 20.4462 117.183 20.7068 117.151 20.9268C117.089 21.1874 117.022 21.4135 116.914 21.611L116.761 21.9592L117.692 22.5805L117.928 22.5032C118.032 22.4849 118.13 22.4319 118.262 22.3729C118.395 22.3138 118.527 22.2548 118.659 22.1958C118.924 22.0777 119.195 21.9942 119.46 21.8761C119.725 21.758 120.03 21.6685 120.329 21.5443C120.399 21.5321 120.433 21.526 120.503 21.5138C120.572 21.5016 120.6 21.4608 120.67 21.4486C120.877 21.412 121.028 21.4568 121.109 21.5139C121.191 21.5709 121.244 21.6686 121.291 21.7318C121.356 21.8988 121.346 22.0434 121.295 22.1595C121.25 22.3102 121.06 22.4507 120.761 22.5748L120.232 22.811L119.702 23.0472L118.643 23.5195C118.28 23.6905 117.953 23.8554 117.631 24.055C117.344 24.2484 117.062 24.4765 116.787 24.7391C116.478 25.0079 116.319 25.3215 116.264 25.6168C116.056 26.8672 115.895 28.1808 115.781 29.5575C115.673 30.9688 115.744 32.3842 116 33.8383C116.043 34.0807 116.079 34.2884 116.185 34.4839C116.257 34.6856 116.328 34.8872 116.434 35.0827C116.458 35.2212 116.511 35.319 116.57 35.4513C116.629 35.5837 116.682 35.6815 116.741 35.8139L116.937 36.3149L117.391 36.0563C117.517 35.9627 117.649 35.9036 117.776 35.8099C117.908 35.7509 118.04 35.6919 118.173 35.6328L118.201 35.5921C118.466 35.474 118.725 35.3213 118.983 35.1686C119.214 35.0566 119.438 34.91 119.69 34.7227C119.823 34.6637 119.914 34.5761 120.041 34.4824C120.167 34.3888 120.287 34.2605 120.413 34.1668C120.54 34.0732 120.694 33.9388 120.815 33.8105C120.941 33.7168 121.102 33.617 121.228 33.5234L121.297 33.5112L121.401 33.4929C121.47 33.4807 121.546 33.5031 121.615 33.4909C121.684 33.4786 121.76 33.5011 121.863 33.4827L122.043 33.4868L122.032 33.6314C122.051 33.7353 122.028 33.8106 122.041 33.8799C122.053 33.9491 122.065 34.0184 122.071 34.053L122.049 34.1284L121.894 34.2627C121.344 34.7881 120.822 35.2727 120.26 35.7288C119.698 36.1849 119.13 36.6064 118.543 36.924C118.382 37.0238 118.215 37.089 118.077 37.1134C117.945 37.1724 117.806 37.1968 117.668 37.2213ZM137.226 37.7352C137.138 37.6435 137.016 37.5579 136.929 37.4663C136.841 37.3746 136.753 37.283 136.666 37.1913L136.66 37.1567L136.648 37.0875C136.648 37.0875 136.641 37.0528 136.635 37.0182C136.635 37.0182 136.664 36.9775 136.658 36.9429C136.442 34.9104 136.418 32.9512 136.585 31.0654C136.759 29.2142 137.083 27.4078 137.592 25.6402C137.653 25.3795 137.749 25.1127 137.92 24.8683C138.091 24.624 138.268 24.4142 138.452 24.2391L138.486 24.233C138.521 24.2269 138.549 24.1862 138.619 24.174C138.757 24.1496 138.867 24.1659 138.977 24.1822C139.087 24.1985 139.162 24.2209 139.197 24.2148C139.209 24.284 139.262 24.3818 139.327 24.5488C139.358 24.7219 139.376 24.8258 139.354 24.9011C138.37 26.6097 137.826 28.3834 137.681 30.1939C137.542 32.039 137.501 33.8311 137.53 35.6111L137.552 36.1426C137.536 36.2526 137.554 36.3565 137.566 36.4257L137.615 36.7027C137.627 36.7719 137.611 36.8819 137.623 36.9511C137.641 37.055 137.654 37.1243 137.654 37.1243C137.603 37.2403 137.517 37.3625 137.46 37.444C137.403 37.5254 137.317 37.6476 137.226 37.7352ZM138.227 16.8892C138.192 16.8953 138.157 16.9014 138.111 16.8383C138.064 16.7751 138.017 16.712 137.958 16.5796C137.923 16.5857 137.923 16.5857 137.923 16.5857L137.911 16.5165C137.86 16.0257 137.948 15.5104 138.209 14.9647C138.435 14.425 138.704 14.1277 138.968 14.0096L139.003 14.0035L139.072 13.9913C139.141 13.9791 139.251 13.9954 139.39 13.971C139.5 13.9873 139.61 14.0036 139.685 14.026L139.728 14.2684C139.746 14.3722 139.724 14.4476 139.736 14.5168C139.589 14.8997 139.443 15.2825 139.284 15.5961C139.131 15.9444 138.937 16.2641 138.772 16.5431C138.715 16.6245 138.618 16.6775 138.491 16.7711C138.365 16.8648 138.296 16.877 138.227 16.8892ZM156.659 28.6325C156.14 28.724 155.678 28.7342 155.238 28.6689C154.798 28.6037 154.45 28.4509 154.124 28.2228C153.716 27.9376 153.395 27.5302 153.159 27.0007C152.888 26.4773 152.703 25.8317 152.562 25.0353C152.454 23.4122 152.664 21.7687 153.227 20.0989C153.789 18.429 154.624 16.8894 155.72 15.4111C155.834 15.2482 156.017 15.073 156.207 14.9325C156.396 14.7921 156.557 14.6923 156.696 14.6679L157.042 14.6068C157.319 14.558 157.596 14.5091 157.873 14.4603C158.15 14.4115 158.421 14.328 158.698 14.2792C159.217 14.1876 159.708 14.1367 160.129 14.0981C160.551 14.0595 160.973 14.0208 161.359 13.9883C162.076 14.0047 162.736 14.1025 163.317 14.3572C163.897 14.6118 164.392 14.9887 164.766 15.4938C165.1 15.9704 165.302 16.506 165.406 17.0946C165.481 17.7239 165.412 18.343 165.245 19.015C164.672 20.8295 163.855 22.4729 162.759 23.9513C161.663 25.4297 160.323 26.7369 158.739 27.8731C158.515 28.0197 158.25 28.1378 157.985 28.2559C157.72 28.374 157.421 28.4982 157.075 28.5592L156.867 28.5958L156.659 28.6325ZM155.606 17.3946C154.844 18.7427 154.312 19.9788 154.017 21.1376C153.687 22.3025 153.53 23.4368 153.587 24.5691C153.593 25.2106 153.684 25.73 153.867 26.1617C154.022 26.6342 154.262 26.9846 154.588 27.2127C154.839 27.4184 155.146 27.5427 155.448 27.6323C155.749 27.722 156.101 27.6956 156.517 27.6223C156.724 27.5857 156.967 27.543 157.232 27.4249C157.468 27.3475 157.733 27.2294 158.026 27.0706C158.319 26.9118 158.606 26.7184 158.894 26.5249C159.181 26.3315 159.427 26.1096 159.633 25.8591C160.364 24.9448 161.067 24.0712 161.7 23.2098C162.334 22.3485 162.933 21.4932 163.538 20.6726C163.766 20.3467 163.912 19.9639 164.025 19.5871C164.102 19.2165 164.179 18.8459 164.269 18.5445C164.377 17.74 164.261 17.0822 163.944 16.4957C163.591 15.9152 163.021 15.5159 162.268 15.2918C161.932 15.2083 161.596 15.1247 161.237 15.1165C160.879 15.1083 160.561 15.1287 160.249 15.1836C159.765 15.2691 159.333 15.4523 158.948 15.6987C158.569 15.9797 158.266 16.2831 158.078 16.6374C157.942 16.8757 157.834 17.0732 157.726 17.2707C157.618 17.4682 157.526 17.5558 157.492 17.5619C157.422 17.5741 157.278 17.5639 157.046 17.4621C156.82 17.3948 156.553 17.2991 156.28 17.1687L155.822 16.9996L155.606 17.3946ZM172.33 23.9058C172.296 23.9119 172.261 23.918 172.261 23.918C172.226 23.9241 172.186 23.8956 172.151 23.9017C172.013 23.9261 171.897 23.8752 171.774 23.7896C171.618 23.7102 171.534 23.4393 171.524 22.977L171.493 22.8039C171.451 22.5615 171.443 22.3131 171.428 22.03C171.42 21.7815 171.447 21.527 171.473 21.2724C171.71 19.3744 171.924 17.5517 172.162 15.8675C172.401 14.1833 172.617 12.5745 172.845 11.0349C172.878 10.8149 172.957 10.6581 173.071 10.4952C173.186 10.3323 173.312 10.2387 173.45 10.2142C173.485 10.2081 173.526 10.2366 173.56 10.2305C173.595 10.2244 173.636 10.253 173.67 10.2468C173.821 10.2917 173.943 10.3772 174.037 10.5035C174.13 10.6298 174.139 10.8782 174.061 11.2489C174.029 11.4688 173.961 11.6949 173.929 11.9148C173.896 12.1348 173.857 12.3201 173.819 12.5054C173.696 13.0267 173.603 13.5073 173.509 13.988C173.415 14.4686 173.321 14.9492 173.228 15.4298C173.183 15.5805 173.166 15.6905 173.185 15.7943C173.175 15.9389 173.158 16.0489 173.183 16.1874C173.166 16.2974 173.15 16.4073 173.162 16.4766C173.175 16.5458 173.158 16.6558 173.17 16.725L173.127 18.3034L174.128 17.0917C174.276 16.9227 174.419 16.7191 174.568 16.5501C174.716 16.3811 174.859 16.1774 175.001 15.9738C175.264 15.6419 175.527 15.31 175.79 14.978C176.024 14.6868 176.293 14.3895 176.602 14.1208C177.095 13.6769 177.629 13.2615 178.191 12.8054C178.753 12.3493 179.368 11.9909 180.024 11.6611C180.191 11.5959 180.358 11.5308 180.525 11.4657C180.698 11.4351 180.865 11.37 181.004 11.3456C181.627 11.2357 182.218 11.3457 182.735 11.6472C183.217 11.9548 183.661 12.4477 184.073 13.1606C184.197 13.4599 184.321 13.7593 184.451 14.0933C184.582 14.4274 184.671 14.7329 184.795 15.0322C184.82 15.1707 184.873 15.2685 184.932 15.4009C184.956 15.5394 185.009 15.6371 185.062 15.7349C185.145 16.0058 185.229 16.2766 185.312 16.5475C185.396 16.8184 185.473 17.0546 185.591 17.3194C185.616 17.4579 185.669 17.5556 185.693 17.6941C185.717 17.8326 185.77 17.9304 185.829 18.0628L185.99 18.5699L186.497 18.4091C187.143 18.2238 187.707 17.9816 188.178 17.613C188.648 17.2445 189.084 16.882 189.52 16.5196C189.646 16.4259 189.766 16.2976 189.893 16.204C190.019 16.1103 190.104 15.9881 190.231 15.8945L190.414 15.7193C190.477 15.6725 190.54 15.6257 190.603 15.5788C190.73 15.4852 190.815 15.363 190.942 15.2693C191.068 15.1757 191.166 15.1227 191.235 15.1105C191.269 15.1044 191.31 15.1329 191.386 15.1554C191.426 15.1839 191.467 15.2124 191.548 15.2694C191.642 15.3957 191.701 15.5281 191.685 15.6381C191.64 15.7888 191.463 15.9985 191.125 16.308C191.062 16.3548 191.033 16.3956 191.004 16.4363C190.941 16.4831 190.913 16.5238 190.878 16.53L190.821 16.6114C190.398 17.0431 190.002 17.4341 189.573 17.8311C189.149 18.2628 188.713 18.6253 188.277 18.9877C187.962 19.2219 187.64 19.4214 187.375 19.5395C187.116 19.6922 186.845 19.7756 186.638 19.8123C186.153 19.8977 185.742 19.7918 185.397 19.4598C185.019 19.1339 184.707 18.5819 184.469 17.8386L184.278 17.1583C184.206 16.9567 184.129 16.7205 184.092 16.5127C183.962 16.1787 183.873 15.8732 183.777 15.5331C183.681 15.193 183.586 14.8529 183.455 14.5188C183.325 14.1848 183.066 13.7307 182.673 13.1217C182.28 12.5127 181.665 12.2641 180.835 12.4107C180.558 12.4595 180.293 12.5776 179.993 12.7018C179.7 12.8606 179.378 13.0601 179.063 13.2943C177.8 14.2309 176.684 15.3916 175.749 16.7702C174.779 18.1549 173.968 19.8329 173.282 21.8103C173.237 21.961 173.186 22.0771 173.141 22.2278C173.096 22.3785 173.051 22.5292 173.001 22.6453C172.984 22.7552 172.968 22.8652 172.946 22.9405C172.888 23.022 172.866 23.0973 172.878 23.1666C172.76 23.5087 172.652 23.7062 172.56 23.7938C172.434 23.8875 172.365 23.8997 172.33 23.9058Z" fill="#FB6868"/>
</svg>
