<svg width="25" height="23" viewBox="0 0 25 23" fill="none" xmlns="http://www.w3.org/2000/svg">
<ellipse cx="12.4058" cy="11.6986" rx="11.7259" ry="10.8324" fill="white"/>
<g clip-path="url(#clip0_274_1525)">
<path fill-rule="evenodd" clip-rule="evenodd" d="M16.0421 12.7763C15.9204 13.2524 16.2396 13.7295 16.755 13.8418C17.2704 13.9542 17.7868 13.6593 17.9084 13.1832C18.0301 12.7071 17.7109 12.2301 17.1955 12.1177C16.6801 12.0053 16.1637 12.3002 16.0421 12.7763ZM16.6258 14.3475C15.8081 14.1692 15.3017 13.4123 15.4947 12.6569C15.6877 11.9016 16.507 11.4338 17.3247 11.612C18.1424 11.7903 18.6488 12.5472 18.4558 13.3026C18.2628 14.0579 17.4435 14.5258 16.6258 14.3475Z" fill="#303030"/>
<path fill-rule="evenodd" clip-rule="evenodd" d="M7.54574 7.70801C7.54574 7.70801 7.54574 7.70801 7.54574 7.70801L4.79594 8.72419L6.2264 9.212C6.35902 9.25728 6.50611 9.24638 6.62873 9.1824L7.48133 8.73842C7.56048 8.69721 7.6563 8.69386 7.7386 8.72944C7.82089 8.76501 7.8795 8.83513 7.89595 8.91768L8.51691 12.0331L8.51693 12.0332C8.53952 12.1467 8.64501 12.2299 8.76998 12.2327L10.0491 12.2617C10.0492 12.2617 10.0492 12.2617 10.0492 12.2617C10.2043 12.2652 10.3564 12.2221 10.4824 12.1392L11.0741 11.7497C11.4347 11.5128 11.9209 11.5233 12.2693 11.7747L13.6542 12.7756C13.7161 12.8204 13.7549 12.887 13.7612 12.9593L13.8955 14.4984C13.902 14.5736 13.93 14.6454 13.977 14.7074L13.977 14.7075L15.2928 16.4439C15.4003 16.5858 15.6033 16.6355 15.7727 16.5613C15.8568 16.5245 15.8867 16.4283 15.8377 16.3563L14.7461 14.75C14.7184 14.7091 14.7035 14.662 14.7031 14.6138L14.6569 11.672C14.6558 11.5979 14.6165 11.5291 14.5506 11.4863L11.9873 9.82129C11.9873 9.82127 11.9873 9.82126 11.9873 9.82124C11.8347 9.72226 11.6309 9.7245 11.4812 9.82656L10.0093 10.83L10.0092 10.83C9.74487 11.0101 9.36706 10.8887 9.28094 10.5958L8.61526 8.32782C8.61524 8.32776 8.61523 8.3277 8.61521 8.32764C8.59019 8.24297 8.53473 8.16926 8.45789 8.11855L7.89466 7.7469C7.89465 7.7469 7.89466 7.74691 7.89466 7.7469C7.79295 7.67987 7.66144 7.66526 7.54574 7.70801ZM7.33688 7.22563C7.6307 7.11706 7.96397 7.15436 8.22131 7.32399L8.78477 7.69579C8.96787 7.81661 9.09906 7.99181 9.15787 8.19126L9.15796 8.19156L9.78727 10.3357L11.1473 9.40853C11.4918 9.17363 11.9604 9.16881 12.3107 9.3962L12.3107 9.39625L14.8741 11.0613C14.8741 11.0613 14.8741 11.0613 14.8741 11.0613C15.0873 11.1998 15.2156 11.4239 15.2193 11.6648L15.2643 14.5354L16.3137 16.0796C16.3138 16.0797 16.3138 16.0797 16.3138 16.0798C16.3139 16.0798 16.3139 16.0798 16.3139 16.0798C16.5427 16.4161 16.4012 16.8608 16.0139 17.0307L16.0138 17.0307C15.5966 17.2134 15.0969 17.0915 14.832 16.7417M14.832 16.7417L13.5163 15.0055C13.5163 15.0054 13.5163 15.0054 13.5163 15.0054C13.4119 14.8677 13.3494 14.7073 13.3349 14.5397L13.2105 13.1146L11.923 12.1841C11.7704 12.074 11.5576 12.0695 11.4001 12.1731L10.8088 12.5622C10.5834 12.7107 10.3118 12.7873 10.0355 12.7811L10.0354 12.7811L8.75649 12.752C8.75646 12.752 8.75643 12.752 8.7564 12.752C8.75638 12.752 8.75635 12.752 8.75633 12.752C8.36517 12.7433 8.03454 12.4825 7.96381 12.1271L7.41422 9.36976L6.9053 9.63477C6.90523 9.6348 6.90517 9.63484 6.9051 9.63487C6.9051 9.63487 6.90511 9.63487 6.9051 9.63487C6.63827 9.77402 6.31881 9.79741 6.03153 9.69935C6.03149 9.69934 6.03146 9.69932 6.03142 9.69931L4.23198 9.08567L4.23136 9.08546C3.88058 8.96498 3.87066 8.50683 4.2214 8.37695L7.33688 7.22563" fill="#303030"/>
<path fill-rule="evenodd" clip-rule="evenodd" d="M7.2567 11.0469C7.37056 11.0692 7.4578 11.154 7.47611 11.2602L7.67468 12.4119C7.67927 12.4385 7.67935 12.4656 7.67492 12.4922L7.45207 13.8312C7.45207 13.8312 7.45208 13.8312 7.45207 13.8312C7.45207 13.8312 7.45206 13.8313 7.45206 13.8313C7.39907 14.1502 7.10252 14.3855 6.75317 14.3855H5.3841C5.08913 14.3855 4.90919 14.083 5.07106 13.8528C5.07107 13.8528 5.07108 13.8528 5.07109 13.8527C5.07116 13.8526 5.07124 13.8525 5.07132 13.8524L6.96252 11.1597C7.02587 11.0695 7.14283 11.0246 7.2567 11.0469ZM7.03587 12.0097L5.73221 13.8659H6.75317C6.82473 13.8659 6.88531 13.818 6.89618 13.7524L7.11237 12.4534L7.03587 12.0097ZM5.3841 13.8659C5.38426 13.8659 5.38442 13.8659 5.38458 13.8659H5.3841Z" fill="#303030"/>
<path d="M15.4009 10.595L12.1442 8.54019C11.6042 8.19926 11.4651 7.51872 11.8342 7.01986C12.2032 6.52101 12.9399 6.39255 13.4799 6.73348L16.7366 8.7883C17.2766 9.12923 17.4157 9.80978 17.0466 10.3086C16.6776 10.8075 15.9409 10.9359 15.4009 10.595Z" fill="#A2D3DF"/>
<path fill-rule="evenodd" clip-rule="evenodd" d="M13.3212 6.94798C12.9096 6.68811 12.3479 6.78589 12.0663 7.16647C11.785 7.54669 11.8908 8.06561 12.3028 8.32572C12.3027 8.32571 12.3028 8.32572 12.3028 8.32572C12.3028 8.32573 12.3028 8.32575 12.3028 8.32576L15.5595 10.3806C15.9711 10.6404 16.5329 10.5427 16.8145 10.1621C17.0957 9.78187 16.9899 9.26296 16.578 9.00285C16.578 9.00283 16.578 9.00282 16.578 9.0028L13.3212 6.94798ZM13.6385 6.51901C12.9701 6.09707 12.0585 6.25621 11.602 6.87333C11.1452 7.4908 11.3175 8.33293 11.9855 8.75469L15.2422 10.8095C15.2422 10.8095 15.2423 10.8095 15.2423 10.8096C15.9107 11.2315 16.8222 11.0724 17.2788 10.4552C17.7356 9.83777 17.5633 8.99563 16.8953 8.57387L13.6386 6.51905C13.6385 6.51903 13.6385 6.51902 13.6385 6.51901Z" fill="#303030"/>
<path fill-rule="evenodd" clip-rule="evenodd" d="M19.7224 8.80076C19.6243 8.89138 19.6243 9.03831 19.7223 9.12893C19.8204 9.21955 19.9795 9.21955 20.0776 9.12893C20.1757 9.03831 20.1757 8.89138 20.0776 8.80076C19.9795 8.71013 19.8204 8.71013 19.7224 8.80076ZM19.3247 9.4963C19.007 9.20278 19.007 8.7269 19.3247 8.43339C19.6424 8.13988 20.1575 8.13988 20.4753 8.43339C20.793 8.7269 20.793 9.20278 20.4753 9.4963C20.1575 9.78981 19.6424 9.78981 19.3247 9.4963Z" fill="#A2D3DF"/>
<path fill-rule="evenodd" clip-rule="evenodd" d="M18.4567 10.6304C18.4305 10.6304 18.4093 10.65 18.4093 10.6741C18.4093 10.6983 18.4305 10.7179 18.4567 10.7179C18.4829 10.7179 18.5041 10.6983 18.5041 10.6741C18.5041 10.65 18.4829 10.6304 18.4567 10.6304ZM17.8469 10.6741C17.8469 10.363 18.1199 10.1108 18.4567 10.1108C18.7935 10.1108 19.0665 10.363 19.0665 10.6741C19.0665 10.9853 18.7935 11.2375 18.4567 11.2375C18.1199 11.2375 17.8469 10.9852 17.8469 10.6741Z" fill="#A2D3DF"/>
</g>
<defs>
<clipPath id="clip0_274_1525">
<rect width="16.7507" height="10.8324" fill="white" transform="translate(3.96313 6.28247)"/>
</clipPath>
</defs>
</svg>
