<svg width="90" height="14" viewBox="0 0 90 14" fill="none" xmlns="http://www.w3.org/2000/svg">
<path d="M9.52 6.38C9.62667 6.46 9.68 6.56667 9.68 6.7C9.68 6.83333 9.62 6.94 9.5 7.02C9.44667 7.06 9.36667 7.08 9.26 7.08C8.63333 7.08 8.02 7.18667 7.42 7.4C6.91333 7.58667 6.36667 7.81333 5.78 8.08C5.62 9.41333 5.54 10.5667 5.54 11.54C5.54 12.1667 5.61333 12.66 5.76 13.02C5.77333 13.0467 5.79333 13.1 5.82 13.18C5.84667 13.2467 5.86 13.3133 5.86 13.38C5.86 13.5 5.82 13.5933 5.74 13.66C5.66 13.7267 5.56667 13.76 5.46 13.76C5.38 13.76 5.29333 13.7267 5.2 13.66C4.97333 13.4467 4.86 12.7733 4.86 11.64C4.86 10.7867 4.92 9.71333 5.04 8.42C4.46667 8.7 3.89333 9.01333 3.32 9.36C3.29333 9.89333 3.28 10.2933 3.28 10.56C3.28 10.9467 3.3 11.2933 3.34 11.6C3.36667 11.8133 3.40667 11.9933 3.46 12.14C3.51333 12.2867 3.6 12.4067 3.72 12.5C3.89333 12.62 3.98 12.7533 3.98 12.9C3.98 12.9933 3.95333 13.0733 3.9 13.14C3.84667 13.2333 3.75333 13.28 3.62 13.28C3.51333 13.28 3.40667 13.2467 3.3 13.18C3.03333 13.02 2.85333 12.7867 2.76 12.48C2.66667 12.1733 2.6 11.7933 2.56 11.34C2.53333 10.9667 2.52 10.68 2.52 10.48L2.54 9.88C2.19333 10.1067 1.91333 10.34 1.7 10.58C1.66 10.6333 1.61333 10.7067 1.56 10.8C1.50667 10.88 1.44667 10.9467 1.38 11C1.32667 11.04 1.26 11.06 1.18 11.06C1.06 11.06 0.96 11.02 0.88 10.94C0.813333 10.86 0.78 10.76 0.78 10.64C0.78 10.5467 0.806667 10.4667 0.86 10.4C1.16667 9.98667 1.74667 9.52667 2.6 9.02C2.66667 8.39333 2.74667 7.79333 2.84 7.22C2.06667 7.5 1.45333 7.76667 1 8.02C0.946667 8.04667 0.853333 8.10667 0.72 8.2C0.6 8.28 0.486667 8.32 0.38 8.32C0.26 8.32 0.166667 8.28667 0.1 8.22C0.0333333 8.14 0 8.04667 0 7.94C0 7.79333 0.06 7.68 0.18 7.6C0.806667 7.24 1.73333 6.85333 2.96 6.44C3.13333 5.50667 3.28667 4.74667 3.42 4.16C3.47333 3.93333 3.52667 3.76667 3.58 3.66C3.64667 3.54 3.76 3.48 3.92 3.48C4.05333 3.48 4.16 3.54 4.24 3.66C4.32 3.76667 4.33333 3.88667 4.28 4.02C4.13333 4.36667 4.01333 4.76 3.92 5.2C3.84 5.62667 3.78667 5.89333 3.76 6L3.72 6.2C4.28 6.01333 4.78667 5.88 5.24 5.8L5.36 5.78C5.41333 5.32667 5.50667 4.79333 5.64 4.18C5.65333 4.14 5.66667 4.05333 5.68 3.92C5.70667 3.78667 5.75333 3.68 5.82 3.6C5.88667 3.52 5.98 3.48 6.1 3.48C6.24667 3.48 6.36 3.54 6.44 3.66C6.53333 3.76667 6.55333 3.88667 6.5 4.02C6.36667 4.38 6.23333 4.94 6.1 5.7C6.3 5.72667 6.44 5.81333 6.52 5.96L6.56 6.12C6.56 6.21333 6.52667 6.3 6.46 6.38C6.40667 6.44667 6.32667 6.49333 6.22 6.52H6.14C6.07333 6.52 6.01333 6.51333 5.96 6.5C5.94667 6.67333 5.91333 6.93333 5.86 7.28C7.00667 6.8 7.96667 6.49333 8.74 6.36C9.02 6.32 9.18 6.3 9.22 6.3C9.35333 6.3 9.45333 6.32667 9.52 6.38ZM5.14 7.62C5.16667 7.24667 5.19333 6.98 5.22 6.82L5.26 6.54C4.76667 6.60667 4.20667 6.74667 3.58 6.96C3.5 7.49333 3.44667 7.92667 3.42 8.26L3.4 8.54C3.82667 8.3 4.22 8.08667 4.58 7.9L5.14 7.62Z" fill="#FB6868"/>
<path d="M21.8197 5.16C21.9397 5.24 21.9997 5.35333 21.9997 5.5C21.9997 5.58 21.973 5.66 21.9197 5.74C21.8664 5.82 21.793 5.86667 21.6997 5.88C21.4197 5.94667 21.1664 6.07333 20.9397 6.26C20.713 6.44667 20.4064 6.73333 20.0197 7.12C19.6064 7.53333 19.2197 7.94667 18.8597 8.36C18.8197 8.45333 18.773 8.50667 18.7197 8.52C18.013 9.30667 17.273 10.2267 16.4997 11.28C15.8864 12.12 15.4464 12.84 15.1797 13.44C15.1397 13.5467 15.0797 13.6333 14.9997 13.7C14.933 13.7667 14.853 13.8 14.7597 13.8C14.693 13.8 14.613 13.7667 14.5197 13.7C14.453 13.6467 14.4197 13.56 14.4197 13.44C14.4197 13.24 14.4864 13.0333 14.6197 12.82C14.953 12.2467 15.4197 11.5533 16.0197 10.74C16.6464 9.88667 17.2864 9.09333 17.9397 8.36C17.513 8.09333 17.133 7.79333 16.7997 7.46C16.453 7.11333 15.9997 6.58 15.4397 5.86C14.8797 5.12667 14.5664 4.66 14.4997 4.46C14.4464 4.31333 14.4664 4.18667 14.5597 4.08C14.653 3.97333 14.7664 3.92 14.8997 3.92C15.0597 3.92 15.173 3.99333 15.2397 4.14C15.493 4.66 15.8864 5.26 16.4197 5.94C16.9664 6.62 17.4597 7.12 17.8997 7.44C17.9797 7.49333 18.0797 7.55333 18.1997 7.62C18.3197 7.67333 18.413 7.71333 18.4797 7.74L19.4397 6.74C19.5064 6.67333 19.6864 6.48667 19.9797 6.18C20.2864 5.87333 20.593 5.62 20.8997 5.42C20.9264 5.40667 21.0064 5.35333 21.1397 5.26C21.2864 5.15333 21.4397 5.1 21.5997 5.1C21.6664 5.1 21.7397 5.12 21.8197 5.16Z" fill="#FB6868"/>
<path d="M28.8675 8.56C28.9742 8.46667 29.1208 8.40667 29.3075 8.38C31.5742 7.98 33.9808 7.74 36.5275 7.66C37.2475 7.63333 37.6808 7.62 37.8275 7.62C38.1875 7.62 38.4408 7.65333 38.5875 7.72C38.7475 7.77333 38.8275 7.88 38.8275 8.04C38.8275 8.2 38.7742 8.30667 38.6675 8.36C38.5742 8.41333 38.4342 8.44 38.2475 8.44L37.8075 8.42C37.5942 8.39333 37.4275 8.38 37.3075 8.38L36.6275 8.36C35.6675 8.36 34.6275 8.41333 33.5075 8.52C32.3875 8.61333 31.3875 8.75333 30.5075 8.94L29.3075 9.2C29.1608 9.22667 29.0275 9.21333 28.9075 9.16C28.7875 9.10667 28.7275 9.00667 28.7275 8.86C28.7275 8.74 28.7742 8.64 28.8675 8.56Z" fill="#FB6868"/>
<path d="M54.1153 7.14C54.1153 7.26 54.062 7.36 53.9553 7.44C53.862 7.52 53.7486 7.54667 53.6153 7.52C53.2553 7.46667 53.002 7.43333 52.8553 7.42C52.682 7.40667 52.3953 7.4 51.9953 7.4C51.4086 7.4 50.7153 7.43333 49.9153 7.5C49.9153 7.76667 49.922 7.96667 49.9353 8.1C50.002 9.14 50.1286 10.1067 50.3153 11C50.4086 11.4533 50.4953 11.7867 50.5753 12C50.6553 12.2133 50.7886 12.5133 50.9753 12.9C51.002 12.9533 51.0553 13.0267 51.1353 13.12C51.2286 13.2 51.2886 13.2667 51.3153 13.32C51.342 13.4 51.3553 13.46 51.3553 13.5C51.3553 13.6067 51.322 13.7067 51.2553 13.8C51.1886 13.88 51.0953 13.92 50.9753 13.92C50.8286 13.92 50.6953 13.8467 50.5753 13.7C50.4553 13.54 50.3553 13.3933 50.2753 13.26C50.2086 13.1133 50.1686 13.02 50.1553 12.98C49.8486 12.38 49.6153 11.6067 49.4553 10.66C49.3086 9.71333 49.222 8.69333 49.1953 7.6C47.462 7.82667 46.2086 8.13333 45.4353 8.52C45.3553 8.56 45.2486 8.62667 45.1153 8.72C44.982 8.8 44.862 8.84 44.7553 8.84C44.6486 8.84 44.5486 8.77333 44.4553 8.64C44.4153 8.57333 44.3953 8.50667 44.3953 8.44C44.3953 8.26667 44.4753 8.13333 44.6353 8.04C45.4486 7.52 46.962 7.13333 49.1753 6.88C49.1753 6.54667 49.1886 6.06 49.2153 5.42C48.162 5.48667 47.1953 5.64 46.3153 5.88C46.2353 5.89333 46.1486 5.92667 46.0553 5.98C45.9753 6.02 45.9153 6.04667 45.8753 6.06C45.662 6.15333 45.5286 6.20667 45.4753 6.22C45.3286 6.26 45.1953 6.23333 45.0753 6.14C44.9686 6.04667 44.9153 5.93333 44.9153 5.8C44.9153 5.61333 45.0086 5.49333 45.1953 5.44C45.782 5.24 46.4286 5.08 47.1353 4.96C47.8553 4.82667 48.562 4.74667 49.2553 4.72V4.66C49.2553 4.58 49.2686 4.36667 49.2953 4.02C49.322 3.67333 49.3753 3.35333 49.4553 3.06C49.5486 2.68667 49.6953 2.5 49.8953 2.5C50.0153 2.5 50.1153 2.54667 50.1953 2.64C50.2886 2.72 50.3353 2.81333 50.3353 2.92C50.3353 3 50.302 3.08667 50.2353 3.18C50.0886 3.34 49.9886 3.84667 49.9353 4.7L50.4553 4.72C51.362 4.76 51.8886 4.82 52.0353 4.9C52.1686 4.98 52.2353 5.09333 52.2353 5.24C52.2353 5.36 52.1886 5.46667 52.0953 5.56C52.0153 5.64 51.9086 5.67333 51.7753 5.66C51.682 5.64667 51.542 5.61333 51.3553 5.56C51.0753 5.48 50.8153 5.43333 50.5753 5.42L49.9153 5.4C49.902 5.72 49.8953 6.19333 49.8953 6.82C50.922 6.71333 52.0286 6.66 53.2153 6.66C53.8153 6.66 54.1153 6.82 54.1153 7.14Z" fill="#FB6868"/>
<path d="M68.5231 12.54C68.6431 12.6067 68.7031 12.7133 68.7031 12.86C68.7031 12.9667 68.6698 13.0667 68.6031 13.16C68.5365 13.24 68.4565 13.2867 68.3631 13.3C68.2831 13.3267 68.1565 13.34 67.9831 13.34C67.7565 13.34 67.5031 13.2933 67.2231 13.2C66.6498 13.0133 66.1698 12.7 65.7831 12.26C65.3965 11.8067 65.2031 11.2933 65.2031 10.72C65.2031 10.1867 65.3565 9.66667 65.6631 9.16C65.9698 8.65333 66.3565 8.20667 66.8231 7.82C66.1698 8.00667 65.5231 8.1 64.8831 8.1C64.3365 8.1 63.8898 8.01333 63.5431 7.84C63.1965 7.65333 63.0231 7.35333 63.0231 6.94C63.0231 6.38 63.3365 5.77333 63.9631 5.12C63.2831 4.62667 62.7231 4.27333 62.2831 4.06C62.1231 3.98 61.9365 3.90667 61.7231 3.84C61.5098 3.77333 61.3498 3.72 61.2431 3.68C61.1098 3.62667 61.0098 3.56 60.9431 3.48C60.8765 3.38667 60.8498 3.29333 60.8631 3.2C60.9031 3.02667 61.0098 2.94 61.1831 2.94C61.4631 2.94 61.9431 3.12 62.6231 3.48C63.3031 3.82667 63.9298 4.20667 64.5031 4.62C65.2898 4.00667 66.0565 3.62 66.8031 3.46C67.0431 3.40667 67.2631 3.38 67.4631 3.38C67.7831 3.38 67.9965 3.45333 68.1031 3.6C68.1565 3.65333 68.1831 3.72667 68.1831 3.82C68.1831 3.92667 68.1431 4.02 68.0631 4.1C67.9698 4.19333 67.8765 4.24 67.7831 4.24C67.7565 4.24 67.7031 4.22667 67.6231 4.2C67.5031 4.16 67.3765 4.14 67.2431 4.14C66.9898 4.14 66.6431 4.22667 66.2031 4.4C65.8165 4.56 65.4298 4.77333 65.0431 5.04C65.2565 5.2 65.3965 5.33333 65.4631 5.44C65.5831 5.6 65.6431 5.73333 65.6431 5.84C65.6431 5.93333 65.6098 6.00667 65.5431 6.06C65.4898 6.11333 65.4231 6.14 65.3431 6.14C65.2098 6.14 65.0298 6.02667 64.8031 5.8L64.4631 5.5C64.2098 5.74 63.9965 6.00667 63.8231 6.3C63.7031 6.54 63.6431 6.74667 63.6431 6.92C63.6431 7 63.6631 7.08 63.7031 7.16C63.8365 7.38667 64.2098 7.5 64.8231 7.5C65.2365 7.5 65.6965 7.45333 66.2031 7.36C66.7231 7.25333 67.1565 7.12667 67.5031 6.98C67.5831 6.94 67.6831 6.92 67.8031 6.92C68.0165 6.92 68.1231 7.02667 68.1231 7.24C68.1231 7.34667 68.0965 7.44 68.0431 7.52C67.9898 7.58667 67.9231 7.65333 67.8431 7.72C67.7631 7.78667 67.7031 7.84 67.6631 7.88C66.4765 9.06667 65.8831 10.0333 65.8831 10.78C65.8831 11.1533 66.0031 11.4667 66.2431 11.72C66.4298 11.9467 66.6898 12.1467 67.0231 12.32C67.3565 12.4933 67.6431 12.58 67.8831 12.58C67.9498 12.58 68.0298 12.5667 68.1231 12.54C68.2298 12.5 68.3031 12.48 68.3431 12.48C68.4098 12.48 68.4698 12.5 68.5231 12.54Z" fill="#FB6868"/>
<path d="M89.9509 2.72C89.9509 2.82667 89.9043 2.91333 89.8109 2.98C89.7309 3.03333 89.6243 3.06 89.4909 3.06C89.1176 3.06 88.7243 2.88667 88.3109 2.54C87.8976 2.19333 87.5509 1.81333 87.2709 1.4C87.0309 1.05333 86.9043 0.766667 86.8909 0.54V0.48C86.8909 0.28 86.9843 0.133333 87.1709 0.0400004C87.2243 0.0133333 87.2709 0 87.3109 0C87.4043 0 87.4843 0.0333328 87.5509 0.0999994C87.6176 0.153333 87.6576 0.226667 87.6709 0.320001C87.6976 0.626667 87.7776 0.886667 87.9109 1.1C88.0976 1.40667 88.3509 1.68 88.6709 1.92C89.0043 2.16 89.2909 2.26667 89.5309 2.24C89.6376 2.22667 89.7309 2.27333 89.8109 2.38C89.9043 2.47333 89.9509 2.58667 89.9509 2.72ZM87.1309 3.7C87.2243 3.7 87.3043 3.73333 87.3709 3.8C87.4509 3.86667 87.5043 3.95333 87.5309 4.06V4.12C87.5309 4.22667 87.4843 4.32 87.3909 4.4C87.3109 4.46667 87.1909 4.5 87.0309 4.5C86.5643 4.5 86.1843 4.25333 85.8909 3.76C85.6109 3.25333 85.4376 2.62667 85.3709 1.88V1.84C85.3709 1.72 85.4109 1.62 85.4909 1.54C85.5709 1.46 85.6709 1.42 85.7909 1.42C86.0709 1.42 86.2109 1.57333 86.2109 1.88V2.32C86.2109 2.74667 86.2843 3.1 86.4309 3.38C86.5776 3.64667 86.7909 3.75333 87.0709 3.7H87.1309ZM78.1709 12.54C78.2776 12.54 78.3643 12.58 78.4309 12.66C78.5109 12.7267 78.5576 12.8067 78.5709 12.9V12.94C78.5709 13.06 78.5309 13.16 78.4509 13.24C78.3843 13.3067 78.2776 13.34 78.1309 13.34C77.8776 13.34 77.6509 13.2733 77.4509 13.14C77.2509 13.0067 77.0576 12.78 76.8709 12.46C76.6043 11.9933 76.3976 11.36 76.2509 10.56C76.1043 9.76 76.0309 8.93333 76.0309 8.08C76.0309 6.77333 76.1776 5.78 76.4709 5.1C76.6709 4.63333 76.8776 4.33333 77.0909 4.2C77.1576 4.14667 77.2509 4.12 77.3709 4.12C77.4909 4.12 77.5909 4.16667 77.6709 4.26C77.7376 4.35333 77.7709 4.44 77.7709 4.52C77.7709 4.65333 77.7176 4.76 77.6109 4.84C77.2509 5.10667 77.0176 5.53333 76.9109 6.12C76.7509 6.96 76.6709 7.74667 76.6709 8.48C76.6709 9.58667 76.8643 10.66 77.2509 11.7C77.3443 11.94 77.4643 12.14 77.6109 12.3C77.7709 12.46 77.9576 12.54 78.1709 12.54ZM85.1109 8C85.2176 8 85.3109 8.04 85.3909 8.12C85.4709 8.2 85.5109 8.29333 85.5109 8.4C85.5109 8.50667 85.4643 8.6 85.3709 8.68C85.2909 8.74667 85.1909 8.77333 85.0709 8.76C84.6976 8.73333 84.4109 8.72 84.2109 8.72C83.7843 8.72 83.4309 8.75333 83.1509 8.82C83.0576 9.40667 82.8843 9.88667 82.6309 10.26C82.4843 10.46 82.3043 10.6267 82.0909 10.76C81.8776 10.8933 81.6643 10.96 81.4509 10.96C81.2909 10.96 81.1576 10.9133 81.0509 10.82C80.9043 10.7133 80.8309 10.54 80.8309 10.3C80.8309 9.98 80.9643 9.64667 81.2309 9.3C81.3776 9.11333 81.5776 8.93333 81.8309 8.76C82.0976 8.57333 82.3443 8.44667 82.5709 8.38C82.5843 8.00667 82.5309 7.41333 82.4109 6.6C81.4243 6.94667 80.6909 7.36 80.2109 7.84C79.9976 8.05333 79.8643 8.22667 79.8109 8.36C79.7576 8.49333 79.6443 8.56 79.4709 8.56C79.3776 8.56 79.3109 8.54667 79.2709 8.52C79.1243 8.44 79.0509 8.33333 79.0509 8.2C79.0509 8.16 79.0643 8.1 79.0909 8.02C79.1309 7.94 79.1976 7.84667 79.2909 7.74C79.3843 7.63333 79.4843 7.54 79.5909 7.46C79.9509 7.16667 80.3976 6.88 80.9309 6.6C81.4643 6.32 81.9309 6.12 82.3309 6C82.3309 5.64 82.4243 5.39333 82.6109 5.26C82.7709 5.14 83.0176 5.08 83.3509 5.08C83.6843 5.08 83.9709 5.12667 84.2109 5.22C84.4643 5.3 84.6509 5.38667 84.7709 5.48C84.9043 5.57333 84.9709 5.69333 84.9709 5.84C84.9709 6.10667 84.7843 6.24 84.4109 6.24C83.9309 6.24 83.4576 6.3 82.9909 6.42L83.1109 7.02C83.1909 7.43333 83.2243 7.82667 83.2109 8.2C83.7843 8.06667 84.4176 8 85.1109 8ZM83.1109 5.64C83.0176 5.65333 82.9576 5.72 82.9309 5.84C83.1843 5.77333 83.4443 5.73333 83.7109 5.72C83.4309 5.64 83.2309 5.61333 83.1109 5.64ZM82.1709 9.8C82.3043 9.56 82.4043 9.32667 82.4709 9.1C82.3109 9.18 82.1776 9.26667 82.0709 9.36C81.9776 9.45333 81.8709 9.57333 81.7509 9.72C81.6176 9.89333 81.5309 10.0467 81.4909 10.18C81.4509 10.3133 81.4776 10.38 81.5709 10.38C81.6509 10.38 81.7509 10.32 81.8709 10.2C81.9909 10.08 82.0909 9.94667 82.1709 9.8Z" fill="#FB6868"/>
</svg>
