<svg width="86" height="13" viewBox="0 0 86 13" fill="none" xmlns="http://www.w3.org/2000/svg">
<path d="M9.52 4.12C9.62667 4.2 9.68 4.30667 9.68 4.44C9.68 4.57333 9.62 4.68 9.5 4.76C9.44667 4.8 9.36667 4.82 9.26 4.82C8.63333 4.82 8.02 4.92667 7.42 5.14C6.91333 5.32667 6.36667 5.55333 5.78 5.82C5.62 7.15333 5.54 8.30667 5.54 9.28C5.54 9.90667 5.61333 10.4 5.76 10.76C5.77333 10.7867 5.79333 10.84 5.82 10.92C5.84667 10.9867 5.86 11.0533 5.86 11.12C5.86 11.24 5.82 11.3333 5.74 11.4C5.66 11.4667 5.56667 11.5 5.46 11.5C5.38 11.5 5.29333 11.4667 5.2 11.4C4.97333 11.1867 4.86 10.5133 4.86 9.38C4.86 8.52667 4.92 7.45333 5.04 6.16C4.46667 6.44 3.89333 6.75333 3.32 7.1C3.29333 7.63333 3.28 8.03333 3.28 8.3C3.28 8.68667 3.3 9.03333 3.34 9.34C3.36667 9.55333 3.40667 9.73333 3.46 9.88C3.51333 10.0267 3.6 10.1467 3.72 10.24C3.89333 10.36 3.98 10.4933 3.98 10.64C3.98 10.7333 3.95333 10.8133 3.9 10.88C3.84667 10.9733 3.75333 11.02 3.62 11.02C3.51333 11.02 3.40667 10.9867 3.3 10.92C3.03333 10.76 2.85333 10.5267 2.76 10.22C2.66667 9.91333 2.6 9.53333 2.56 9.08C2.53333 8.70667 2.52 8.42 2.52 8.22L2.54 7.62C2.19333 7.84667 1.91333 8.08 1.7 8.32C1.66 8.37333 1.61333 8.44667 1.56 8.54C1.50667 8.62 1.44667 8.68667 1.38 8.74C1.32667 8.78 1.26 8.8 1.18 8.8C1.06 8.8 0.96 8.76 0.88 8.68C0.813333 8.6 0.78 8.5 0.78 8.38C0.78 8.28667 0.806667 8.20667 0.86 8.14C1.16667 7.72667 1.74667 7.26667 2.6 6.76C2.66667 6.13333 2.74667 5.53333 2.84 4.96C2.06667 5.24 1.45333 5.50667 1 5.76C0.946667 5.78667 0.853333 5.84667 0.72 5.94C0.6 6.02 0.486667 6.06 0.38 6.06C0.26 6.06 0.166667 6.02667 0.1 5.96C0.0333333 5.88 0 5.78667 0 5.68C0 5.53333 0.06 5.42 0.18 5.34C0.806667 4.98 1.73333 4.59333 2.96 4.18C3.13333 3.24667 3.28667 2.48667 3.42 1.9C3.47333 1.67333 3.52667 1.50667 3.58 1.4C3.64667 1.28 3.76 1.22 3.92 1.22C4.05333 1.22 4.16 1.28 4.24 1.4C4.32 1.50667 4.33333 1.62667 4.28 1.76C4.13333 2.10667 4.01333 2.5 3.92 2.94C3.84 3.36667 3.78667 3.63333 3.76 3.74L3.72 3.94C4.28 3.75333 4.78667 3.62 5.24 3.54L5.36 3.52C5.41333 3.06667 5.50667 2.53333 5.64 1.92C5.65333 1.88 5.66667 1.79333 5.68 1.66C5.70667 1.52667 5.75333 1.42 5.82 1.34C5.88667 1.26 5.98 1.22 6.1 1.22C6.24667 1.22 6.36 1.28 6.44 1.4C6.53333 1.50667 6.55333 1.62667 6.5 1.76C6.36667 2.12 6.23333 2.68 6.1 3.44C6.3 3.46667 6.44 3.55333 6.52 3.7L6.56 3.86C6.56 3.95333 6.52667 4.04 6.46 4.12C6.40667 4.18667 6.32667 4.23333 6.22 4.26H6.14C6.07333 4.26 6.01333 4.25333 5.96 4.24C5.94667 4.41333 5.91333 4.67333 5.86 5.02C7.00667 4.54 7.96667 4.23333 8.74 4.1C9.02 4.06 9.18 4.04 9.22 4.04C9.35333 4.04 9.45333 4.06667 9.52 4.12ZM5.14 5.36C5.16667 4.98667 5.19333 4.72 5.22 4.56L5.26 4.28C4.76667 4.34667 4.20667 4.48667 3.58 4.7C3.5 5.23333 3.44667 5.66667 3.42 6L3.4 6.28C3.82667 6.04 4.22 5.82667 4.58 5.64L5.14 5.36Z" fill="#FB6868"/>
<path d="M20.6597 1.5C20.6997 1.59333 20.7197 1.7 20.7197 1.82C20.7197 2.00667 20.653 2.3 20.5197 2.7C20.1864 3.62 19.6664 4.75333 18.9597 6.1L19.0997 6.2C19.313 6.37333 19.4197 6.55333 19.4197 6.74C19.4197 6.87333 19.353 6.98 19.2197 7.06C19.1664 7.08667 19.113 7.1 19.0597 7.1C18.9797 7.1 18.8997 7.08 18.8197 7.04C18.7397 6.98667 18.6797 6.91333 18.6397 6.82L18.5997 6.76C18.0264 7.81333 17.433 8.82667 16.8197 9.8C16.2197 10.7733 15.6997 11.5467 15.2597 12.12C15.1264 12.28 15.0064 12.4067 14.8997 12.5C14.8064 12.5933 14.7064 12.64 14.5997 12.64C14.533 12.64 14.453 12.6067 14.3597 12.54C14.2664 12.46 14.2197 12.3733 14.2197 12.28C14.2197 12.1467 14.2864 12.0133 14.4197 11.88C14.553 11.7467 14.633 11.66 14.6597 11.62C14.9397 11.3133 15.2397 10.9267 15.5597 10.46C16.3997 9.24667 17.233 7.87333 18.0597 6.34C17.4997 6.00667 16.9997 5.77333 16.5597 5.64C16.493 5.61333 16.413 5.6 16.3197 5.6C16.2397 5.58667 16.1597 5.57333 16.0797 5.56V5.66L16.0997 5.98C16.0997 6.04667 16.093 6.1 16.0797 6.14C16.0664 6.23333 16.0064 6.31333 15.8997 6.38C15.8064 6.43333 15.7064 6.44667 15.5997 6.42C15.3864 6.35333 15.2797 6.16 15.2797 5.84C15.2797 5.73333 15.293 5.6 15.3197 5.44C15.453 4.32 15.7664 3.18 16.2597 2.02C16.4464 1.58 16.5997 1.23333 16.7197 0.98C16.853 0.726666 17.013 0.486666 17.1997 0.26C17.3464 0.0866667 17.4864 0 17.6197 0C17.6997 0 17.7797 0.0400001 17.8597 0.12C17.953 0.213334 17.9997 0.313333 17.9997 0.419999C17.9997 0.526666 17.9597 0.613333 17.8797 0.679999L17.5797 1C17.7397 0.986667 17.973 0.98 18.2797 0.98C18.8397 0.98 19.393 1.02667 19.9397 1.12C20.3397 1.18667 20.5797 1.31333 20.6597 1.5ZM20.0997 1.92C20.0997 1.85333 20.0597 1.81333 19.9797 1.8C19.513 1.66667 18.9864 1.6 18.3997 1.6C18.2264 1.6 17.9797 1.61333 17.6597 1.64C17.593 1.65333 17.493 1.68667 17.3597 1.74C17.2397 1.79333 17.1464 1.82667 17.0797 1.84C16.9197 2.18667 16.7197 2.74 16.4797 3.5C16.333 3.99333 16.2264 4.41333 16.1597 4.76C16.693 4.90667 17.433 5.23333 18.3797 5.74L18.8797 4.76C19.093 4.33333 19.3264 3.84667 19.5797 3.3C19.833 2.74 19.993 2.34 20.0597 2.1L20.0997 1.92Z" fill="#FB6868"/>
<path d="M36.1275 7.84C36.3542 7.88 36.5342 7.92667 36.6675 7.98C36.8142 8.03333 36.8875 8.12667 36.8875 8.26C36.8875 8.5 36.7408 8.62 36.4475 8.62C36.3542 8.62 36.2342 8.60667 36.0875 8.58C35.9542 8.55333 35.8475 8.54 35.7675 8.54L35.1875 8.5C34.4942 8.44667 33.9408 8.42 33.5275 8.42C32.8208 8.42 32.2408 8.48667 31.7875 8.62C31.7208 8.64667 31.6275 8.69333 31.5075 8.76C31.3875 8.81333 31.2808 8.84 31.1875 8.84C31.0675 8.84 30.9675 8.8 30.8875 8.72C30.8208 8.64 30.7875 8.54667 30.7875 8.44C30.7875 8.24 30.8742 8.11333 31.0475 8.06C31.6475 7.80667 32.5675 7.68 33.8075 7.68C34.3142 7.68 34.8142 7.7 35.3075 7.74C35.3075 7.47333 35.3275 7.2 35.3675 6.92C35.4742 6.04 35.6275 5.16667 35.8275 4.3C35.8408 4.26 35.8475 4.21333 35.8475 4.16C35.8475 4.01333 35.7608 3.92 35.5875 3.88C34.8808 3.74667 34.1408 3.68 33.3675 3.68C32.4742 3.68 31.7475 3.77333 31.1875 3.96C31.0808 3.98667 31.0008 4 30.9475 4C30.7475 4 30.6208 3.91333 30.5675 3.74C30.5542 3.71333 30.5475 3.66667 30.5475 3.6C30.5475 3.49333 30.5742 3.40667 30.6275 3.34C30.6942 3.26 30.7808 3.21333 30.8875 3.2C31.7542 3.06667 32.6342 3 33.5275 3C34.1942 3 34.8342 3.04 35.4475 3.12C35.8475 3.17333 36.1475 3.25333 36.3475 3.36C36.5608 3.46667 36.6675 3.67333 36.6675 3.98C36.6675 4.16667 36.6342 4.37333 36.5675 4.6C36.5008 4.81333 36.4542 4.96 36.4275 5.04C36.3208 5.4 36.2475 5.74667 36.2075 6.08C36.1675 6.4 36.1342 6.74 36.1075 7.1C36.0942 7.46 36.0808 7.70667 36.0675 7.84H36.1275Z" fill="#FB6868"/>
<path d="M45.7553 3.18C45.7553 3.00667 45.8753 2.86667 46.1153 2.76C46.502 2.57333 47.2753 2.36 48.4353 2.12C49.6086 1.86667 50.5753 1.70667 51.3353 1.64C51.7753 1.6 52.0153 1.58 52.0553 1.58C52.3353 1.58 52.5686 1.62667 52.7553 1.72C52.902 1.78667 52.9753 1.89333 52.9753 2.04C52.9753 2.16 52.922 2.26 52.8153 2.34C52.722 2.40667 52.602 2.42667 52.4553 2.4C52.2553 2.36 52.062 2.34 51.8753 2.34L51.5553 2.36C50.262 2.44 49.022 2.64 47.8353 2.96C47.3553 3.09333 46.8753 3.27333 46.3953 3.5C46.3553 3.52667 46.2886 3.54 46.1953 3.54C46.0753 3.54 45.9686 3.50667 45.8753 3.44C45.7953 3.36 45.7553 3.27333 45.7553 3.18ZM46.4953 5.78C46.4953 5.58 46.582 5.45333 46.7553 5.4C47.2886 5.18667 48.2686 4.95333 49.6953 4.7C51.122 4.43333 52.0553 4.3 52.4953 4.3C52.922 4.3 53.1353 4.46 53.1353 4.78C53.1353 4.98 53.0153 5.3 52.7753 5.74C52.4953 6.3 51.9753 7.19333 51.2153 8.42C50.4686 9.63333 49.982 10.3667 49.7553 10.62C49.662 10.7267 49.542 10.78 49.3953 10.78C49.1953 10.78 49.0686 10.6867 49.0153 10.5C48.9886 10.3933 49.0086 10.2867 49.0753 10.18C49.142 10.0733 49.2286 9.96 49.3353 9.84C49.4553 9.72 49.542 9.62667 49.5953 9.56C50.0353 8.96 50.5686 8.15333 51.1953 7.14C51.8353 6.12667 52.2353 5.41333 52.3953 5C51.7286 5.02667 50.7886 5.16 49.5753 5.4C48.3753 5.64 47.602 5.84667 47.2553 6.02C47.0686 6.12667 46.9353 6.18 46.8553 6.18C46.802 6.18 46.742 6.16 46.6753 6.12C46.5553 6.04 46.4953 5.92667 46.4953 5.78Z" fill="#FB6868"/>
<path d="M69.1231 0.72C69.2431 0.72 69.3365 0.76 69.4031 0.84C69.4698 0.92 69.5031 1.00667 69.5031 1.1C69.5031 1.24667 69.4365 1.36 69.3031 1.44C68.5031 1.92 67.2965 2.9 65.6831 4.38C65.6565 4.67333 65.6431 4.92 65.6431 5.12C65.6431 5.93333 65.7298 6.84 65.9031 7.84C66.0765 8.84 66.2831 9.60667 66.5231 10.14C66.5765 10.2467 66.6031 10.3533 66.6031 10.46C66.6031 10.6867 66.4965 10.8067 66.2831 10.82H66.2431C66.0831 10.82 65.9431 10.72 65.8231 10.52C65.7165 10.3467 65.6365 10.14 65.5831 9.9C65.5298 9.64667 65.4965 9.48667 65.4831 9.42C65.1898 8.02 65.0298 6.55333 65.0031 5.02L64.4431 5.54C63.8031 6.15333 63.2031 6.77333 62.6431 7.4C62.0965 8.01333 61.7298 8.50667 61.5431 8.88C61.4231 9.09333 61.2831 9.2 61.1231 9.2C61.0431 9.2 60.9831 9.18667 60.9431 9.16C60.7965 9.08 60.7231 8.96 60.7231 8.8C60.7231 8.69333 60.7565 8.58667 60.8231 8.48C60.9698 8.25333 61.1898 7.98 61.4831 7.66C62.3231 6.74 63.4431 5.61333 64.8431 4.28C66.2431 2.93333 67.3431 1.95333 68.1431 1.34C68.2098 1.28667 68.3031 1.20667 68.4231 1.1C68.5565 0.993334 68.6765 0.906667 68.7831 0.84C68.9031 0.76 69.0165 0.72 69.1231 0.72Z" fill="#FB6868"/>
<path d="M84.8109 7.96C84.9709 8.14667 85.0509 8.30667 85.0509 8.44C85.0509 8.54667 84.9909 8.64 84.8709 8.72C84.8043 8.77333 84.7309 8.8 84.6509 8.8C84.5176 8.8 84.3776 8.68667 84.2309 8.46C84.0976 8.23333 83.8109 7.93333 83.3709 7.56C82.9443 7.18667 82.5443 6.87333 82.1709 6.62C82.0776 6.55333 81.9376 6.48 81.7509 6.4C81.0309 7.28 80.4709 8.05333 80.0709 8.72C79.8309 9.10667 79.6243 9.54 79.4509 10.02C79.4243 10.1 79.3709 10.1667 79.2909 10.22C79.2109 10.2733 79.1309 10.3 79.0509 10.3C78.9443 10.3 78.8509 10.2667 78.7709 10.2C78.7043 10.1333 78.6709 10.0333 78.6709 9.9C78.6709 9.72667 78.7243 9.54 78.8309 9.34C78.9509 9.14 79.0243 9.02 79.0509 8.98C79.3043 8.5 79.6376 7.98667 80.0509 7.44C80.4776 6.88 81.0309 6.18 81.7109 5.34L82.0109 4.96L82.3709 4.5C82.9576 3.80667 83.4109 3.22667 83.7309 2.76C82.6909 2.76 81.5443 2.93333 80.2909 3.28C79.8243 3.41333 79.4376 3.60667 79.1309 3.86C79.0643 3.92667 78.9709 3.96 78.8509 3.96C78.7443 3.96 78.6443 3.92 78.5509 3.84C78.4709 3.76 78.4309 3.66667 78.4309 3.56C78.4309 3.42667 78.4843 3.32667 78.5909 3.26C78.8843 3.04667 79.3309 2.84667 79.9309 2.66C80.4376 2.51333 81.0776 2.38 81.8509 2.26C82.6243 2.14 83.2643 2.08 83.7709 2.08C83.9843 2.08 84.1309 2.08667 84.2109 2.1C84.4643 2.14 84.5909 2.26667 84.5909 2.48C84.5909 2.56 84.5576 2.68 84.4909 2.84C84.4109 2.98667 84.2909 3.16667 84.1309 3.38C83.9843 3.58 83.8909 3.70667 83.8509 3.76C83.5309 4.2 82.9776 4.89333 82.1909 5.84C82.5909 6.06667 83.0509 6.4 83.5709 6.84C84.0909 7.26667 84.5043 7.64 84.8109 7.96Z" fill="#FB6868"/>
</svg>
