<svg width="151" height="15" viewBox="0 0 151 15" fill="none" xmlns="http://www.w3.org/2000/svg">
<path d="M9.52 5.84C9.62667 5.92 9.68 6.02667 9.68 6.16C9.68 6.29333 9.62 6.4 9.5 6.48C9.44667 6.52 9.36667 6.54 9.26 6.54C8.63333 6.54 8.02 6.64667 7.42 6.86C6.91333 7.04667 6.36667 7.27333 5.78 7.54C5.62 8.87333 5.54 10.0267 5.54 11C5.54 11.6267 5.61333 12.12 5.76 12.48C5.77333 12.5067 5.79333 12.56 5.82 12.64C5.84667 12.7067 5.86 12.7733 5.86 12.84C5.86 12.96 5.82 13.0533 5.74 13.12C5.66 13.1867 5.56667 13.22 5.46 13.22C5.38 13.22 5.29333 13.1867 5.2 13.12C4.97333 12.9067 4.86 12.2333 4.86 11.1C4.86 10.2467 4.92 9.17333 5.04 7.88C4.46667 8.16 3.89333 8.47333 3.32 8.82C3.29333 9.35333 3.28 9.75333 3.28 10.02C3.28 10.4067 3.3 10.7533 3.34 11.06C3.36667 11.2733 3.40667 11.4533 3.46 11.6C3.51333 11.7467 3.6 11.8667 3.72 11.96C3.89333 12.08 3.98 12.2133 3.98 12.36C3.98 12.4533 3.95333 12.5333 3.9 12.6C3.84667 12.6933 3.75333 12.74 3.62 12.74C3.51333 12.74 3.40667 12.7067 3.3 12.64C3.03333 12.48 2.85333 12.2467 2.76 11.94C2.66667 11.6333 2.6 11.2533 2.56 10.8C2.53333 10.4267 2.52 10.14 2.52 9.94L2.54 9.34C2.19333 9.56667 1.91333 9.8 1.7 10.04C1.66 10.0933 1.61333 10.1667 1.56 10.26C1.50667 10.34 1.44667 10.4067 1.38 10.46C1.32667 10.5 1.26 10.52 1.18 10.52C1.06 10.52 0.96 10.48 0.88 10.4C0.813333 10.32 0.78 10.22 0.78 10.1C0.78 10.0067 0.806667 9.92667 0.86 9.86C1.16667 9.44667 1.74667 8.98667 2.6 8.48C2.66667 7.85333 2.74667 7.25333 2.84 6.68C2.06667 6.96 1.45333 7.22667 1 7.48C0.946667 7.50667 0.853333 7.56667 0.72 7.66C0.6 7.74 0.486667 7.78 0.38 7.78C0.26 7.78 0.166667 7.74667 0.1 7.68C0.0333333 7.6 0 7.50667 0 7.4C0 7.25333 0.06 7.14 0.18 7.06C0.806667 6.7 1.73333 6.31333 2.96 5.9C3.13333 4.96667 3.28667 4.20667 3.42 3.62C3.47333 3.39333 3.52667 3.22667 3.58 3.12C3.64667 3 3.76 2.94 3.92 2.94C4.05333 2.94 4.16 3 4.24 3.12C4.32 3.22667 4.33333 3.34667 4.28 3.48C4.13333 3.82667 4.01333 4.22 3.92 4.66C3.84 5.08667 3.78667 5.35333 3.76 5.46L3.72 5.66C4.28 5.47333 4.78667 5.34 5.24 5.26L5.36 5.24C5.41333 4.78667 5.50667 4.25333 5.64 3.64C5.65333 3.6 5.66667 3.51333 5.68 3.38C5.70667 3.24667 5.75333 3.14 5.82 3.06C5.88667 2.98 5.98 2.94 6.1 2.94C6.24667 2.94 6.36 3 6.44 3.12C6.53333 3.22667 6.55333 3.34667 6.5 3.48C6.36667 3.84 6.23333 4.4 6.1 5.16C6.3 5.18667 6.44 5.27333 6.52 5.42L6.56 5.58C6.56 5.67333 6.52667 5.76 6.46 5.84C6.40667 5.90667 6.32667 5.95333 6.22 5.98H6.14C6.07333 5.98 6.01333 5.97333 5.96 5.96C5.94667 6.13333 5.91333 6.39333 5.86 6.74C7.00667 6.26 7.96667 5.95333 8.74 5.82C9.02 5.78 9.18 5.76 9.22 5.76C9.35333 5.76 9.45333 5.78667 9.52 5.84ZM5.14 7.08C5.16667 6.70667 5.19333 6.44 5.22 6.28L5.26 6C4.76667 6.06667 4.20667 6.20667 3.58 6.42C3.5 6.95333 3.44667 7.38667 3.42 7.72L3.4 8C3.82667 7.76 4.22 7.54667 4.58 7.36L5.14 7.08Z" fill="#FB6868"/>
<path d="M24.7397 2.88C24.7397 3.09333 24.593 3.2 24.2997 3.2C24.2597 3.2 24.1597 3.18667 23.9997 3.16C23.6664 3.08 23.3664 2.92 23.0997 2.68C22.8464 2.44 22.5997 2.14 22.3597 1.78C22.333 1.74 22.2597 1.64 22.1397 1.48C22.033 1.30667 21.9597 1.12667 21.9197 0.94V0.84C21.9197 0.626667 21.9997 0.493334 22.1597 0.440001C22.2397 0.413334 22.293 0.400001 22.3197 0.400001C22.413 0.400001 22.4864 0.426667 22.5397 0.48C22.6064 0.533333 22.653 0.6 22.6797 0.680001C22.6797 0.706667 22.693 0.806667 22.7197 0.98C22.7464 1.15333 22.813 1.30667 22.9197 1.44C23.133 1.73333 23.3597 1.97333 23.5997 2.16C23.853 2.33333 24.093 2.41333 24.3197 2.4C24.4264 2.38667 24.5197 2.43333 24.5997 2.54C24.693 2.63333 24.7397 2.74667 24.7397 2.88ZM21.9997 3.36C22.093 3.37333 22.173 3.42 22.2397 3.5C22.3197 3.56667 22.3597 3.65333 22.3597 3.76C22.3597 3.86667 22.313 3.95333 22.2197 4.02C22.1397 4.08667 22.0397 4.12 21.9197 4.12C21.8664 4.12 21.7864 4.10667 21.6797 4.08C21.3597 3.96 21.093 3.76667 20.8797 3.5C20.6664 3.22 20.5397 2.9 20.4997 2.54C20.4864 2.43333 20.4864 2.30667 20.4997 2.16C20.5264 2 20.553 1.88 20.5797 1.8C20.6597 1.58667 20.7997 1.48 20.9997 1.48C21.1064 1.48 21.1997 1.52 21.2797 1.6C21.373 1.66667 21.4197 1.76 21.4197 1.88C21.4197 1.96 21.3997 2.04 21.3597 2.12C21.2664 2.30667 21.2197 2.45333 21.2197 2.56C21.2197 2.64 21.253 2.74667 21.3197 2.88C21.3864 3 21.4797 3.10667 21.5997 3.2C21.733 3.29333 21.8664 3.34667 21.9997 3.36ZM19.8397 9.74C19.9597 9.72667 20.0597 9.76 20.1397 9.84C20.2197 9.90667 20.2597 10 20.2597 10.12C20.2597 10.2933 20.1864 10.42 20.0397 10.5C19.8264 10.6333 19.3597 10.74 18.6397 10.82C17.933 10.9 17.1997 10.94 16.4397 10.94C16.0264 10.94 15.733 10.9333 15.5597 10.92C14.7464 10.8667 14.2397 10.7667 14.0397 10.62C13.9464 10.54 13.8997 10.4467 13.8997 10.34C13.8997 10.2067 13.953 10.0933 14.0597 10C14.1797 9.90667 14.3064 9.88667 14.4397 9.94C14.933 10.14 15.5797 10.24 16.3797 10.24C16.7797 10.24 17.0797 10.2333 17.2797 10.22C17.8664 10.1933 18.3797 10.14 18.8197 10.06H18.8797C18.8797 9.96667 18.8864 9.86 18.8997 9.74C18.9264 9.62 18.9464 9.53333 18.9597 9.48C19.0397 8.86667 19.0797 8.18667 19.0797 7.44L19.0597 6.92C19.0464 6.66667 19.0197 6.46 18.9797 6.3C18.9397 6.12667 18.8664 5.99333 18.7597 5.9C18.653 5.80667 18.4397 5.76 18.1197 5.76C17.853 5.76 17.473 5.78 16.9797 5.82C16.3264 5.87333 15.533 5.99333 14.5997 6.18C14.5064 6.20667 14.3797 6.25333 14.2197 6.32C14.0597 6.37333 13.9264 6.4 13.8197 6.4C13.7397 6.4 13.6664 6.38 13.5997 6.34C13.4664 6.26 13.3997 6.14 13.3997 5.98C13.3997 5.88667 13.4264 5.80667 13.4797 5.74C13.533 5.66 13.6064 5.61333 13.6997 5.6C15.3397 5.24 16.8397 5.06 18.1997 5.06C18.6797 5.06 19.033 5.16667 19.2597 5.38C19.4864 5.59333 19.6397 5.93333 19.7197 6.4C19.7864 6.86667 19.8197 7.28667 19.8197 7.66C19.8197 7.98 19.793 8.43333 19.7397 9.02L19.6797 9.8C19.7464 9.76 19.7997 9.74 19.8397 9.74Z" fill="#FB6868"/>
<path d="M28.8675 8.02C28.9742 7.92667 29.1208 7.86667 29.3075 7.84C31.5742 7.44 33.9808 7.2 36.5275 7.12C37.2475 7.09333 37.6808 7.08 37.8275 7.08C38.1875 7.08 38.4408 7.11333 38.5875 7.18C38.7475 7.23333 38.8275 7.34 38.8275 7.5C38.8275 7.66 38.7742 7.76667 38.6675 7.82C38.5742 7.87333 38.4342 7.9 38.2475 7.9L37.8075 7.88C37.5942 7.85333 37.4275 7.84 37.3075 7.84L36.6275 7.82C35.6675 7.82 34.6275 7.87333 33.5075 7.98C32.3875 8.07333 31.3875 8.21333 30.5075 8.4L29.3075 8.66C29.1608 8.68667 29.0275 8.67333 28.9075 8.62C28.7875 8.56667 28.7275 8.46667 28.7275 8.32C28.7275 8.2 28.7742 8.1 28.8675 8.02Z" fill="#FB6868"/>
<path d="M55.2753 3.78C55.462 3.91333 55.5553 4.08 55.5553 4.28C55.5553 4.54667 55.4286 4.83333 55.1753 5.14C54.922 5.43333 54.6486 5.7 54.3553 5.94C53.742 6.44667 53.1753 6.76667 52.6553 6.9C52.522 6.94 52.3886 6.96 52.2553 6.96C52.0286 6.96 51.762 6.9 51.4553 6.78C50.7753 6.5 50.1486 6.04 49.5753 5.4C49.4953 5.42667 49.4353 5.45333 49.3953 5.48C49.5286 6.56 49.7953 7.78 50.1953 9.14C50.5953 10.5 50.9753 11.42 51.3353 11.9C51.362 11.94 51.422 12.0067 51.5153 12.1C51.6086 12.18 51.6753 12.2533 51.7153 12.32C51.7686 12.3733 51.7953 12.4467 51.7953 12.54C51.7953 12.6467 51.7486 12.74 51.6553 12.82C51.5753 12.8867 51.482 12.92 51.3753 12.92C51.3086 12.92 51.2353 12.9 51.1553 12.86C50.9953 12.7533 50.8553 12.6133 50.7353 12.44C50.6286 12.2533 50.5086 12.0333 50.3753 11.78C50.0286 11.0733 49.722 10.1867 49.4553 9.12C49.1886 8.04 48.9753 6.9 48.8153 5.7C46.9886 6.48667 45.5486 7.48 44.4953 8.68C44.2553 8.97333 44.082 9.2 43.9753 9.36C43.9486 9.38667 43.9086 9.44667 43.8553 9.54C43.8153 9.62 43.762 9.68667 43.6953 9.74C43.6286 9.79333 43.5553 9.82 43.4753 9.82C43.3553 9.82 43.2553 9.78 43.1753 9.7C43.0953 9.60667 43.0553 9.50667 43.0553 9.4C43.0553 9.30667 43.082 9.23333 43.1353 9.18C44.282 7.62 45.8753 6.36 47.9153 5.4C48.022 5.36 48.142 5.30667 48.2753 5.24C48.4086 5.17333 48.562 5.10667 48.7353 5.04C48.6953 4.73333 48.682 4.46667 48.6953 4.24C48.722 3.92 48.842 3.76 49.0553 3.76C49.1486 3.76 49.2286 3.8 49.2953 3.88C49.362 3.94667 49.4286 4.04 49.4953 4.16C49.562 4.28 49.622 4.37333 49.6753 4.44C49.7286 4.52 49.7753 4.58 49.8153 4.62C50.9486 4.22 52.1686 3.91333 53.4753 3.7C53.5553 3.68667 53.702 3.66667 53.9153 3.64C54.142 3.6 54.3353 3.58 54.4953 3.58C54.8286 3.58 55.0886 3.64667 55.2753 3.78ZM49.3553 4.2V4.22V4.2ZM54.7753 4.56C54.8153 4.48 54.8353 4.41333 54.8353 4.36C54.8353 4.25333 54.742 4.21333 54.5553 4.24C54.062 4.26667 53.4153 4.36667 52.6153 4.54C51.8153 4.7 51.142 4.87333 50.5953 5.06L50.2753 5.16C50.5953 5.49333 50.9286 5.76 51.2753 5.96C51.622 6.16 51.9486 6.26 52.2553 6.26C52.4553 6.26 52.642 6.22 52.8153 6.14C53.162 5.98 53.542 5.73333 53.9553 5.4C54.382 5.06667 54.6553 4.78667 54.7753 4.56Z" fill="#FB6868"/>
<path d="M70.4431 6.48C70.4698 6.56 70.4831 6.62 70.4831 6.66C70.4831 6.83333 70.3298 6.97333 70.0231 7.08C69.7698 7.16 69.1965 7.27333 68.3031 7.42C67.4231 7.56667 66.6098 7.69333 65.8631 7.8C65.7165 8.73333 65.6031 9.64 65.5231 10.52C65.4431 11.4 65.4098 12.1067 65.4231 12.64C65.4231 12.7867 65.3765 12.9133 65.2831 13.02C65.1898 13.1133 65.0698 13.14 64.9231 13.1C64.7231 13.0333 64.6231 12.8533 64.6231 12.56C64.6098 12.16 64.6498 11.5267 64.7431 10.66C64.8365 9.79333 64.9698 8.86667 65.1431 7.88C64.5298 7.93333 64.0565 7.96 63.7231 7.96C63.2565 7.96 62.8631 7.92667 62.5431 7.86C62.2765 7.80667 62.0498 7.68667 61.8631 7.5C61.6898 7.3 61.6031 7.06667 61.6031 6.8L61.6231 6.62C61.6631 6.24667 61.9965 5.8 62.6231 5.28C63.2498 4.76 63.9898 4.28667 64.8431 3.86C65.6965 3.42 66.4365 3.13333 67.0631 3C67.1698 2.97333 67.2498 2.96 67.3031 2.96C67.5298 2.96 67.6631 3.06 67.7031 3.26L67.7231 3.36C67.7231 3.45333 67.6898 3.54 67.6231 3.62C67.5565 3.68667 67.4698 3.72667 67.3631 3.74L66.8231 3.84C66.8231 3.92 66.8098 3.98 66.7831 4.02C66.5031 4.58 66.2298 5.61333 65.9631 7.12C67.0831 6.97333 68.0898 6.78667 68.9831 6.56C69.1431 6.52 69.4431 6.42667 69.8831 6.28C69.9231 6.26667 69.9831 6.26 70.0631 6.26C70.2498 6.26 70.3765 6.33333 70.4431 6.48ZM63.3631 7.28C63.4431 7.29333 63.5831 7.3 63.7831 7.3C64.1431 7.3 64.6365 7.26667 65.2631 7.2C65.5565 5.66667 65.7898 4.64 65.9631 4.12C65.2431 4.4 64.5365 4.76667 63.8431 5.22C63.1498 5.67333 62.6631 6.09333 62.3831 6.48C62.3031 6.6 62.2631 6.70667 62.2631 6.8C62.2631 6.96 62.3565 7.07333 62.5431 7.14C62.7431 7.20667 63.0165 7.25333 63.3631 7.28Z" fill="#FB6868"/>
<path d="M85.3109 5.88C85.5243 5.97333 85.6309 6.15333 85.6309 6.42C85.6309 6.51333 85.6243 6.58 85.6109 6.62C85.4509 7.18 85.0443 7.81333 84.3909 8.52C83.9509 8.98667 83.5709 9.34667 83.2509 9.6C82.9443 9.84 82.6643 9.96 82.4109 9.96C81.9043 9.96 81.4376 9.66 81.0109 9.06C81.2643 10.42 81.5243 11.3667 81.7909 11.9C81.8176 11.9533 81.8643 12.02 81.9309 12.1C81.9976 12.1667 82.0509 12.2333 82.0909 12.3C82.1309 12.3533 82.1509 12.42 82.1509 12.5C82.1509 12.6067 82.1109 12.7067 82.0309 12.8C81.9643 12.88 81.8776 12.92 81.7709 12.92C81.5309 12.92 81.3243 12.7133 81.1509 12.3C80.9376 11.8067 80.7576 11.2067 80.6109 10.5C80.4776 9.79333 80.3376 8.92667 80.1909 7.9C79.0309 8.58 78.1909 9.49333 77.6709 10.64C77.5776 10.84 77.5109 11.06 77.4709 11.3V11.38L77.4909 11.72C77.4909 11.8267 77.4509 11.9133 77.3709 11.98C77.2909 12.0467 77.1976 12.08 77.0909 12.08C76.8909 12.08 76.7643 11.9933 76.7109 11.82C76.6709 11.7 76.6509 11.58 76.6509 11.46C76.6509 10.9933 76.8909 10.4067 77.3709 9.7C77.8509 8.96667 78.3509 8.38667 78.8709 7.96C79.2443 7.66667 79.6443 7.40667 80.0709 7.18L80.0509 6.96C80.0376 6.88 80.0176 6.77333 79.9909 6.64C79.9776 6.50667 79.9709 6.39333 79.9709 6.3C79.9709 6.16667 79.9843 6.07333 80.0109 6.02C80.0776 5.88667 80.1776 5.82 80.3109 5.82C80.3909 5.82 80.4576 5.84667 80.5109 5.9C80.5776 5.96667 80.6309 6.12 80.6709 6.36C80.6843 6.44 80.7176 6.60667 80.7709 6.86C81.4109 6.58 82.2376 6.32 83.2509 6.08C83.9443 5.90667 84.4976 5.82 84.9109 5.82C85.0843 5.82 85.2176 5.84 85.3109 5.88ZM84.8309 6.94C84.9376 6.76667 84.9909 6.64667 84.9909 6.58C84.9909 6.48667 84.9176 6.44 84.7709 6.44C84.6509 6.44 84.4376 6.47333 84.1309 6.54C83.2509 6.74 82.3643 6.99333 81.4709 7.3C81.3509 7.34 81.1709 7.41333 80.9309 7.52C81.0376 7.88 81.1909 8.22667 81.3909 8.56C81.5509 8.81333 81.7043 9.01333 81.8509 9.16C81.9976 9.30667 82.1709 9.38 82.3709 9.38C82.6243 9.38 82.9976 9.12 83.4909 8.6C83.9976 8.08 84.4443 7.52667 84.8309 6.94Z" fill="#FB6868"/>
<path d="M95.9987 11.74C95.9187 11.6467 95.8788 11.5333 95.8788 11.4C95.8788 11.2133 95.9321 11.0133 96.0387 10.8C96.1454 10.5867 96.2854 10.3733 96.4587 10.16C96.6321 9.93333 96.7454 9.78 96.7988 9.7C97.1721 9.19333 97.6921 8.54667 98.3587 7.76C99.0387 6.96 99.6321 6.3 100.139 5.78C100.219 5.7 100.439 5.47333 100.799 5.1C101.172 4.71333 101.539 4.38667 101.899 4.12C102.099 3.96 102.279 3.88 102.439 3.88C102.545 3.88 102.639 3.92667 102.719 4.02C102.759 4.07333 102.779 4.14 102.779 4.22C102.779 4.44667 102.659 4.61333 102.419 4.72C102.245 4.8 102.079 4.91333 101.919 5.06C101.759 5.20667 101.665 5.29333 101.639 5.32C100.612 6.25333 99.4654 7.50667 98.1988 9.08C97.6521 9.74667 97.1921 10.4133 96.8187 11.08C96.7921 11.1333 96.7588 11.24 96.7188 11.4C96.6787 11.5467 96.6387 11.6467 96.5987 11.7C96.5321 11.8067 96.4388 11.86 96.3187 11.86C96.1987 11.86 96.0921 11.82 95.9987 11.74ZM93.3988 6.12C93.4521 6.04 93.5254 5.98667 93.6188 5.96C94.0321 5.82667 94.5121 5.76 95.0587 5.76C95.4854 5.76 95.9254 5.81333 96.3788 5.92C96.7521 6.01333 96.9921 6.12667 97.0987 6.26C97.1521 6.32667 97.1787 6.40667 97.1787 6.5C97.1787 6.62 97.1254 6.72 97.0188 6.8C96.9121 6.86667 96.7921 6.88 96.6588 6.84C96.5521 6.8 96.4254 6.75333 96.2787 6.7C96.1454 6.64667 96.0321 6.60667 95.9388 6.58C95.5387 6.5 95.2387 6.46 95.0387 6.46C94.8521 6.46 94.6788 6.48 94.5188 6.52C94.4254 6.54667 94.2921 6.59333 94.1188 6.66C93.9587 6.71333 93.8254 6.74 93.7188 6.74C93.6254 6.74 93.5521 6.72 93.4987 6.68C93.3787 6.6 93.3187 6.49333 93.3187 6.36C93.3187 6.26667 93.3454 6.18667 93.3988 6.12Z" fill="#FB6868"/>
<path d="M118.787 3.38C118.76 3.40667 118.66 3.51333 118.487 3.7C118.313 3.87333 118.14 3.98 117.967 4.02C118.033 4.04667 118.133 4.08 118.267 4.12C118.413 4.16 118.527 4.20667 118.607 4.26C118.74 4.35333 118.807 4.47333 118.807 4.62C118.807 4.67333 118.793 4.72667 118.767 4.78C118.687 4.91333 118.573 4.98 118.427 4.98C118.36 4.98 118.267 4.96 118.147 4.92C117.747 4.78667 117.347 4.58 116.947 4.3C116.56 4.02 116.247 3.68667 116.007 3.3C115.78 2.92667 115.667 2.54667 115.667 2.16C115.667 1.62667 115.873 1.15333 116.287 0.74C116.513 0.513334 116.773 0.333334 117.067 0.2C117.373 0.0666666 117.687 0 118.007 0C118.513 0 118.927 0.16 119.247 0.48C119.567 0.786666 119.727 1.16 119.727 1.6C119.727 1.76 119.693 1.95333 119.627 2.18C119.493 2.55333 119.213 2.95333 118.787 3.38ZM118.267 2.84C118.48 2.66667 118.66 2.46667 118.807 2.24C118.967 2.01333 119.047 1.79333 119.047 1.58C119.047 1.52667 119.033 1.44667 119.007 1.34C118.86 0.926667 118.54 0.72 118.047 0.72C117.647 0.72 117.307 0.826667 117.027 1.04C116.6 1.37333 116.387 1.74 116.387 2.14C116.387 2.7 116.753 3.22667 117.487 3.72V3.66C117.487 3.5 117.54 3.37333 117.647 3.28C117.713 3.22667 117.8 3.16667 117.907 3.1C118.013 3.03333 118.133 2.94667 118.267 2.84ZM112.927 4.02C113.22 3.99333 113.433 3.98 113.567 3.98C113.953 3.98 114.253 4.04667 114.467 4.18C114.68 4.31333 114.787 4.54667 114.787 4.88C114.787 5 114.753 5.26 114.687 5.66C114.633 5.96667 114.513 6.39333 114.327 6.94C114.1 7.64667 113.833 8.34 113.527 9.02C113.233 9.7 112.853 10.5467 112.387 11.56C112.36 11.6 112.313 11.6933 112.247 11.84C112.193 11.9733 112.127 12.0867 112.047 12.18C111.967 12.26 111.873 12.3 111.767 12.3C111.673 12.3 111.593 12.2733 111.527 12.22C111.407 12.1533 111.347 12.0533 111.347 11.92C111.347 11.8267 111.373 11.7333 111.427 11.64C111.48 11.5333 111.513 11.4667 111.527 11.44L111.767 11L112.147 10.28C112.44 9.69333 112.76 8.98 113.107 8.14C113.453 7.3 113.7 6.61333 113.847 6.08C114.033 5.41333 114.127 5.02667 114.127 4.92C114.127 4.8 114.04 4.72667 113.867 4.7C113.627 4.67333 113.427 4.66 113.267 4.66C112.693 4.66 111.9 4.74667 110.887 4.92C110.113 5.05333 109.447 5.22667 108.887 5.44C108.807 5.48 108.72 5.5 108.627 5.5C108.413 5.5 108.28 5.40667 108.227 5.22C108.213 5.19333 108.207 5.15333 108.207 5.1C108.207 5.00667 108.233 4.92667 108.287 4.86C108.353 4.79333 108.433 4.74667 108.527 4.72C109.74 4.38667 111.207 4.15333 112.927 4.02Z" fill="#FB6868"/>
<path d="M129.634 2.22C129.634 2.3 129.608 2.37333 129.554 2.44C129.128 3.04 128.648 3.85333 128.114 4.88C127.594 5.89333 127.141 6.88 126.754 7.84C125.968 9.73333 125.574 11.2 125.574 12.24C125.574 12.7733 125.681 13.1733 125.894 13.44C125.948 13.5067 126.048 13.5733 126.194 13.64C126.341 13.72 126.448 13.7867 126.514 13.84C126.581 13.9067 126.614 13.9933 126.614 14.1C126.614 14.3533 126.488 14.48 126.234 14.48C126.114 14.48 125.974 14.44 125.814 14.36C125.214 14.0133 124.914 13.3667 124.914 12.42C124.914 11.3267 125.234 9.92667 125.874 8.22C126.514 6.5 127.294 4.81333 128.214 3.16C128.254 3.08 128.314 2.96 128.394 2.8C128.488 2.62667 128.601 2.43333 128.734 2.22C128.881 1.99333 128.988 1.86667 129.054 1.84C129.134 1.81333 129.188 1.8 129.214 1.8C129.321 1.8 129.414 1.84667 129.494 1.94C129.588 2.02 129.634 2.11333 129.634 2.22ZM131.174 5.7C131.174 5.76667 131.168 5.82 131.154 5.86C131.061 6.36667 130.968 6.92 130.874 7.52C130.794 8.10667 130.754 8.57333 130.754 8.92C130.754 9.25333 130.801 9.41333 130.894 9.4C131.028 9.37333 131.294 9.24 131.694 9C132.094 8.76 132.488 8.52 132.874 8.28C133.408 7.93333 133.828 7.62667 134.134 7.36C134.388 7.13333 134.541 6.98667 134.594 6.92C134.741 6.76 134.888 6.68 135.034 6.68C135.114 6.68 135.194 6.70667 135.274 6.76C135.354 6.81333 135.394 6.89333 135.394 7C135.394 7.16 135.294 7.34 135.094 7.54C134.761 7.87333 134.401 8.16667 134.014 8.42C133.641 8.67333 133.108 9 132.414 9.4C132.028 9.64 131.728 9.81333 131.514 9.92C131.301 10.0133 131.074 10.06 130.834 10.06C130.768 10.06 130.681 10.0467 130.574 10.02C130.401 9.96667 130.281 9.86 130.214 9.7C130.161 9.52667 130.134 9.28667 130.134 8.98L130.154 8.38C130.168 8.14 130.201 7.65333 130.254 6.92L130.314 6.32C130.314 6.25333 130.314 6.13333 130.314 5.96C130.328 5.77333 130.361 5.62667 130.414 5.52C130.481 5.34667 130.601 5.26 130.774 5.26H130.854C131.068 5.3 131.174 5.44667 131.174 5.7Z" fill="#FB6868"/>
<path d="M140.922 8.02C141.029 7.92667 141.176 7.86667 141.362 7.84C143.629 7.44 146.036 7.2 148.582 7.12C149.302 7.09333 149.736 7.08 149.882 7.08C150.242 7.08 150.496 7.11333 150.642 7.18C150.802 7.23333 150.882 7.34 150.882 7.5C150.882 7.66 150.829 7.76667 150.722 7.82C150.629 7.87333 150.489 7.9 150.302 7.9L149.862 7.88C149.649 7.85333 149.482 7.84 149.362 7.84L148.682 7.82C147.722 7.82 146.682 7.87333 145.562 7.98C144.442 8.07333 143.442 8.21333 142.562 8.4L141.362 8.66C141.216 8.68667 141.082 8.67333 140.962 8.62C140.842 8.56667 140.782 8.46667 140.782 8.32C140.782 8.2 140.829 8.1 140.922 8.02Z" fill="#FB6868"/>
</svg>
