<svg width="87" height="16" viewBox="0 0 87 16" fill="none" xmlns="http://www.w3.org/2000/svg">
<path d="M9.52 6.12C9.62667 6.2 9.68 6.30667 9.68 6.44C9.68 6.57333 9.62 6.68 9.5 6.76C9.44667 6.8 9.36667 6.82 9.26 6.82C8.63333 6.82 8.02 6.92667 7.42 7.14C6.91333 7.32667 6.36667 7.55333 5.78 7.82C5.62 9.15333 5.54 10.3067 5.54 11.28C5.54 11.9067 5.61333 12.4 5.76 12.76C5.77333 12.7867 5.79333 12.84 5.82 12.92C5.84667 12.9867 5.86 13.0533 5.86 13.12C5.86 13.24 5.82 13.3333 5.74 13.4C5.66 13.4667 5.56667 13.5 5.46 13.5C5.38 13.5 5.29333 13.4667 5.2 13.4C4.97333 13.1867 4.86 12.5133 4.86 11.38C4.86 10.5267 4.92 9.45333 5.04 8.16C4.46667 8.44 3.89333 8.75333 3.32 9.1C3.29333 9.63333 3.28 10.0333 3.28 10.3C3.28 10.6867 3.3 11.0333 3.34 11.34C3.36667 11.5533 3.40667 11.7333 3.46 11.88C3.51333 12.0267 3.6 12.1467 3.72 12.24C3.89333 12.36 3.98 12.4933 3.98 12.64C3.98 12.7333 3.95333 12.8133 3.9 12.88C3.84667 12.9733 3.75333 13.02 3.62 13.02C3.51333 13.02 3.40667 12.9867 3.3 12.92C3.03333 12.76 2.85333 12.5267 2.76 12.22C2.66667 11.9133 2.6 11.5333 2.56 11.08C2.53333 10.7067 2.52 10.42 2.52 10.22L2.54 9.62C2.19333 9.84667 1.91333 10.08 1.7 10.32C1.66 10.3733 1.61333 10.4467 1.56 10.54C1.50667 10.62 1.44667 10.6867 1.38 10.74C1.32667 10.78 1.26 10.8 1.18 10.8C1.06 10.8 0.96 10.76 0.88 10.68C0.813333 10.6 0.78 10.5 0.78 10.38C0.78 10.2867 0.806667 10.2067 0.86 10.14C1.16667 9.72667 1.74667 9.26667 2.6 8.76C2.66667 8.13333 2.74667 7.53333 2.84 6.96C2.06667 7.24 1.45333 7.50667 1 7.76C0.946667 7.78667 0.853333 7.84667 0.72 7.94C0.6 8.02 0.486667 8.06 0.38 8.06C0.26 8.06 0.166667 8.02667 0.1 7.96C0.0333333 7.88 0 7.78667 0 7.68C0 7.53333 0.06 7.42 0.18 7.34C0.806667 6.98 1.73333 6.59333 2.96 6.18C3.13333 5.24667 3.28667 4.48667 3.42 3.9C3.47333 3.67333 3.52667 3.50667 3.58 3.4C3.64667 3.28 3.76 3.22 3.92 3.22C4.05333 3.22 4.16 3.28 4.24 3.4C4.32 3.50667 4.33333 3.62667 4.28 3.76C4.13333 4.10667 4.01333 4.5 3.92 4.94C3.84 5.36667 3.78667 5.63333 3.76 5.74L3.72 5.94C4.28 5.75333 4.78667 5.62 5.24 5.54L5.36 5.52C5.41333 5.06667 5.50667 4.53333 5.64 3.92C5.65333 3.88 5.66667 3.79333 5.68 3.66C5.70667 3.52667 5.75333 3.42 5.82 3.34C5.88667 3.26 5.98 3.22 6.1 3.22C6.24667 3.22 6.36 3.28 6.44 3.4C6.53333 3.50667 6.55333 3.62667 6.5 3.76C6.36667 4.12 6.23333 4.68 6.1 5.44C6.3 5.46667 6.44 5.55333 6.52 5.7L6.56 5.86C6.56 5.95333 6.52667 6.04 6.46 6.12C6.40667 6.18667 6.32667 6.23333 6.22 6.26H6.14C6.07333 6.26 6.01333 6.25333 5.96 6.24C5.94667 6.41333 5.91333 6.67333 5.86 7.02C7.00667 6.54 7.96667 6.23333 8.74 6.1C9.02 6.06 9.18 6.04 9.22 6.04C9.35333 6.04 9.45333 6.06667 9.52 6.12ZM5.14 7.36C5.16667 6.98667 5.19333 6.72 5.22 6.56L5.26 6.28C4.76667 6.34667 4.20667 6.48667 3.58 6.7C3.5 7.23333 3.44667 7.66667 3.42 8L3.4 8.28C3.82667 8.04 4.22 7.82667 4.58 7.64L5.14 7.36Z" fill="#FB6868"/>
<path d="M12.2197 5.42C12.2197 5.27333 12.273 5.16667 12.3797 5.1C13.553 4.26 15.6997 3.77333 18.8197 3.64C18.993 3.62667 19.273 3.62 19.6597 3.62C20.6197 3.62 21.1997 3.68 21.3997 3.8C21.5464 3.86667 21.6197 3.97333 21.6197 4.12C21.6197 4.46667 21.193 4.90667 20.3397 5.44C19.4997 5.97333 18.5597 6.43333 17.5197 6.82C17.6664 7.08667 17.7797 7.42667 17.8597 7.84C17.9397 8.25333 17.9797 8.68 17.9797 9.12C17.9797 9.46667 17.9664 9.71333 17.9397 9.86C17.873 10.2867 17.7197 10.8267 17.4797 11.48C17.253 12.12 17.0397 12.56 16.8397 12.8C16.7064 12.9733 16.5664 13.06 16.4197 13.06C16.353 13.06 16.2864 13.04 16.2197 13C16.0864 12.92 16.0197 12.8133 16.0197 12.68C16.0197 12.56 16.073 12.4333 16.1797 12.3C16.4197 11.9533 16.5997 11.66 16.7197 11.42C17.1464 10.54 17.3597 9.67333 17.3597 8.82C17.3597 8.14 17.2397 7.6 16.9997 7.2C16.9597 7.14667 16.9197 7.1 16.8797 7.06C16.8397 7.02 16.7997 6.97333 16.7597 6.92C16.7064 6.85333 16.6797 6.77333 16.6797 6.68C16.6797 6.58667 16.7064 6.50667 16.7597 6.44C16.8264 6.36 16.9064 6.3 16.9997 6.26C17.2264 6.16667 17.3997 6.1 17.5197 6.06L17.9997 5.88C18.4797 5.68 18.993 5.43333 19.5397 5.14C20.0864 4.84667 20.4864 4.59333 20.7397 4.38C20.5664 4.36667 20.273 4.36 19.8597 4.36C18.793 4.36 17.633 4.45333 16.3797 4.64C15.1397 4.81333 14.1797 5.04667 13.4997 5.34C13.2864 5.43333 13.1197 5.52667 12.9997 5.62C12.8797 5.74 12.7464 5.8 12.5997 5.8H12.5397C12.4464 5.78667 12.3664 5.74667 12.2997 5.68C12.2464 5.6 12.2197 5.51333 12.2197 5.42Z" fill="#FB6868"/>
<path d="M41.1475 3.26C41.1475 3.36667 41.1075 3.46667 41.0275 3.56C40.9475 3.65333 40.8608 3.7 40.7675 3.7C40.6742 3.7 40.5675 3.68 40.4475 3.64C40.3408 3.58667 40.2475 3.52667 40.1675 3.46C40.0475 3.35333 39.8408 3.13333 39.5475 2.8C39.2942 2.49333 39.0675 2.04667 38.8675 1.46C38.7608 1.16667 38.7075 0.88 38.7075 0.6C38.7075 0.386667 38.7542 0.226666 38.8475 0.119999C38.9275 0.0399996 39.0208 0 39.1275 0C39.2475 0 39.3542 0.0466666 39.4475 0.14C39.5408 0.233333 39.5808 0.34 39.5675 0.46C39.5542 0.526667 39.5475 0.613333 39.5475 0.72C39.5475 1.05333 39.6475 1.44667 39.8475 1.9C40.1008 2.46 40.4008 2.78 40.7475 2.86C41.0008 2.91333 41.1342 3.03333 41.1475 3.22V3.26ZM38.4075 3.58C38.5408 3.67333 38.6075 3.79333 38.6075 3.94C38.6075 4.04667 38.5742 4.14 38.5075 4.22C38.4408 4.3 38.3342 4.34 38.1875 4.34C38.0542 4.34 37.8675 4.24667 37.6275 4.06C37.3075 3.82 37.0542 3.47333 36.8675 3.02C36.6942 2.56667 36.6075 2.12667 36.6075 1.7C36.6075 1.36667 36.7075 1.16 36.9075 1.08L37.0675 1.04C37.1875 1.04 37.2875 1.1 37.3675 1.22C37.4475 1.32667 37.4742 1.44667 37.4475 1.58C37.4342 1.67333 37.4275 1.81333 37.4275 2C37.4275 2.36 37.4942 2.66667 37.6275 2.92C37.7208 3.09333 37.8342 3.24 37.9675 3.36C38.0208 3.4 38.0875 3.44 38.1675 3.48C38.2608 3.50667 38.3408 3.54 38.4075 3.58ZM34.6275 3.7C35.0675 3.9 35.2875 4.26667 35.2875 4.8C35.2875 5.10667 35.2275 5.44 35.1075 5.8C35.0008 6.12 34.8542 6.47333 34.6675 6.86C34.4808 7.24667 34.2875 7.61333 34.0875 7.96C33.3008 9.38667 32.1475 11.2133 30.6275 13.44C30.4275 13.7333 30.1008 14.1733 29.6475 14.76C29.5008 14.9333 29.3608 15.02 29.2275 15.02C29.1475 15.02 29.0742 14.9933 29.0075 14.94C28.9008 14.86 28.8475 14.7667 28.8475 14.66C28.8475 14.5667 28.8942 14.46 28.9875 14.34C28.9875 14.34 29.2275 14.04 29.7075 13.44C30.8808 11.9867 32.0875 10.14 33.3275 7.9C33.5808 7.46 33.8475 6.95333 34.1275 6.38C34.2742 6.06 34.3942 5.78 34.4875 5.54C34.5808 5.3 34.6275 5.06667 34.6275 4.84C34.6275 4.56 34.5275 4.38667 34.3275 4.32C34.1275 4.25333 33.8675 4.22 33.5475 4.22C33.1608 4.22 32.7275 4.26 32.2475 4.34C31.7675 4.42 31.3608 4.51333 31.0275 4.62C30.9475 4.64667 30.8675 4.68667 30.7875 4.74C30.7208 4.78 30.6408 4.81333 30.5475 4.84C30.2008 5.44 29.9542 6.10667 29.8075 6.84C29.7942 6.89333 29.7608 7.05333 29.7075 7.32C29.6542 7.57333 29.6408 7.82 29.6675 8.06C29.7075 8.34 29.7275 8.48667 29.7275 8.5C29.7275 8.62 29.7008 8.71333 29.6475 8.78C29.5675 8.9 29.4608 8.96 29.3275 8.96C29.2342 8.96 29.1475 8.92667 29.0675 8.86C28.9875 8.78 28.9342 8.68667 28.9075 8.58C28.8808 8.47333 28.8675 8.31333 28.8675 8.1C28.8675 7.86 28.9075 7.52667 28.9875 7.1C29.0808 6.68667 29.2008 6.28667 29.3475 5.9C29.4942 5.51333 29.7008 5.03333 29.9675 4.46C30.2208 3.91333 30.4208 3.6 30.5675 3.52C30.6075 3.49333 30.6675 3.48 30.7475 3.48C30.8542 3.48 30.9408 3.52 31.0075 3.6C31.0875 3.66667 31.1408 3.74667 31.1675 3.84C32.0742 3.62667 32.8542 3.52 33.5075 3.52C34.0142 3.52 34.3875 3.58 34.6275 3.7Z" fill="#FB6868"/>
<path d="M44.8753 8.3C44.982 8.20667 45.1286 8.14667 45.3153 8.12C47.582 7.72 49.9886 7.48 52.5353 7.4C53.2553 7.37333 53.6886 7.36 53.8353 7.36C54.1953 7.36 54.4486 7.39333 54.5953 7.46C54.7553 7.51333 54.8353 7.62 54.8353 7.78C54.8353 7.94 54.782 8.04667 54.6753 8.1C54.582 8.15333 54.442 8.18 54.2553 8.18L53.8153 8.16C53.602 8.13333 53.4353 8.12 53.3153 8.12L52.6353 8.1C51.6753 8.1 50.6353 8.15333 49.5153 8.26C48.3953 8.35333 47.3953 8.49333 46.5153 8.68L45.3153 8.94C45.1686 8.96667 45.0353 8.95333 44.9153 8.9C44.7953 8.84667 44.7353 8.74667 44.7353 8.6C44.7353 8.48 44.782 8.38 44.8753 8.3Z" fill="#FB6868"/>
<path d="M71.5031 0.26C71.5831 0.326667 71.6231 0.406667 71.6231 0.5C71.6231 0.953333 71.7565 1.4 72.0231 1.84C72.1565 2.06667 72.2965 2.25333 72.4431 2.4C72.5898 2.53333 72.7631 2.61333 72.9631 2.64C73.2298 2.66667 73.3631 2.78 73.3631 2.98C73.3631 3.16667 73.2898 3.3 73.1431 3.38C73.0898 3.40667 73.0365 3.42 72.9831 3.42C72.8098 3.42 72.6431 3.36667 72.4831 3.26C72.3098 3.15333 72.0898 2.96667 71.8231 2.7C71.5565 2.43333 71.3098 2.04 71.0831 1.52C70.9231 1.17333 70.8431 0.866667 70.8431 0.6C70.8431 0.453333 70.8698 0.346666 70.9231 0.28C71.0031 0.186667 71.1031 0.14 71.2231 0.14C71.3298 0.14 71.4231 0.18 71.5031 0.26ZM69.3231 1.68C69.3898 1.76 69.4231 1.86 69.4231 1.98C69.4231 2.46 69.5231 2.86667 69.7231 3.2C69.8165 3.36 69.9298 3.48667 70.0631 3.58C70.1165 3.62 70.1831 3.65333 70.2631 3.68C70.3565 3.69333 70.4365 3.71333 70.5031 3.74C70.5698 3.76667 70.6231 3.81333 70.6631 3.88C70.7031 3.94667 70.7231 4.02 70.7231 4.1C70.7231 4.19333 70.6898 4.27333 70.6231 4.34C70.5565 4.40667 70.4565 4.44 70.3231 4.44C70.2031 4.44 70.0365 4.38 69.8231 4.26C69.5565 4.1 69.3298 3.86 69.1431 3.54C68.9565 3.22 68.8165 2.88 68.7231 2.52C68.6831 2.28 68.6631 2.11333 68.6631 2.02C68.6631 1.7 68.7898 1.54 69.0431 1.54C69.1631 1.54 69.2565 1.58667 69.3231 1.68ZM61.7031 4.08C61.8231 4.01333 61.9631 3.99333 62.1231 4.02C63.4965 4.24667 64.4565 4.68667 65.0031 5.34C65.2298 5.59333 65.3431 5.84667 65.3431 6.1C65.3431 6.27333 65.2898 6.41333 65.1831 6.52C65.0765 6.61333 64.9165 6.71333 64.7031 6.82C64.4898 6.92667 64.3431 7.02 64.2631 7.1C64.1298 7.24667 64.0631 7.42 64.0631 7.62C64.0631 7.68667 64.0965 7.87333 64.1631 8.18C64.2298 8.43333 64.3565 8.7 64.5431 8.98C64.7298 9.24667 64.8565 9.43333 64.9231 9.54C65.1231 9.86 65.2231 10.1333 65.2231 10.36C65.2231 10.5067 65.1765 10.6267 65.0831 10.72C64.9098 10.8933 64.6698 10.98 64.3631 10.98C63.9898 10.98 63.6765 10.8333 63.4231 10.54C63.1831 10.2467 62.9365 9.85333 62.6831 9.36L62.4031 8.86C62.3231 8.72667 62.2498 8.63333 62.1831 8.58C62.1165 8.51333 62.0431 8.48 61.9631 8.48C61.8831 8.48 61.8031 8.51333 61.7231 8.58C61.5098 8.75333 61.2898 9.08 61.0631 9.56C60.8498 10.04 60.7431 10.4667 60.7431 10.84C60.7431 11.08 60.7898 11.2533 60.8831 11.36C60.9898 11.48 61.0431 11.6067 61.0431 11.74C61.0431 11.82 61.0098 11.9067 60.9431 12C60.8765 12.08 60.7898 12.12 60.6831 12.12C60.5765 12.12 60.4565 12.0733 60.3231 11.98C60.0698 11.78 59.9431 11.4667 59.9431 11.04C59.9431 10.72 59.9965 10.38 60.1031 10.02C60.2231 9.64667 60.3631 9.32 60.5231 9.04C60.6965 8.72 60.9098 8.43333 61.1631 8.18C61.4298 7.92667 61.6965 7.8 61.9631 7.8C62.1498 7.8 62.3431 7.88 62.5431 8.04C62.7031 8.17333 62.8365 8.32667 62.9431 8.5C63.0498 8.66 63.1765 8.89333 63.3231 9.2C63.4565 9.50667 63.5831 9.74667 63.7031 9.92C63.8365 10.0933 64.0098 10.2267 64.2231 10.32C64.2898 10.36 64.3631 10.3667 64.4431 10.34C64.5231 10.3133 64.5631 10.26 64.5631 10.18C64.5631 10.14 64.5565 10.1067 64.5431 10.08C64.5031 9.97333 64.4298 9.86 64.3231 9.74C64.2298 9.60667 64.1631 9.51333 64.1231 9.46C63.8031 8.94 63.5898 8.47333 63.4831 8.06C63.4431 7.9 63.4231 7.73333 63.4231 7.56C63.4231 7.28 63.4898 7.03333 63.6231 6.82C63.8098 6.54 64.1098 6.30667 64.5231 6.12C64.6165 6.08 64.6631 6.02667 64.6631 5.96C64.6631 5.93333 64.6565 5.91333 64.6431 5.9C64.5631 5.71333 64.2965 5.51333 63.8431 5.3C63.4031 5.07333 62.9831 4.92 62.5831 4.84C62.4765 4.81333 62.3631 4.8 62.2431 4.8C62.1231 4.78667 62.0098 4.76667 61.9031 4.74C61.7965 4.7 61.7098 4.64667 61.6431 4.58C61.5765 4.48667 61.5431 4.40667 61.5431 4.34C61.5431 4.23333 61.5965 4.14667 61.7031 4.08ZM66.6831 7.78C66.7898 7.7 66.9098 7.66 67.0431 7.66C67.2298 7.66 67.4098 7.70667 67.5831 7.8C67.7698 7.88 67.9965 8 68.2631 8.16C68.6365 8.37333 69.0165 8.68 69.4031 9.08C69.4831 9.16 69.5565 9.24667 69.6231 9.34C69.6898 9.42 69.7498 9.49333 69.8031 9.56C69.9498 9.72 70.0765 9.89333 70.1831 10.08C70.3031 10.2667 70.3631 10.44 70.3631 10.6C70.3631 10.72 70.3165 10.8267 70.2231 10.92C70.1298 11 70.0231 11.04 69.9031 11.04C69.8098 11.04 69.7298 11.0133 69.6631 10.96C69.5831 10.9067 69.5165 10.7867 69.4631 10.6C69.4231 10.4133 69.3898 10.2933 69.3631 10.24C69.1765 9.86667 68.8831 9.50667 68.4831 9.16C68.0831 8.81333 67.6898 8.58 67.3031 8.46C67.2231 8.44667 67.1165 8.43333 66.9831 8.42C66.8498 8.39333 66.7431 8.35333 66.6631 8.3C66.5698 8.22 66.5231 8.13333 66.5231 8.04C66.5231 7.94667 66.5765 7.86 66.6831 7.78Z" fill="#FB6868"/>
<path d="M79.3109 7.9C79.2843 8.38 79.2709 8.76 79.2709 9.04C79.2709 10.16 79.3709 11.2133 79.5709 12.2C79.7843 13.1867 80.1243 13.9133 80.5909 14.38C80.6976 14.4867 80.7509 14.6067 80.7509 14.74C80.7509 14.8333 80.7243 14.9067 80.6709 14.96C80.5909 15.0667 80.4843 15.12 80.3509 15.12C80.2576 15.12 80.1776 15.0933 80.1109 15.04C79.0976 14.24 78.5909 12.1867 78.5909 8.88L78.6109 7.88C78.6376 6.96 78.7709 5.74 79.0109 4.22C77.3443 4.52667 76.2043 4.84667 75.5909 5.18C75.5509 5.20667 75.4909 5.22 75.4109 5.22C75.2376 5.22 75.1109 5.15333 75.0309 5.02C74.9909 4.95333 74.9709 4.88667 74.9709 4.82C74.9709 4.74 74.9909 4.67333 75.0309 4.62C75.0843 4.55333 75.1443 4.50667 75.2109 4.48C76.0909 4.18667 76.7909 3.97333 77.3109 3.84C77.8309 3.70667 78.4376 3.58667 79.1309 3.48C79.4376 1.88 79.7309 0.94 80.0109 0.66C80.1309 0.54 80.2576 0.48 80.3909 0.48C80.4576 0.48 80.5176 0.5 80.5709 0.54C80.6643 0.62 80.7109 0.706666 80.7109 0.8C80.7109 0.906667 80.6576 1.06667 80.5509 1.28C80.2843 1.8 80.0576 2.5 79.8709 3.38C79.9509 3.38 80.0709 3.36667 80.2309 3.34C80.9909 3.24667 82.1576 3.12667 83.7309 2.98C83.5976 2.99333 83.8976 2.96667 84.6309 2.9C84.8976 2.87333 85.1109 2.86 85.2709 2.86C85.3909 2.86 85.4909 2.89333 85.5709 2.96C85.6509 3.02667 85.6909 3.12 85.6909 3.24C85.6909 3.34667 85.6509 3.44 85.5709 3.52C85.5043 3.6 85.4043 3.64667 85.2709 3.66H85.1509L84.6509 3.64C84.2643 3.64 83.5709 3.68667 82.5709 3.78C81.5709 3.87333 80.7643 3.96 80.1509 4.04L79.7309 4.1C79.5709 5.00667 79.4309 6.27333 79.3109 7.9ZM85.2309 7.22C85.1243 7.18 84.9176 7.21333 84.6109 7.32C84.3043 7.41333 84.0843 7.50667 83.9509 7.6C83.1776 8.10667 82.7376 8.54 82.6309 8.9C82.6176 8.96667 82.5709 9.02667 82.4909 9.08C82.4243 9.12 82.3509 9.14 82.2709 9.14C82.2309 9.14 82.1709 9.12667 82.0909 9.1C82.0109 9.06 81.9443 8.98667 81.8909 8.88C81.8376 8.76 81.8376 8.65333 81.8909 8.56C82.2643 7.8 83.0109 7.18667 84.1309 6.72C84.5709 6.54667 84.8976 6.46 85.1109 6.46C85.2843 6.46 85.4443 6.50667 85.5909 6.6C85.7509 6.68 85.9109 6.81333 86.0709 7C86.1509 7.09333 86.1909 7.2 86.1909 7.32C86.1909 7.46667 86.1309 7.58 86.0109 7.66C85.9443 7.71333 85.8643 7.74 85.7709 7.74C85.6243 7.74 85.5043 7.67333 85.4109 7.54C85.3709 7.47333 85.3509 7.41333 85.3509 7.36C85.3509 7.29333 85.3109 7.24667 85.2309 7.22ZM86.2509 9.36C86.3576 9.44 86.4109 9.56 86.4109 9.72C86.4109 9.84 86.3643 9.94 86.2709 10.02C86.1776 10.0867 85.9976 10.18 85.7309 10.3C85.4776 10.4067 85.2709 10.4867 85.1109 10.54C84.8709 10.62 84.6443 10.6867 84.4309 10.74C84.2309 10.78 84.1043 10.8067 84.0509 10.82L83.9709 10.84C83.8776 10.84 83.7843 10.8067 83.6909 10.74C83.6109 10.6733 83.5643 10.5933 83.5509 10.5V10.42C83.5509 10.3267 83.5776 10.24 83.6309 10.16C83.6976 10.08 83.7776 10.0267 83.8709 10C83.9243 9.98667 83.9643 9.98667 83.9909 10C84.0309 10 84.0576 10 84.0709 10C84.4043 10 84.7576 9.94667 85.1309 9.84C85.5043 9.73333 85.7043 9.61333 85.7309 9.48C85.7443 9.34667 85.8376 9.28 86.0109 9.28C86.1043 9.28 86.1843 9.30667 86.2509 9.36Z" fill="#FB6868"/>
</svg>
