<svg width="69" height="14" viewBox="0 0 69 14" fill="none" xmlns="http://www.w3.org/2000/svg">
<path d="M9.52 4.72C9.62667 4.8 9.68 4.90667 9.68 5.04C9.68 5.17333 9.62 5.28 9.5 5.36C9.44667 5.4 9.36667 5.42 9.26 5.42C8.63333 5.42 8.02 5.52667 7.42 5.74C6.91333 5.92667 6.36667 6.15333 5.78 6.42C5.62 7.75333 5.54 8.90667 5.54 9.88C5.54 10.5067 5.61333 11 5.76 11.36C5.77333 11.3867 5.79333 11.44 5.82 11.52C5.84667 11.5867 5.86 11.6533 5.86 11.72C5.86 11.84 5.82 11.9333 5.74 12C5.66 12.0667 5.56667 12.1 5.46 12.1C5.38 12.1 5.29333 12.0667 5.2 12C4.97333 11.7867 4.86 11.1133 4.86 9.98C4.86 9.12667 4.92 8.05333 5.04 6.76C4.46667 7.04 3.89333 7.35333 3.32 7.7C3.29333 8.23333 3.28 8.63333 3.28 8.9C3.28 9.28667 3.3 9.63334 3.34 9.94C3.36667 10.1533 3.40667 10.3333 3.46 10.48C3.51333 10.6267 3.6 10.7467 3.72 10.84C3.89333 10.96 3.98 11.0933 3.98 11.24C3.98 11.3333 3.95333 11.4133 3.9 11.48C3.84667 11.5733 3.75333 11.62 3.62 11.62C3.51333 11.62 3.40667 11.5867 3.3 11.52C3.03333 11.36 2.85333 11.1267 2.76 10.82C2.66667 10.5133 2.6 10.1333 2.56 9.68C2.53333 9.30667 2.52 9.02 2.52 8.82L2.54 8.22C2.19333 8.44667 1.91333 8.68 1.7 8.92C1.66 8.97333 1.61333 9.04667 1.56 9.14C1.50667 9.22 1.44667 9.28667 1.38 9.34C1.32667 9.38 1.26 9.4 1.18 9.4C1.06 9.4 0.96 9.36 0.88 9.28C0.813333 9.2 0.78 9.1 0.78 8.98C0.78 8.88667 0.806667 8.80667 0.86 8.74C1.16667 8.32667 1.74667 7.86667 2.6 7.36C2.66667 6.73333 2.74667 6.13333 2.84 5.56C2.06667 5.84 1.45333 6.10667 1 6.36C0.946667 6.38667 0.853333 6.44667 0.72 6.54C0.6 6.62 0.486667 6.66 0.38 6.66C0.26 6.66 0.166667 6.62667 0.1 6.56C0.0333333 6.48 0 6.38667 0 6.28C0 6.13333 0.06 6.02 0.18 5.94C0.806667 5.58 1.73333 5.19333 2.96 4.78C3.13333 3.84667 3.28667 3.08667 3.42 2.5C3.47333 2.27333 3.52667 2.10667 3.58 2C3.64667 1.88 3.76 1.82 3.92 1.82C4.05333 1.82 4.16 1.88 4.24 2C4.32 2.10667 4.33333 2.22667 4.28 2.36C4.13333 2.70667 4.01333 3.1 3.92 3.54C3.84 3.96667 3.78667 4.23333 3.76 4.34L3.72 4.54C4.28 4.35333 4.78667 4.22 5.24 4.14L5.36 4.12C5.41333 3.66667 5.50667 3.13333 5.64 2.52C5.65333 2.48 5.66667 2.39333 5.68 2.26C5.70667 2.12667 5.75333 2.02 5.82 1.94C5.88667 1.86 5.98 1.82 6.1 1.82C6.24667 1.82 6.36 1.88 6.44 2C6.53333 2.10667 6.55333 2.22667 6.5 2.36C6.36667 2.72 6.23333 3.28 6.1 4.04C6.3 4.06667 6.44 4.15333 6.52 4.3L6.56 4.46C6.56 4.55333 6.52667 4.64 6.46 4.72C6.40667 4.78667 6.32667 4.83333 6.22 4.86H6.14C6.07333 4.86 6.01333 4.85333 5.96 4.84C5.94667 5.01333 5.91333 5.27333 5.86 5.62C7.00667 5.14 7.96667 4.83333 8.74 4.7C9.02 4.66 9.18 4.64 9.22 4.64C9.35333 4.64 9.45333 4.66667 9.52 4.72ZM5.14 5.96C5.16667 5.58667 5.19333 5.32 5.22 5.16L5.26 4.88C4.76667 4.94667 4.20667 5.08667 3.58 5.3C3.5 5.83333 3.44667 6.26667 3.42 6.6L3.4 6.88C3.82667 6.64 4.22 6.42667 4.58 6.24L5.14 5.96Z" fill="#FB6868"/>
<path d="M21.0197 4.58C21.7397 4.82 22.293 5.20667 22.6797 5.74C23.0797 6.27333 23.2797 6.89333 23.2797 7.6C23.2797 7.97333 23.2197 8.35333 23.0997 8.74C22.9397 9.27333 22.6264 9.88 22.1597 10.56C21.7064 11.2267 21.2464 11.7933 20.7797 12.26C20.6864 12.3533 20.5797 12.4 20.4597 12.4C20.3397 12.4 20.2397 12.36 20.1597 12.28C20.0664 12.1867 20.0197 12.0867 20.0197 11.98C20.0197 11.9 20.0397 11.8333 20.0797 11.78C20.133 11.6867 20.253 11.58 20.4397 11.46C20.6397 11.3267 20.7997 11.2 20.9197 11.08C21.4264 10.5733 21.8264 10.0133 22.1197 9.4C22.413 8.78667 22.5597 8.19333 22.5597 7.62C22.5597 7.24667 22.5064 6.92667 22.3997 6.66C22.2397 6.22 21.953 5.85333 21.5397 5.56C21.1264 5.26667 20.6197 5.07333 20.0197 4.98C19.753 4.95333 19.5464 4.94 19.3997 4.94C18.973 4.94 18.593 4.98667 18.2597 5.08C17.9664 5.74667 17.733 6.23333 17.5597 6.54C17.3864 6.87333 17.1064 7.35333 16.7197 7.98L16.9397 8.48C17.0464 8.70667 17.233 9.00667 17.4997 9.38C17.553 9.44667 17.5797 9.52 17.5797 9.6C17.5797 9.70667 17.5397 9.79333 17.4597 9.86C17.393 9.9 17.3264 9.92 17.2597 9.92C17.1264 9.92 17.0264 9.87333 16.9597 9.78C16.813 9.55334 16.6197 9.21334 16.3797 8.76L16.2997 8.6C15.7397 9.41333 15.293 9.93333 14.9597 10.16C14.7064 10.3467 14.453 10.44 14.1997 10.44C14.0264 10.44 13.893 10.3933 13.7997 10.3C13.5197 10.06 13.3797 9.7 13.3797 9.22C13.3797 8.94 13.433 8.64 13.5397 8.32C13.8597 7.34667 14.473 6.5 15.3797 5.78C15.2197 5.03333 15.093 4.38 14.9997 3.82C14.9197 3.26 14.873 2.72667 14.8597 2.22C13.873 2.42 12.9664 2.84667 12.1397 3.5C11.993 3.59333 11.873 3.64 11.7797 3.64C11.6997 3.64 11.633 3.62 11.5797 3.58C11.4597 3.5 11.3997 3.41333 11.3997 3.32C11.3997 3.10667 11.673 2.84667 12.2197 2.54C12.713 2.26 13.3997 1.99333 14.2797 1.74C14.3997 1.7 14.593 1.65333 14.8597 1.6C14.873 1.4 14.9197 1.12667 14.9997 0.780001C15.0264 0.686667 15.0797 0.613334 15.1597 0.56C15.2397 0.493334 15.3264 0.46 15.4197 0.46C15.5397 0.46 15.6397 0.5 15.7197 0.580001C15.7997 0.646667 15.8397 0.740001 15.8397 0.860001C15.8397 0.953334 15.8064 1.05333 15.7397 1.16C15.673 1.28 15.6197 1.39333 15.5797 1.5C15.9397 1.46 16.2797 1.44 16.5997 1.44C16.8797 1.44 17.0864 1.44667 17.2197 1.46C17.2997 1.47333 17.3664 1.51333 17.4197 1.58C17.4864 1.63333 17.5197 1.7 17.5197 1.78C17.5197 1.88667 17.4797 1.97333 17.3997 2.04C17.333 2.09333 17.2464 2.11333 17.1397 2.1C16.793 2.07333 16.533 2.06 16.3597 2.06C16.053 2.06 15.753 2.08 15.4597 2.12C15.4464 2.21333 15.4397 2.36 15.4397 2.56C15.4397 3.16 15.5864 4.1 15.8797 5.38V5.42C16.4397 5.04667 17.0797 4.76 17.7997 4.56L18.0197 3.92C18.0864 3.73333 18.1064 3.47333 18.0797 3.14V3.1C18.0797 2.99333 18.1064 2.9 18.1597 2.82C18.2264 2.74 18.3064 2.69333 18.3997 2.68H18.4797C18.7064 2.68 18.8397 2.78 18.8797 2.98V3.08C18.8797 3.21333 18.8464 3.4 18.7797 3.64C18.713 3.89333 18.633 4.14667 18.5397 4.4C18.8197 4.34667 19.1264 4.32 19.4597 4.32C19.9797 4.32 20.4997 4.40667 21.0197 4.58ZM17.0197 6.26C17.1797 6.00667 17.333 5.68667 17.4797 5.3C17.333 5.35333 17.113 5.44667 16.8197 5.58C16.5397 5.7 16.2797 5.84 16.0397 6C16.173 6.45333 16.3064 6.86667 16.4397 7.24L17.0197 6.26ZM14.4597 9.78C14.8064 9.60667 15.3197 8.99333 15.9997 7.94C15.813 7.47333 15.653 6.96 15.5197 6.4C14.8664 6.96 14.4064 7.66 14.1397 8.5C14.0597 8.74 14.0197 9.01333 14.0197 9.32C14.0197 9.42667 14.033 9.53333 14.0597 9.64C14.0997 9.77333 14.1664 9.84 14.2597 9.84C14.313 9.84 14.3797 9.82 14.4597 9.78Z" fill="#FB6868"/>
<path d="M37.9275 7.06C38.0208 7.43333 38.0675 7.85333 38.0675 8.32C38.0675 8.96 37.9742 9.50667 37.7875 9.96C37.7475 10.0667 37.6742 10.1733 37.5675 10.28C37.4742 10.3733 37.3742 10.42 37.2675 10.42C37.1608 10.42 37.0742 10.38 37.0075 10.3C36.9408 10.22 36.9075 10.1333 36.9075 10.04C36.9075 9.94667 36.9275 9.87333 36.9675 9.82C37.0608 9.66 37.1542 9.44667 37.2475 9.18C37.3542 8.83333 37.4075 8.49333 37.4075 8.16C37.4075 7.50667 37.2542 6.91333 36.9475 6.38C36.7208 5.99333 36.3875 5.70667 35.9475 5.52C35.6675 5.4 35.3608 5.34 35.0275 5.34C34.4542 5.34 33.8608 5.5 33.2475 5.82C33.2475 6.46 33.2675 7.07333 33.3075 7.66C33.3875 9.19333 33.4675 10.1 33.5475 10.38C33.5608 10.42 33.5675 10.4733 33.5675 10.54C33.5675 10.66 33.5342 10.7667 33.4675 10.86C33.4142 10.94 33.3208 10.98 33.1875 10.98C32.9475 10.98 32.8008 10.8267 32.7475 10.52C32.6942 10.1867 32.6542 9.61333 32.6275 8.8C32.6142 7.98667 32.6008 7.12667 32.5875 6.22C32.4275 6.32667 32.2542 6.47333 32.0675 6.66C31.8275 6.9 31.3942 7.38 30.7675 8.1C30.6875 8.18 30.5942 8.25333 30.4875 8.32C30.3808 8.37333 30.2675 8.4 30.1475 8.4C29.8808 8.4 29.6608 8.23333 29.4875 7.9C29.2742 7.43333 29.1542 6.84 29.1275 6.12C29.0742 4.29333 29.3208 3.10667 29.8675 2.56C29.9875 2.44 30.1075 2.38 30.2275 2.38C30.3342 2.38 30.4208 2.41333 30.4875 2.48C30.5808 2.56 30.6275 2.66 30.6275 2.78C30.6275 2.86 30.6075 2.94 30.5675 3.02C30.5275 3.08667 30.4808 3.13333 30.4275 3.16C30.2142 3.28 30.0542 3.56 29.9475 4C29.8408 4.44 29.7875 4.94667 29.7875 5.52C29.7875 6.05333 29.8208 6.55333 29.8875 7.02C29.9542 7.48667 30.0408 7.72 30.1475 7.72C30.2275 7.72 30.4675 7.48 30.8675 7C31.2142 6.6 31.5542 6.24667 31.8875 5.94C32.0342 5.80667 32.2675 5.63333 32.5875 5.42V3C32.5875 2.30667 32.6342 1.58667 32.7275 0.84C32.7408 0.720001 32.7808 0.613334 32.8475 0.52C32.9275 0.426667 33.0342 0.38 33.1675 0.38C33.2742 0.38 33.3608 0.426667 33.4275 0.52C33.5075 0.613334 33.5475 0.733334 33.5475 0.88C33.5475 0.96 33.5408 1.02667 33.5275 1.08C33.3275 1.88 33.2275 3.21333 33.2275 5.08C33.8008 4.82667 34.3742 4.7 34.9475 4.7C35.5475 4.7 36.0942 4.84 36.5875 5.12C36.9342 5.32 37.2208 5.59333 37.4475 5.94C37.6742 6.27333 37.8342 6.64667 37.9275 7.06Z" fill="#FB6868"/>
<path d="M53.5553 3.62C53.5953 3.98 53.6153 4.35333 53.6153 4.74C53.6153 5.39333 53.562 5.98667 53.4553 6.52C53.2686 7.48 52.9686 8.45333 52.5553 9.44C52.1553 10.4133 51.6953 11.1933 51.1753 11.78C50.642 12.3667 50.1553 12.66 49.7153 12.66C49.5553 12.66 49.3953 12.62 49.2353 12.54C48.3286 12.1 47.6486 10.7 47.1953 8.34C47.062 7.55333 46.9753 6.84 46.9353 6.2L46.2153 6.56C46.1486 6.6 46.0486 6.66 45.9153 6.74C45.7953 6.82 45.6886 6.86667 45.5953 6.88H45.5153C45.302 6.88 45.1686 6.79333 45.1153 6.62L45.0953 6.52C45.0953 6.4 45.1753 6.26 45.3353 6.1C45.442 5.99333 45.5553 5.91333 45.6753 5.86C45.8086 5.80667 45.942 5.76 46.0753 5.72C46.2086 5.68 46.3086 5.64667 46.3753 5.62L46.8953 5.44C46.8686 4.68 46.8953 3.98667 46.9753 3.36C46.5086 3.6 46.142 3.87333 45.8753 4.18C45.8086 4.26 45.7286 4.36667 45.6353 4.5C45.5553 4.62 45.482 4.71333 45.4153 4.78C45.3486 4.83333 45.2686 4.86 45.1753 4.86C45.0153 4.86 44.9153 4.82 44.8753 4.74C44.822 4.67333 44.7953 4.6 44.7953 4.52C44.7953 4.41333 44.862 4.26667 44.9953 4.08C45.1953 3.8 45.482 3.52 45.8553 3.24C46.2286 2.96 46.6353 2.72667 47.0753 2.54C47.182 1.94 47.3086 1.42 47.4553 0.98C47.562 0.673334 47.6553 0.433334 47.7353 0.26C47.8286 0.0866667 47.962 0 48.1353 0C48.2553 0 48.3553 0.0400003 48.4353 0.120001C48.5286 0.200001 48.5753 0.293334 48.5753 0.400001C48.5753 0.453334 48.542 0.526667 48.4753 0.62C48.222 0.9 48.0153 1.45333 47.8553 2.28C48.242 2.17333 48.702 2.12 49.2353 2.12C49.4886 2.12 49.7153 2.14 49.9153 2.18C50.1686 2.26 50.2953 2.38667 50.2953 2.56C50.2953 2.66667 50.2553 2.76 50.1753 2.84C50.0953 2.90667 50.002 2.94 49.8953 2.94C49.842 2.94 49.742 2.92 49.5953 2.88C49.462 2.82667 49.342 2.8 49.2353 2.8C48.7153 2.8 48.2086 2.88 47.7153 3.04C47.6353 3.73333 47.5953 4.45333 47.5953 5.2C48.1553 5.01333 48.6153 4.88 48.9753 4.8C49.3486 4.72 49.7486 4.68 50.1753 4.68C50.3086 4.68 50.4286 4.72 50.5353 4.8C50.6553 4.86667 50.7153 4.95333 50.7153 5.06C50.7153 5.15333 50.6886 5.23333 50.6353 5.3C50.5553 5.42 50.3953 5.48 50.1553 5.48C50.062 5.48 49.9686 5.47333 49.8753 5.46C49.782 5.44667 49.6953 5.44 49.6153 5.44C49.2686 5.44 48.942 5.48 48.6353 5.56C48.3286 5.64 47.982 5.75333 47.5953 5.9L47.6353 6.36C47.7286 7.50667 47.902 8.58667 48.1553 9.6C48.422 10.6133 48.7686 11.3133 49.1953 11.7C49.382 11.86 49.5553 11.94 49.7153 11.94C49.902 11.94 50.1486 11.8267 50.4553 11.6C50.9753 11.2 51.4553 10.5 51.8953 9.5C52.3353 8.5 52.6353 7.52 52.7953 6.56C52.9153 5.78667 52.9753 5.14667 52.9753 4.64C52.9753 3.45333 52.702 2.58667 52.1553 2.04C52.102 1.98667 52.0286 1.92667 51.9353 1.86C51.842 1.79333 51.7753 1.72667 51.7353 1.66C51.6953 1.58 51.6753 1.49333 51.6753 1.4C51.6753 1.28 51.702 1.19333 51.7553 1.14C51.8353 1.06 51.922 1.02 52.0153 1.02C52.122 1.02 52.2353 1.06 52.3553 1.14C52.582 1.27333 52.822 1.6 53.0753 2.12C53.342 2.64 53.502 3.14 53.5553 3.62Z" fill="#FB6868"/>
<path d="M68.1431 1.06C68.2098 1.16667 68.2365 1.36 68.2231 1.64C68.1298 3 67.8298 4.81333 67.3231 7.08C66.8165 9.33333 66.3098 11.08 65.8031 12.32C65.6698 12.6667 65.5431 12.92 65.4231 13.08C65.3165 13.2533 65.1898 13.34 65.0431 13.34C64.9898 13.34 64.9231 13.32 64.8431 13.28C64.7231 13.2267 64.6631 13.1267 64.6631 12.98C64.6631 12.9 64.6898 12.7933 64.7431 12.66C64.7831 12.5667 64.8498 12.4467 64.9431 12.3C64.9831 12.22 65.0298 12.1333 65.0831 12.04C65.1365 11.9333 65.1965 11.8133 65.2631 11.68C65.7031 10.6267 66.1165 9.27333 66.5031 7.62C66.9031 5.96667 67.1831 4.42667 67.3431 3C67.3831 2.69333 67.4031 2.26667 67.4031 1.72C67.4031 1.50667 67.4165 1.34667 67.4431 1.24C67.4698 1.12 67.5031 1.03333 67.5431 0.98C67.5965 0.913334 67.6831 0.88 67.8031 0.88C67.9765 0.88 68.0898 0.94 68.1431 1.06ZM64.0431 2.5C64.0431 2.58 64.0365 2.64 64.0231 2.68C64.0098 2.74667 63.9631 3 63.8831 3.44C63.8165 3.86667 63.7831 4.3 63.7831 4.74C63.7831 5.04667 63.7965 5.27333 63.8231 5.42C63.8898 5.88667 64.0431 6.24 64.2831 6.48C64.3898 6.58667 64.4431 6.70667 64.4431 6.84C64.4431 6.94667 64.4098 7.03333 64.3431 7.1C64.2765 7.16667 64.1831 7.2 64.0631 7.2C63.7831 7.2 63.5498 6.95333 63.3631 6.46C63.1765 5.96667 63.0831 5.42667 63.0831 4.84C63.0831 4.38667 63.1031 3.87333 63.1431 3.3C63.1965 2.72667 63.2498 2.38 63.3031 2.26C63.3831 2.12667 63.4898 2.06 63.6231 2.06H63.6831C63.9231 2.11333 64.0431 2.26 64.0431 2.5Z" fill="#FB6868"/>
</svg>
