<svg width="71" height="13" viewBox="0 0 71 13" fill="none" xmlns="http://www.w3.org/2000/svg">
<path d="M9.52 5.14C9.62667 5.22 9.68 5.32667 9.68 5.46C9.68 5.59333 9.62 5.7 9.5 5.78C9.44667 5.82 9.36667 5.84 9.26 5.84C8.63333 5.84 8.02 5.94667 7.42 6.16C6.91333 6.34667 6.36667 6.57333 5.78 6.84C5.62 8.17333 5.54 9.32667 5.54 10.3C5.54 10.9267 5.61333 11.42 5.76 11.78C5.77333 11.8067 5.79333 11.86 5.82 11.94C5.84667 12.0067 5.86 12.0733 5.86 12.14C5.86 12.26 5.82 12.3533 5.74 12.42C5.66 12.4867 5.56667 12.52 5.46 12.52C5.38 12.52 5.29333 12.4867 5.2 12.42C4.97333 12.2067 4.86 11.5333 4.86 10.4C4.86 9.54667 4.92 8.47333 5.04 7.18C4.46667 7.46 3.89333 7.77333 3.32 8.12C3.29333 8.65333 3.28 9.05333 3.28 9.32C3.28 9.70667 3.3 10.0533 3.34 10.36C3.36667 10.5733 3.40667 10.7533 3.46 10.9C3.51333 11.0467 3.6 11.1667 3.72 11.26C3.89333 11.38 3.98 11.5133 3.98 11.66C3.98 11.7533 3.95333 11.8333 3.9 11.9C3.84667 11.9933 3.75333 12.04 3.62 12.04C3.51333 12.04 3.40667 12.0067 3.3 11.94C3.03333 11.78 2.85333 11.5467 2.76 11.24C2.66667 10.9333 2.6 10.5533 2.56 10.1C2.53333 9.72667 2.52 9.44 2.52 9.24L2.54 8.64C2.19333 8.86667 1.91333 9.1 1.7 9.34C1.66 9.39333 1.61333 9.46667 1.56 9.56C1.50667 9.64 1.44667 9.70667 1.38 9.76C1.32667 9.8 1.26 9.82 1.18 9.82C1.06 9.82 0.96 9.78 0.88 9.7C0.813333 9.62 0.78 9.52 0.78 9.4C0.78 9.30667 0.806667 9.22667 0.86 9.16C1.16667 8.74667 1.74667 8.28667 2.6 7.78C2.66667 7.15333 2.74667 6.55333 2.84 5.98C2.06667 6.26 1.45333 6.52667 1 6.78C0.946667 6.80667 0.853333 6.86667 0.72 6.96C0.6 7.04 0.486667 7.08 0.38 7.08C0.26 7.08 0.166667 7.04667 0.1 6.98C0.0333333 6.9 0 6.80667 0 6.7C0 6.55333 0.06 6.44 0.18 6.36C0.806667 6 1.73333 5.61333 2.96 5.2C3.13333 4.26667 3.28667 3.50667 3.42 2.92C3.47333 2.69333 3.52667 2.52667 3.58 2.42C3.64667 2.3 3.76 2.24 3.92 2.24C4.05333 2.24 4.16 2.3 4.24 2.42C4.32 2.52667 4.33333 2.64667 4.28 2.78C4.13333 3.12667 4.01333 3.52 3.92 3.96C3.84 4.38667 3.78667 4.65333 3.76 4.76L3.72 4.96C4.28 4.77333 4.78667 4.64 5.24 4.56L5.36 4.54C5.41333 4.08667 5.50667 3.55333 5.64 2.94C5.65333 2.9 5.66667 2.81333 5.68 2.68C5.70667 2.54667 5.75333 2.44 5.82 2.36C5.88667 2.28 5.98 2.24 6.1 2.24C6.24667 2.24 6.36 2.3 6.44 2.42C6.53333 2.52667 6.55333 2.64667 6.5 2.78C6.36667 3.14 6.23333 3.7 6.1 4.46C6.3 4.48667 6.44 4.57333 6.52 4.72L6.56 4.88C6.56 4.97333 6.52667 5.06 6.46 5.14C6.40667 5.20667 6.32667 5.25333 6.22 5.28H6.14C6.07333 5.28 6.01333 5.27333 5.96 5.26C5.94667 5.43333 5.91333 5.69333 5.86 6.04C7.00667 5.56 7.96667 5.25333 8.74 5.12C9.02 5.08 9.18 5.06 9.22 5.06C9.35333 5.06 9.45333 5.08667 9.52 5.14ZM5.14 6.38C5.16667 6.00667 5.19333 5.74 5.22 5.58L5.26 5.3C4.76667 5.36667 4.20667 5.50667 3.58 5.72C3.5 6.25333 3.44667 6.68667 3.42 7.02L3.4 7.3C3.82667 7.06 4.22 6.84667 4.58 6.66L5.14 6.38Z" fill="#FB6868"/>
<path d="M14.6397 3.2C14.5197 3.2 14.4264 3.16 14.3597 3.08C14.293 3 14.2597 2.90667 14.2597 2.8C14.2597 2.6 14.3464 2.47333 14.5197 2.42C15.213 2.20667 15.9597 2.1 16.7597 2.1C17.0664 2.1 17.2997 2.10667 17.4597 2.12C17.953 2.16 18.4397 2.24 18.9197 2.36C18.973 2.37333 19.1397 2.41333 19.4197 2.48C19.713 2.54667 19.9664 2.64667 20.1797 2.78C20.313 2.86 20.3797 2.98 20.3797 3.14C20.3797 3.23333 20.353 3.32 20.2997 3.4C20.2464 3.46667 20.1664 3.50667 20.0597 3.52C19.9797 3.53333 19.7397 3.44667 19.3397 3.26L18.9597 3.1C18.3997 2.88667 17.733 2.78 16.9597 2.78C16.2397 2.78 15.6397 2.86667 15.1597 3.04C15.1197 3.05333 15.0464 3.08667 14.9397 3.14C14.833 3.18 14.733 3.2 14.6397 3.2ZM21.3397 4.98C21.473 5.03333 21.573 5.09333 21.6397 5.16C21.7064 5.21333 21.7397 5.29333 21.7397 5.4C21.7397 5.54667 21.6864 5.65333 21.5797 5.72C21.473 5.78667 21.3464 5.80667 21.1997 5.78C21.1197 5.75333 20.9864 5.71333 20.7997 5.66C20.6264 5.60667 20.4597 5.57333 20.2997 5.56C19.7664 5.50667 19.313 5.48 18.9397 5.48C18.9397 5.53333 18.913 5.58667 18.8597 5.64C18.6464 5.86667 18.4197 6.36667 18.1797 7.14C17.9397 7.91333 17.7397 8.74 17.5797 9.62C17.4197 10.5 17.3397 11.1867 17.3397 11.68C17.3397 11.7467 17.3464 11.82 17.3597 11.9C17.373 11.98 17.3797 12.0533 17.3797 12.12C17.3797 12.36 17.2597 12.48 17.0197 12.48C16.6997 12.48 16.5397 12.22 16.5397 11.7C16.5397 11.5933 16.553 11.3933 16.5797 11.1C16.6597 10.46 16.8597 9.50667 17.1797 8.24C17.4997 6.97333 17.793 6.04667 18.0597 5.46C16.6997 5.48667 15.5664 5.56667 14.6597 5.7C14.6064 5.71333 14.5264 5.73333 14.4197 5.76C14.313 5.78667 14.2197 5.8 14.1397 5.8C13.993 5.8 13.8864 5.74 13.8197 5.62C13.7797 5.54 13.7597 5.46667 13.7597 5.4C13.7597 5.29333 13.793 5.20667 13.8597 5.14C13.9264 5.06 14.0064 5.01333 14.0997 5C15.4464 4.81333 16.893 4.72 18.4397 4.72C19.8397 4.72 20.8064 4.80667 21.3397 4.98Z" fill="#FB6868"/>
<path d="M35.9675 4.62C36.0875 4.62 36.1808 4.66 36.2475 4.74C36.3275 4.82 36.3675 4.91333 36.3675 5.02C36.3675 5.18 36.3008 5.3 36.1675 5.38C35.4475 5.83333 34.7875 6.30667 34.1875 6.8C34.1742 6.81333 34.0408 6.92667 33.7875 7.14C33.8275 7.20667 33.8342 7.3 33.8075 7.42C33.7275 7.74 33.6875 8.07333 33.6875 8.42C33.6875 8.72667 33.7275 9.13333 33.8075 9.64C33.8742 10.04 33.9542 10.4133 34.0475 10.76C34.1542 11.1333 34.2608 11.3533 34.3675 11.42C34.5008 11.5133 34.5675 11.6267 34.5675 11.76C34.5675 11.8667 34.5275 11.96 34.4475 12.04C34.3808 12.12 34.2942 12.16 34.1875 12.16C34.0808 12.16 33.9875 12.1267 33.9075 12.06C33.7208 11.9267 33.5742 11.7067 33.4675 11.4C33.3742 11.08 33.2742 10.6333 33.1675 10.06C33.0208 9.26 32.9542 8.52 32.9675 7.84C31.9542 8.76 31.2075 9.54667 30.7275 10.2C30.4742 10.5333 30.3142 10.8 30.2475 11C30.1408 11.2933 30.0075 11.44 29.8475 11.44C29.7675 11.44 29.7075 11.4267 29.6675 11.4C29.5208 11.32 29.4475 11.2067 29.4475 11.06C29.4475 10.5133 30.2142 9.52667 31.7475 8.1C32.2675 7.60667 33.0742 6.90667 34.1675 6L34.8475 5.42L35.5675 4.84C35.5808 4.82667 35.6275 4.78667 35.7075 4.72C35.7875 4.65333 35.8742 4.62 35.9675 4.62Z" fill="#FB6868"/>
<path d="M56.7153 2.68C56.8086 2.69333 56.882 2.74 56.9353 2.82C57.002 2.88667 57.0353 2.97333 57.0353 3.08C57.0353 3.24 56.982 3.35333 56.8753 3.42C56.7686 3.48667 56.6486 3.50667 56.5153 3.48C56.3553 3.45333 56.1353 3.30667 55.8553 3.04C55.5753 2.76 55.342 2.45333 55.1553 2.12C55.0086 1.86667 54.8953 1.58667 54.8153 1.28C54.7353 0.973333 54.7086 0.68 54.7353 0.4C54.7486 0.28 54.7886 0.186666 54.8553 0.119999C54.922 0.0399996 55.0086 0 55.1153 0C55.222 0 55.3153 0.0399996 55.3953 0.119999C55.4753 0.199999 55.5086 0.293333 55.4953 0.4C55.442 0.893333 55.542 1.35333 55.7953 1.78C55.942 2.03333 56.102 2.24667 56.2753 2.42C56.462 2.58 56.6086 2.66667 56.7153 2.68ZM54.5753 3.5C54.8686 3.5 55.0486 3.59333 55.1153 3.78C55.1686 3.91333 55.1353 4.04 55.0153 4.16C54.8953 4.26667 54.742 4.32 54.5553 4.32C54.3953 4.32 54.2486 4.29333 54.1153 4.24C53.9953 4.17333 53.8553 4.06 53.6953 3.9C53.6286 3.82 53.542 3.71333 53.4353 3.58C53.342 3.44667 53.2686 3.32667 53.2153 3.22C53.1086 3.00667 53.0153 2.76667 52.9353 2.5C52.8686 2.23333 52.8353 2 52.8353 1.8C52.8353 1.64 52.8686 1.51333 52.9353 1.42C53.002 1.31333 53.102 1.25333 53.2353 1.24H53.2553C53.3886 1.24 53.4953 1.3 53.5753 1.42C53.6686 1.52667 53.6886 1.62 53.6353 1.7C53.6086 1.75333 53.5953 1.81333 53.5953 1.88C53.5953 2.05333 53.642 2.28667 53.7353 2.58C53.8286 2.86 53.9153 3.05333 53.9953 3.16C54.1953 3.38667 54.3886 3.5 54.5753 3.5ZM52.4753 9.56C52.502 9.54667 52.5486 9.54 52.6153 9.54C52.6953 9.54 52.7753 9.56667 52.8553 9.62C52.9353 9.67333 52.982 9.74 52.9953 9.82C53.0086 9.84667 53.0153 9.88667 53.0153 9.94C53.0153 10.0733 52.9353 10.2067 52.7753 10.34C52.1886 10.8467 51.4286 11.1 50.4953 11.1C49.6953 11.1 48.9286 10.9133 48.1953 10.54C47.4753 10.1667 46.9286 9.65333 46.5553 9C46.3153 8.57333 46.1486 8.12667 46.0553 7.66C45.6953 7.99333 45.4553 8.24 45.3353 8.4C45.2686 8.48 45.1953 8.55333 45.1153 8.62C45.0486 8.68667 44.9753 8.72 44.8953 8.72C44.7753 8.72 44.682 8.68667 44.6153 8.62C44.5486 8.54 44.5153 8.44667 44.5153 8.34C44.5153 8.20667 44.5553 8.1 44.6353 8.02C45.022 7.63333 45.4553 7.26667 45.9353 6.92C45.9086 6.65333 45.8953 6.44667 45.8953 6.3C45.8953 5.60667 46.0286 4.98 46.2953 4.42C46.4286 4.16667 46.582 4.04 46.7553 4.04C46.8753 4.04 46.9686 4.08 47.0353 4.16C47.102 4.24 47.1353 4.33333 47.1353 4.44C47.1353 4.53333 47.1086 4.61333 47.0553 4.68C46.7086 5.12 46.5486 5.70667 46.5753 6.44C47.7086 5.66667 48.7286 5.14 49.6353 4.86C50.0886 4.72667 50.4553 4.66 50.7353 4.66C51.0153 4.66 51.2553 4.70667 51.4553 4.8C51.6553 4.89333 51.7553 5.03333 51.7553 5.22C51.7553 5.32667 51.722 5.42 51.6553 5.5C51.5886 5.56667 51.4953 5.6 51.3753 5.6C51.3353 5.6 51.2753 5.58667 51.1953 5.56C51.0353 5.49333 50.8353 5.46 50.5953 5.46C50.382 5.46 50.142 5.49333 49.8753 5.56C49.3953 5.69333 48.862 5.90667 48.2753 6.2C47.702 6.49333 47.162 6.82 46.6553 7.18C46.6686 7.24667 46.682 7.31333 46.6953 7.38C46.7086 7.43333 46.722 7.48667 46.7353 7.54C46.9086 8.26 47.2153 8.86 47.6553 9.34C47.962 9.67333 48.342 9.92667 48.7953 10.1C49.2486 10.2733 49.7286 10.36 50.2353 10.36C50.8086 10.36 51.322 10.26 51.7753 10.06C51.9353 9.99333 52.0686 9.91333 52.1753 9.82C52.2153 9.79333 52.262 9.75333 52.3153 9.7C52.3686 9.63333 52.422 9.58667 52.4753 9.56Z" fill="#FB6868"/>
<path d="M70.4431 5.78C70.4698 5.86 70.4831 5.92 70.4831 5.96C70.4831 6.13333 70.3298 6.27333 70.0231 6.38C69.7698 6.46 69.1965 6.57333 68.3031 6.72C67.4231 6.86667 66.6098 6.99333 65.8631 7.1C65.7165 8.03333 65.6031 8.94 65.5231 9.82C65.4431 10.7 65.4098 11.4067 65.4231 11.94C65.4231 12.0867 65.3765 12.2133 65.2831 12.32C65.1898 12.4133 65.0698 12.44 64.9231 12.4C64.7231 12.3333 64.6231 12.1533 64.6231 11.86C64.6098 11.46 64.6498 10.8267 64.7431 9.96C64.8365 9.09333 64.9698 8.16667 65.1431 7.18C64.5298 7.23333 64.0565 7.26 63.7231 7.26C63.2565 7.26 62.8631 7.22667 62.5431 7.16C62.2765 7.10667 62.0498 6.98667 61.8631 6.8C61.6898 6.6 61.6031 6.36667 61.6031 6.1L61.6231 5.92C61.6631 5.54667 61.9965 5.1 62.6231 4.58C63.2498 4.06 63.9898 3.58667 64.8431 3.16C65.6965 2.72 66.4365 2.43333 67.0631 2.3C67.1698 2.27333 67.2498 2.26 67.3031 2.26C67.5298 2.26 67.6631 2.36 67.7031 2.56L67.7231 2.66C67.7231 2.75333 67.6898 2.84 67.6231 2.92C67.5565 2.98667 67.4698 3.02667 67.3631 3.04L66.8231 3.14C66.8231 3.22 66.8098 3.28 66.7831 3.32C66.5031 3.88 66.2298 4.91333 65.9631 6.42C67.0831 6.27333 68.0898 6.08667 68.9831 5.86C69.1431 5.82 69.4431 5.72667 69.8831 5.58C69.9231 5.56667 69.9831 5.56 70.0631 5.56C70.2498 5.56 70.3765 5.63333 70.4431 5.78ZM63.3631 6.58C63.4431 6.59333 63.5831 6.6 63.7831 6.6C64.1431 6.6 64.6365 6.56667 65.2631 6.5C65.5565 4.96667 65.7898 3.94 65.9631 3.42C65.2431 3.7 64.5365 4.06667 63.8431 4.52C63.1498 4.97333 62.6631 5.39333 62.3831 5.78C62.3031 5.9 62.2631 6.00667 62.2631 6.1C62.2631 6.26 62.3565 6.37333 62.5431 6.44C62.7431 6.50667 63.0165 6.55333 63.3631 6.58Z" fill="#FB6868"/>
</svg>
