<svg width="112" height="82" viewBox="0 0 112 82" fill="none" xmlns="http://www.w3.org/2000/svg">
<path d="M73.7539 23.3484C73.2866 23.3484 72.7328 23.0834 72.4212 22.4485C71.4606 20.544 70.2231 18.6826 69.0375 16.889C66.7875 13.4929 64.65 10.2817 65.1692 7.74845C65.8356 3.48944 67.7048 2.71283 70.6904 1.79446C72.3433 1.28905 73.8751 1.27672 75.2597 1.75131C77.103 2.38616 78.3751 3.84076 78.8165 5.00567C79.4309 6.62052 78.929 8.22921 78.6694 8.636L78.3751 9.12909C76.1251 12.9012 73.9962 16.4699 74.7491 22.1897C74.8443 22.8738 74.403 23.256 73.9357 23.3299C73.8751 23.3361 73.8145 23.3422 73.7539 23.3422V23.3484ZM73.1481 1.56024C72.3953 1.56024 71.5991 1.68352 70.777 1.93622C67.7654 2.85459 66.0346 3.58189 65.3769 7.76694C64.8663 10.257 66.9865 13.4436 69.2279 16.8212C70.4222 18.621 71.6597 20.4824 72.6203 22.3992C72.9231 23.0279 73.4683 23.2436 73.8837 23.182C74.2645 23.1204 74.6107 22.7999 74.5328 22.2081C73.7712 16.4452 75.9088 12.8642 78.1761 9.07362L78.4703 8.57437C78.7213 8.1799 79.2059 6.62052 78.6088 5.04882C78.1761 3.92088 76.9472 2.50327 75.1645 1.89308C74.5241 1.67119 73.8491 1.56641 73.1481 1.56641V1.56024Z" fill="#C7C7C7"/>
<path d="M17.8232 69.5751C17.6068 69.5751 17.3559 69.5073 17.0963 69.3347C15.9626 68.6012 14.7164 67.9417 13.5222 67.3007C11.2375 66.0865 9.08271 64.9401 8.42501 63.6334C7.22211 61.47 7.83654 60.7612 8.94424 59.775C9.55867 59.2326 10.2943 58.9429 11.1337 58.9183C11.1683 58.9183 11.2029 58.9183 11.2375 58.9183C12.3193 58.9183 13.401 59.3744 14.0155 59.8366C14.8895 60.5023 15.227 61.3714 15.2443 61.6117L15.2789 61.9014C15.5472 64.0957 15.7982 66.1666 18.178 68.743C18.4809 69.0696 18.403 69.347 18.178 69.4764C18.0828 69.5319 17.953 69.5689 17.8059 69.5689L17.8232 69.5751ZM11.2462 59.0785C11.2462 59.0785 11.177 59.0785 11.151 59.0785C10.3721 59.097 9.68848 59.3682 9.11732 59.8798C8.02692 60.8475 7.46442 61.5008 8.62405 63.5841C9.25578 64.8476 11.3933 65.9817 13.6433 67.1774C14.8462 67.8184 16.1011 68.4841 17.2347 69.2176C17.5809 69.4518 17.8924 69.4579 18.0482 69.3655C18.1953 69.2792 18.2299 69.082 17.9963 68.8293C15.5818 66.2221 15.3309 64.1265 15.0626 61.9138L15.028 61.6241C15.002 61.396 14.6905 60.5763 13.851 59.9476C13.2712 59.51 12.25 59.0785 11.2289 59.0785H11.2462Z" fill="#C7C7C7"/>
<path d="M24.8504 62.0431C24.6254 62.0431 24.3658 61.9322 24.1927 61.661C23.6475 60.8474 22.9898 60.0646 22.3581 59.3127C21.1465 57.8766 20.0042 56.5144 20.0821 55.368C20.1167 53.4388 20.9042 53.032 22.1936 52.5266C22.9119 52.2431 23.6042 52.1938 24.2619 52.3602C25.136 52.5883 25.7937 53.2046 26.0706 53.7162C26.4514 54.4188 26.3216 55.1646 26.2264 55.3557L26.1225 55.5837C25.361 57.3157 24.6427 58.9552 25.3177 61.4514C25.4043 61.7781 25.2139 61.9753 24.9889 62.0308C24.9456 62.0431 24.9023 62.0493 24.8504 62.0493V62.0431ZM23.5004 52.4157C23.111 52.4157 22.7129 52.4958 22.2975 52.6561C21.0427 53.1491 20.333 53.5189 20.2984 55.368C20.2292 56.4713 21.3542 57.8088 22.5398 59.2326C23.1802 59.9907 23.8379 60.7796 24.3831 61.5932C24.5389 61.8397 24.7639 61.9075 24.9196 61.8767C25.0581 61.8459 25.1706 61.7103 25.1014 61.4761C24.409 58.9429 25.136 57.2849 25.9062 55.5344L26.01 55.3064C26.0879 55.1338 26.2091 54.425 25.8543 53.7717C25.6033 53.2971 24.9802 52.7177 24.1754 52.5081C23.9504 52.4527 23.7254 52.4218 23.4917 52.4218L23.5004 52.4157Z" fill="#C7C7C7"/>
<path d="M54.3084 4.88857C53.5468 4.88857 52.9064 4.73449 52.716 4.65436L52.4391 4.54342C50.2756 3.71134 48.2333 2.9224 44.7977 2.9224C44.3477 2.9224 44.114 2.75599 44.088 2.58957C44.0621 2.41699 44.2438 2.20127 44.7284 2.11498C45.9054 1.89925 47.065 1.6034 48.19 1.31371C50.3275 0.765158 52.3439 0.247419 53.8497 0.506289C56.4026 0.882265 56.8007 1.49246 57.2334 2.45397C57.4757 2.9902 57.4238 3.46479 57.069 3.87775C56.6103 4.42014 55.667 4.75914 54.9401 4.84543C54.7324 4.87008 54.5247 4.88241 54.3257 4.88241L54.3084 4.88857ZM44.789 2.77448C48.2852 2.77448 50.3535 3.56957 52.5343 4.41398L52.8199 4.52493C53.0362 4.61121 53.9535 4.82078 54.8882 4.70367C55.5718 4.61738 56.4459 4.3092 56.8699 3.80379C57.1815 3.43398 57.2334 2.99636 57.0084 2.50328C56.5843 1.56642 56.2295 1.02403 53.7805 0.660377C52.3266 0.407672 50.3449 0.919247 48.2419 1.46164C47.1169 1.75133 45.9486 2.05334 44.7631 2.26906C44.4082 2.3307 44.2698 2.4663 44.2871 2.57108C44.3044 2.6697 44.4602 2.76831 44.7804 2.76831L44.789 2.77448Z" fill="#C7C7C7"/>
<path d="M63.923 63.0417C63.0316 63.0417 62.1749 62.8691 61.197 62.6472C59.7604 62.3206 58.7739 61.7289 58.2633 60.8844C57.5796 59.7627 57.8998 58.3389 58.5143 57.4267C59.371 56.1632 60.9374 55.3372 61.4133 55.177L61.9845 54.9798C66.3115 53.4697 70.4048 52.0459 74.3337 48.1321C74.8096 47.6513 75.3895 47.5835 75.7529 47.7253C76.1424 47.8732 76.376 48.2923 76.0385 48.8902C75.1818 50.4742 74.5327 52.1322 73.901 53.7347C72.7067 56.7672 71.5817 59.6394 69.3057 61.0385C66.9865 62.5671 65.4201 63.0417 63.9316 63.0417H63.923ZM75.3808 47.8115C75.1212 47.8115 74.7923 47.9287 74.5068 48.2183C70.5432 52.163 66.4326 53.5991 62.0797 55.1154L61.5085 55.3126C61.0499 55.4667 59.5441 56.2618 58.7133 57.4883C58.1162 58.3697 57.8133 59.7442 58.4623 60.8228C58.947 61.6241 59.8902 62.185 61.2662 62.4993C63.8711 63.091 65.524 63.3067 69.1586 60.9214C71.3913 59.547 72.5077 56.6994 73.6933 53.6916C74.325 52.0829 74.9741 50.4249 75.8395 48.8347C76.125 48.3231 75.952 47.978 75.6491 47.8609C75.5712 47.83 75.4847 47.8115 75.3895 47.8115H75.3808Z" fill="#C7C7C7"/>
<path d="M36.611 11.9952C36.0312 11.9952 35.46 11.9089 35.0187 11.7733C33.8937 11.4343 33.1235 10.7686 32.9677 10.5652L32.7773 10.3248C31.3407 8.48193 29.9907 6.73765 26.4945 5.14745C26.0445 4.94405 25.9666 4.67902 26.0878 4.50028C26.2089 4.31537 26.5811 4.18594 27.1349 4.32153C28.5282 4.6482 29.9734 4.88242 31.3754 5.10431C34.0408 5.52959 36.5504 5.93639 37.8399 6.8979C40.0812 8.45728 39.9255 9.25238 39.4928 10.4173C39.2504 11.0645 38.7658 11.5206 38.0389 11.7794C37.5975 11.9335 37.0956 11.9952 36.6023 11.9952H36.611ZM26.7022 4.42015C26.4859 4.42015 26.3388 4.48179 26.2868 4.56808C26.2089 4.67902 26.2868 4.86393 26.6157 5.01802C30.1551 6.63287 31.5225 8.38948 32.9677 10.2509L33.1581 10.4913C33.3052 10.6823 34.0321 11.311 35.1052 11.6315C35.8754 11.8596 37.0523 11.952 37.9524 11.6315C38.6187 11.3973 39.0687 10.972 39.2851 10.3741C39.7091 9.22772 39.8476 8.50042 37.6841 7.00268C36.4379 6.07198 33.9542 5.67752 31.3234 5.25223C29.9215 5.02418 28.4676 4.78996 27.0657 4.4633C26.9272 4.42631 26.8061 4.41399 26.7022 4.41399V4.42015Z" fill="#C7C7C7"/>
<path d="M100.105 19.5948C99.3521 19.5948 98.5819 19.3175 98.1233 19.0154C97.4223 18.5593 97.1108 17.9245 97.0762 17.7457L97.0242 17.53C96.6608 15.9275 96.3233 14.4174 94.3761 12.6115C94.1165 12.3711 94.1598 12.1554 94.3156 12.0445C94.48 11.9274 94.8175 11.9027 95.1723 12.1123C96.0636 12.6053 97.0242 13.0491 97.9589 13.4682C99.7329 14.2757 101.412 15.0399 102 15.983C103.056 17.5362 102.649 18.0909 101.905 18.8614C101.49 19.2928 100.962 19.5332 100.339 19.5825C100.261 19.5825 100.183 19.5887 100.105 19.5887V19.5948ZM94.6531 12.1123C94.5752 12.1123 94.5146 12.1308 94.48 12.1554C94.3934 12.217 94.3761 12.3526 94.5579 12.5191C96.531 14.3496 96.8771 15.8844 97.2406 17.5054L97.2925 17.7211C97.3271 17.8813 97.63 18.4792 98.2704 18.9045C98.6252 19.1325 99.456 19.5085 100.313 19.4346C100.875 19.3914 101.351 19.1695 101.732 18.7751C102.459 18.0293 102.814 17.53 101.81 16.0508C101.247 15.1509 99.6031 14.3989 97.855 13.6038C96.9204 13.1786 95.9511 12.7348 95.0511 12.2355C94.904 12.1492 94.7656 12.1123 94.6531 12.1123Z" fill="#C7C7C7"/>
<path d="M14.6472 36.6432C13.7299 36.6432 12.8039 36.3042 12.2414 35.9405C11.3933 35.3858 11.0125 34.6154 10.9693 34.3997L10.9087 34.1408C10.4673 32.1869 10.0519 30.3379 7.68075 28.1313C7.36921 27.8478 7.42113 27.5889 7.61152 27.4595C7.81056 27.3239 8.19999 27.2931 8.62403 27.5396C9.70577 28.1436 10.8827 28.6799 12.025 29.1976C14.1885 30.1838 16.2308 31.1083 16.9405 32.2547C18.2213 34.1408 17.728 34.8126 16.8193 35.7495C16.3174 36.2672 15.677 36.5631 14.9241 36.6247C14.8289 36.6309 14.7424 36.637 14.6472 36.637V36.6432ZM7.99229 27.515C7.8971 27.515 7.81056 27.5396 7.75864 27.5766C7.63748 27.6567 7.62883 27.8355 7.85383 28.045C10.2596 30.2762 10.6837 32.1438 11.125 34.1223L11.1856 34.3812C11.2202 34.5784 11.5923 35.3057 12.3885 35.8296C12.9683 36.2056 13.9722 36.5631 14.8981 36.4829C15.5905 36.4275 16.1789 36.1563 16.6376 35.6755C17.5289 34.7571 17.9703 34.147 16.7328 32.3349C16.0491 31.2316 14.0327 30.3132 11.8952 29.3455C10.7529 28.8278 9.56731 28.2854 8.47691 27.6814C8.28653 27.5704 8.11345 27.5273 7.98364 27.5273L7.99229 27.515Z" fill="#C7C7C7"/>
<path d="M9.16954 21.3145C8.28684 21.3145 7.66376 21.0433 6.91086 20.6796C6.18393 20.3221 5.76854 19.866 5.682 19.3298C5.5695 18.6148 6.08874 17.8567 6.65125 17.4191C7.4301 16.8151 8.51184 16.5439 8.81473 16.513L9.1782 16.4699C11.9215 16.1556 14.5177 15.8597 17.6071 14.1709C18.0052 13.9552 18.3687 13.986 18.5504 14.1216C18.7408 14.2633 18.7841 14.5407 18.4379 14.8427C17.5898 15.6132 16.8369 16.4514 16.11 17.265C14.7254 18.8059 13.4273 20.2605 11.8177 20.7659C10.6667 21.1604 9.84455 21.3206 9.16954 21.3206V21.3145ZM18.1783 14.1647C18.0571 14.1647 17.91 14.2017 17.7456 14.288C14.6129 16.0015 11.9907 16.3035 9.22147 16.6178L8.858 16.661C8.58108 16.6856 7.55126 16.9507 6.82432 17.5177C6.29643 17.9307 5.80316 18.6395 5.90701 19.3051C5.98489 19.7982 6.36567 20.2173 7.04067 20.544C8.33011 21.1789 9.18685 21.4932 11.7311 20.6118C13.2802 20.1249 14.5696 18.6888 15.9283 17.1664C16.6552 16.3528 17.4168 15.5084 18.2648 14.7318C18.5245 14.4976 18.5158 14.3003 18.3946 14.214C18.3427 14.1771 18.2648 14.1524 18.1696 14.1524L18.1783 14.1647Z" fill="#C7C7C7"/>
<path d="M0.948185 55.7009C0.861645 55.7009 0.775106 55.6886 0.69722 55.6639C0.385678 55.5715 0.152022 55.2756 0.333755 54.8442C1.70108 51.4542 0.956839 49.0628 0.160676 46.5234L0.0568285 46.1906C-0.0383649 45.9132 -0.0902886 44.8716 0.550103 43.947C0.965493 43.3553 1.90012 42.5787 3.18956 42.3507C4.1588 42.1843 5.154 42.3507 6.1319 42.8622C7.84538 43.7498 8.88385 44.4278 8.61558 47.1028C8.53769 48.7053 6.70306 50.4311 4.77323 52.2555C3.75206 53.217 2.69628 54.2155 1.80493 55.2695C1.55396 55.5777 1.22511 55.7009 0.948185 55.7009ZM3.91649 42.4431C3.69149 42.4431 3.46648 42.4616 3.24148 42.5048C2.10781 42.702 1.16453 43.4108 0.74049 44.0148C0.12606 44.8962 0.177984 45.8885 0.264523 46.1536L0.368371 46.4864C1.16453 49.0381 1.91743 51.4542 0.532795 54.8812C0.394332 55.2263 0.550103 55.4482 0.775106 55.516C1.00011 55.59 1.34627 55.5099 1.61454 55.1832C2.51455 54.1231 3.57033 53.1246 4.60015 52.1569C6.51267 50.351 8.32135 48.6437 8.39923 47.0904C8.65885 44.4894 7.70692 43.8607 6.00209 42.9794C5.30112 42.6157 4.60015 42.437 3.90783 42.437L3.91649 42.4431Z" fill="#C7C7C7"/>
<path d="M84.4243 68.1389C84.4243 68.1389 84.3464 68.1389 84.3032 68.1327C83.9484 68.0834 83.6109 67.8184 83.6541 67.3314C83.983 63.4977 82.3907 61.0816 80.7031 58.5237L80.4781 58.1847C80.2877 57.9074 79.881 56.8103 80.2531 55.7255C80.4954 55.029 81.231 54.049 82.5205 53.5929C83.4897 53.2477 84.5974 53.26 85.809 53.636C87.9205 54.2894 89.2446 54.8318 89.8504 57.7163C90.2917 59.4298 88.933 61.5685 87.4792 63.8305C86.7176 65.0263 85.9301 66.259 85.3243 67.5287C85.1339 67.9601 84.7445 68.1389 84.4157 68.1389H84.4243ZM84.0176 53.4943C83.5243 53.4943 83.057 53.5682 82.6243 53.7223C81.482 54.1291 80.7204 55.0351 80.4695 55.7563C80.1147 56.7979 80.4954 57.8457 80.6772 58.1108L80.9022 58.4498C82.5983 61.0261 84.1993 63.4607 83.8705 67.3314C83.8359 67.7259 84.0868 67.9416 84.3464 67.9724C84.6061 68.0094 84.9609 67.8677 85.134 67.4732C85.7397 66.1912 86.5272 64.9585 87.2974 63.7566C88.7253 61.513 90.084 59.3989 89.6513 57.7286C89.0628 54.918 87.8426 54.4126 85.7397 53.7655C85.134 53.5806 84.5628 53.4881 84.0262 53.4881L84.0176 53.4943Z" fill="#C7C7C7"/>
<path d="M64.0354 23.4963C63.7671 23.4963 63.4469 23.3915 63.1614 23.1388C59.8123 20.1249 56.368 19.0832 52.716 17.9738L52.2314 17.8259C51.8333 17.7087 50.5006 17.0862 49.7651 16.1001C49.2891 15.4652 48.9256 14.3866 49.4622 13.4312C49.8689 12.7101 50.7083 12.1985 51.9545 11.9027C54.1353 11.3849 55.6324 11.1631 58.7911 13.0244C60.7296 14.0907 61.7075 16.3343 62.7546 18.7072C63.2998 19.9584 63.871 21.2528 64.6152 22.4855C64.9008 22.9478 64.7191 23.2868 64.4075 23.4224C64.3037 23.4655 64.1825 23.4902 64.0441 23.4902L64.0354 23.4963ZM54.3863 11.6931C53.6161 11.6931 52.8805 11.8472 52.0237 12.0506C50.8381 12.3341 50.042 12.8149 49.6612 13.4929C49.1852 14.3373 49.4708 15.3789 49.9554 16.0323C50.6651 16.9814 51.9372 17.5793 52.318 17.6903L52.8026 17.8382C56.4805 18.9538 59.9507 20.0078 63.3344 23.0525C63.6806 23.3669 64.0614 23.4039 64.295 23.3053C64.5287 23.2066 64.6498 22.9354 64.4162 22.5595C63.6719 21.3206 63.1008 20.0201 62.5469 18.7627C61.5171 16.4144 60.5392 14.1894 58.6526 13.1539C56.8007 12.0568 55.5545 11.6993 54.3863 11.6993V11.6931Z" fill="#C7C7C7"/>
<path d="M86.0944 14.0723C85.852 14.0723 85.6011 14.0415 85.3588 13.9737C84.8395 13.8257 84.4761 13.5237 84.2597 13.0676C83.8963 12.2848 83.7318 11.7424 85.0559 10.6084C85.8088 9.91187 87.3838 9.56672 89.054 9.19074C89.9281 8.99967 90.8281 8.79627 91.6848 8.53124C92.0396 8.42029 92.2992 8.49426 92.4117 8.61753C92.5156 8.7408 92.4896 8.9442 92.1954 9.10445C90.1011 10.2817 89.3742 11.5021 88.604 12.7903L88.5002 12.9628C88.3963 13.1539 87.9203 13.61 87.2713 13.8565C86.9771 13.9675 86.553 14.0599 86.103 14.0599L86.0944 14.0723ZM92.005 8.63602C91.9358 8.63602 91.8579 8.64835 91.7627 8.67916C90.8973 8.9442 89.9886 9.14759 89.1059 9.34483C87.4703 9.70848 85.9299 10.0536 85.2203 10.707C83.9741 11.7794 84.1126 12.2602 84.4674 13.0183C84.6578 13.4251 84.9867 13.7025 85.4453 13.8319C86.0165 13.9921 86.7261 13.8997 87.1761 13.7271C87.8165 13.4867 88.2319 13.0368 88.3098 12.9074L88.4136 12.7348C89.1925 11.4281 89.9367 10.1954 92.0656 8.99351C92.256 8.88872 92.2819 8.77162 92.23 8.70382C92.1954 8.66067 92.1262 8.63602 92.0223 8.63602H92.005Z" fill="#C7C7C7"/>
<path d="M39.8823 80.3798C39.839 80.3798 39.7871 80.3798 39.7438 80.3736C39.3371 80.3181 38.9563 80.0161 39.0082 79.4614C39.3803 75.0421 37.5457 72.25 35.6072 69.2977L35.3563 68.9094C35.1399 68.595 34.6726 67.3315 35.0966 66.0865C35.3736 65.2852 36.2217 64.1573 37.7015 63.6334C38.8178 63.2389 40.09 63.2574 41.4833 63.6827C43.9064 64.4346 45.4295 65.0572 46.1304 68.3793C46.641 70.3517 45.066 72.8109 43.4044 75.4243C42.5217 76.7987 41.6131 78.2225 40.9208 79.6894C40.7044 80.1764 40.2631 80.3798 39.8823 80.3798ZM39.4063 63.5039C38.8352 63.5039 38.2986 63.5902 37.7967 63.769C36.4726 64.2374 35.5899 65.2852 35.3043 66.1173C34.889 67.3253 35.339 68.5334 35.5467 68.8416L35.8063 69.2299C37.7621 72.2007 39.6054 75.0051 39.2246 79.4676C39.1813 79.9298 39.4755 80.1825 39.7871 80.2195C40.0986 80.2565 40.5054 80.0962 40.7131 79.6401C41.414 78.167 42.3227 76.7371 43.2054 75.3565C44.8583 72.7678 46.416 70.327 45.9141 68.404C45.2304 65.1558 43.8198 64.5764 41.3967 63.8244C40.7044 63.6087 40.0381 63.5039 39.415 63.5039H39.4063Z" fill="#C7C7C7"/>
<path d="M93.7704 40.6001C93.4588 40.6001 93.1992 40.5139 93.0521 40.3783C92.7665 40.1317 92.7319 39.6879 93.3117 39.2442C97.9589 35.657 99.1185 32.3656 100.339 28.8832L100.503 28.421C100.624 28.045 101.455 26.7383 103.039 25.8877C104.06 25.3392 105.886 24.803 107.651 25.0926C108.984 25.3084 110.048 25.9555 110.819 27.0033C112.151 28.8462 112.844 30.1344 110.196 33.3087C108.707 35.244 104.96 36.563 100.988 37.9683C98.8935 38.7079 96.7214 39.4722 94.6963 40.3783C94.3502 40.5385 94.0386 40.6001 93.7617 40.6001H93.7704ZM106.656 25.1666C105.349 25.1666 104.025 25.5549 103.169 26.011C101.628 26.8369 100.832 28.0943 100.711 28.4579L100.546 28.9202C99.3089 32.4211 98.1406 35.7309 93.4675 39.3489C92.9742 39.7249 92.9828 40.0886 93.2078 40.2796C93.4415 40.4769 93.9521 40.5385 94.5838 40.2427C96.6175 39.3304 98.7896 38.5662 100.893 37.8265C104.83 36.4397 108.551 35.1269 110.005 33.2347C112.601 30.1221 111.961 28.9264 110.62 27.0773C109.884 26.0665 108.871 25.4501 107.599 25.2406C107.288 25.1913 106.968 25.1666 106.647 25.1666H106.656Z" fill="#C7C7C7"/>
<path d="M106.673 59.9477C105.903 59.9477 105.133 59.8059 104.562 59.6087C103.272 59.1587 102.442 58.3452 102.286 58.0986L102.087 57.8028C100.581 55.5716 99.1532 53.4636 95.207 51.4235C94.7137 51.1708 94.6359 50.8564 94.7916 50.6654C94.956 50.462 95.3974 50.3325 96.0118 50.5174C97.6128 50.9674 99.2917 51.3125 100.91 51.6392C103.991 52.2679 106.898 52.8658 108.309 54.0492C110.775 55.9784 110.524 56.9029 109.91 58.2465C109.573 58.9923 108.958 59.5039 108.093 59.7628C107.643 59.8984 107.158 59.9538 106.665 59.9538L106.673 59.9477ZM95.4493 50.5729C95.2157 50.5729 95.0512 50.6407 94.982 50.7332C94.8782 50.8688 94.9474 51.0907 95.3368 51.2941C99.3263 53.3588 100.763 55.4853 102.286 57.735L102.485 58.0308C102.632 58.265 103.428 59.0416 104.666 59.4731C105.548 59.7813 106.933 59.9477 108.024 59.621C108.828 59.3806 109.399 58.8999 109.72 58.1972C110.334 56.8659 110.559 56.0215 108.162 54.1478C106.786 52.9952 103.904 52.4097 100.858 51.7871C99.2311 51.4543 97.5436 51.1092 95.9339 50.6592C95.7522 50.6037 95.5878 50.5852 95.4493 50.5852V50.5729Z" fill="#C7C7C7"/>
<path d="M60.3144 81.0763C60.1326 81.0763 59.9596 81.0701 59.7951 81.0454C57.4845 80.8235 57.0778 80.2996 56.6105 79.4676C56.3509 79.0053 56.3509 78.5738 56.6278 78.1917C56.9913 77.6863 57.8047 77.3411 58.4451 77.2302C59.3278 77.0699 60.2105 77.2302 60.4269 77.3042L60.6865 77.3904C62.6769 78.0315 64.5635 78.6355 67.6096 78.4814C68.025 78.4629 68.2414 78.6047 68.2847 78.7526C68.3279 78.9128 68.1808 79.1101 67.7568 79.2087C66.7356 79.4552 65.7317 79.7696 64.7625 80.0778C63.1442 80.5893 61.5951 81.0763 60.323 81.0763H60.3144ZM59.2499 77.3165C59.0076 77.3165 58.7567 77.335 58.497 77.3781C57.8999 77.4829 57.1557 77.7972 56.8182 78.2595C56.5759 78.5985 56.5672 78.9868 56.8095 79.4121C57.2682 80.2195 57.6316 80.6879 59.8297 80.8975C61.1365 81.0516 62.8586 80.5092 64.6673 79.936C65.6452 79.6278 66.6491 79.3073 67.6875 79.0608C67.9818 78.993 68.0943 78.8697 68.0683 78.7772C68.0423 78.6971 67.8952 78.617 67.6183 78.6293C64.5115 78.7834 62.6077 78.1732 60.5913 77.5199L60.3317 77.4336C60.1932 77.3904 59.7605 77.3042 59.2413 77.3042L59.2499 77.3165Z" fill="#C7C7C7"/>
<path d="M30.6138 76.9096C30.6138 76.9096 30.5359 76.9096 30.4927 76.9096C29.4196 76.8418 28.3205 76.8418 27.2561 76.848C25.2311 76.8542 23.3272 76.8665 22.1676 76.3241C20.1772 75.4612 20.0993 74.8695 20.1339 73.9696C20.1512 73.4704 20.4022 73.0759 20.8695 72.8047C21.4926 72.4472 22.4272 72.3609 23.0762 72.4411C23.9763 72.552 24.6945 72.9465 24.8503 73.0759L25.0407 73.23C26.5032 74.3888 27.8878 75.4797 30.7696 76.207C31.159 76.3056 31.2802 76.4967 31.2369 76.6446C31.1936 76.7864 30.986 76.9158 30.6225 76.9158L30.6138 76.9096ZM28.0609 76.6878C28.8744 76.6878 29.6965 76.7001 30.51 76.7494C30.8215 76.7679 30.9946 76.6878 31.0206 76.6015C31.0465 76.5213 30.96 76.4042 30.6917 76.3426C27.758 75.5968 26.3561 74.4935 24.8763 73.3225L24.6859 73.1684C24.5474 73.0513 23.8638 72.6876 23.033 72.5828C22.583 72.5274 21.6483 72.5335 20.9993 72.9157C20.5839 73.156 20.3589 73.5135 20.3416 73.9696C20.307 74.8387 20.3762 75.3749 22.2714 76.1947C23.3791 76.7124 25.257 76.7062 27.2474 76.6939C27.5157 76.6939 27.784 76.6939 28.0523 76.6939L28.0609 76.6878Z" fill="#C7C7C7"/>
<path d="M37.3296 22.3129C37.3296 22.3129 37.2517 22.3129 37.2084 22.3129C36.1353 22.2451 35.0363 22.2513 33.9718 22.2513C31.9555 22.2513 30.0429 22.2698 28.8833 21.7274C26.8929 20.8645 26.815 20.2728 26.8496 19.3729C26.8669 18.8736 27.1179 18.4792 27.5852 18.208C28.2083 17.8505 29.1343 17.7642 29.792 17.8443C30.692 17.9553 31.4103 18.3497 31.566 18.4792L31.7564 18.6333C33.2189 19.792 34.6036 20.883 37.4853 21.6103C37.8748 21.7089 37.9959 21.8999 37.9526 22.0479C37.9094 22.1896 37.7017 22.3191 37.3296 22.3191V22.3129ZM34.768 22.091C35.5815 22.091 36.4036 22.1033 37.2257 22.1527C37.5459 22.1711 37.7103 22.091 37.7363 22.0047C37.7623 21.9246 37.6671 21.8075 37.4074 21.7459C34.4738 21.0001 33.0718 19.8968 31.592 18.7257L31.4016 18.5716C31.2631 18.4545 30.5795 18.0909 29.7487 17.9861C29.2987 17.9306 28.3641 17.9368 27.715 18.3189C27.2996 18.5593 27.0746 18.9168 27.0573 19.3729C27.0227 20.242 27.0919 20.7782 28.9872 21.5979C30.0949 22.1157 31.9728 22.1033 33.9632 22.0972C34.2314 22.0972 34.4997 22.0972 34.768 22.0972V22.091Z" fill="#C7C7C7"/>
<path d="M76.4971 39.2627C76.35 39.2627 76.1769 39.2196 75.9952 39.121C75.1298 38.6649 74.1865 38.2581 73.2778 37.8698C71.5471 37.1301 69.9115 36.4275 69.3143 35.5338C68.2412 34.0607 68.6134 33.5245 69.3057 32.7664C69.6865 32.3472 70.1884 32.1007 70.7855 32.0452C71.573 31.9651 72.4384 32.2425 72.9317 32.5506C73.6153 32.9759 73.9442 33.5799 73.9875 33.7525L74.0394 33.9498C74.4461 35.4783 74.8269 36.9268 76.7567 38.6156C77.0163 38.8436 76.9817 39.0532 76.8346 39.1641C76.7567 39.2196 76.6442 39.2566 76.5058 39.2566L76.4971 39.2627ZM71.0711 32.187C70.9846 32.187 70.898 32.187 70.8115 32.1993C70.2749 32.2548 69.8336 32.4705 69.4788 32.8526C68.8124 33.5799 68.4836 34.0607 69.5047 35.466C70.0759 36.3166 71.6855 37.0069 73.3903 37.7403C74.3077 38.1286 75.2509 38.5354 76.125 38.9977C76.376 39.1333 76.5836 39.1271 76.6702 39.0593C76.7567 38.9977 76.7567 38.8683 76.5836 38.7142C74.6192 36.9946 74.2384 35.5276 73.823 33.9806L73.7711 33.7772C73.7365 33.6231 73.425 33.0622 72.7932 32.6677C72.4817 32.4767 71.8067 32.187 71.0797 32.187H71.0711Z" fill="#C7C7C7"/>
<path d="M83.3598 38.1594C83.3598 38.1594 83.3252 38.1594 83.3166 38.1594C83.005 38.1409 82.6848 37.919 82.6675 37.4691C82.5983 36.3288 82.3733 35.1824 82.1483 34.073C81.7329 31.9651 81.3348 29.9804 82.2175 28.6676C83.5848 26.4363 84.7877 26.2391 86.631 26.0973C87.6435 26.0234 88.5003 26.196 89.1407 26.6274C89.9974 27.1945 90.3436 28.1437 90.309 28.834C90.257 29.7832 89.5993 30.6029 89.3657 30.794L89.0887 31.022C86.9945 32.7848 85.0127 34.449 84.0781 37.617C83.9656 37.9992 83.6454 38.1656 83.3685 38.1656L83.3598 38.1594ZM87.0724 26.2329C86.9339 26.2329 86.7955 26.2329 86.6483 26.2514C84.831 26.387 83.732 26.5719 82.4079 28.7292C81.5512 29.9989 81.9406 31.9651 82.356 34.0483C82.5723 35.1639 82.806 36.3104 82.8752 37.4629C82.8925 37.8204 83.1175 37.993 83.3252 38.0053C83.5243 38.0115 83.7666 37.8882 83.8531 37.58C84.805 34.375 86.7955 32.6985 88.9157 30.9172L89.1926 30.683C89.4176 30.5043 90.0407 29.7277 90.0839 28.8216C90.1186 28.1683 89.7897 27.2746 88.9849 26.7384C88.483 26.4055 87.8339 26.2329 87.0724 26.2329Z" fill="#C7C7C7"/>
<path d="M80.2358 77.9205C80.0368 77.9205 79.7944 77.828 79.6214 77.6C79.0416 76.8789 78.3579 76.1885 77.7002 75.5229C76.4454 74.2593 75.2598 73.0636 75.2165 71.9973C75.0607 70.2161 75.7444 69.8031 76.8867 69.273C77.5185 68.9772 78.1589 68.8909 78.7819 69.0203C79.6127 69.1867 80.2877 69.723 80.582 70.1791C80.9973 70.8078 80.9541 71.5042 80.8935 71.683L80.8243 71.8925C80.2877 73.5259 79.7858 75.0729 80.6598 77.335C80.7723 77.637 80.6166 77.8342 80.4089 77.8897C80.357 77.902 80.305 77.9143 80.2445 77.9143L80.2358 77.9205ZM78.2194 69.1189C77.8213 69.1189 77.406 69.2176 76.9992 69.4025C75.8915 69.9202 75.2771 70.29 75.4329 71.9912C75.4761 73.0081 76.6444 74.1854 77.8819 75.4304C78.5483 76.0961 79.2319 76.7926 79.8118 77.5199C79.9762 77.7356 80.1925 77.7911 80.3223 77.7541C80.4435 77.7171 80.53 77.5877 80.4521 77.3781C79.5694 75.0729 80.0714 73.5136 80.6166 71.8556L80.6858 71.6398C80.7464 71.4734 80.781 70.8263 80.3916 70.2345C80.1839 69.9202 79.5954 69.3347 78.7214 69.1559C78.5569 69.1251 78.3925 69.1066 78.2194 69.1066V69.1189Z" fill="#C7C7C7"/>
<path d="M93.9867 72.3671C92.7578 72.3671 92.204 71.9973 91.529 71.4673C91.0271 71.0666 90.8107 70.629 90.8886 70.1729C90.9924 69.5627 91.6328 69.008 92.2213 68.7245C93.0348 68.3362 93.9867 68.256 94.2636 68.2807L94.5752 68.2992C96.929 68.4286 99.1445 68.5396 102.156 67.5842C102.554 67.4548 102.848 67.5411 102.97 67.6767C103.091 67.8246 103.047 68.065 102.675 68.2745C101.767 68.7923 100.91 69.3778 100.096 69.9449C98.53 71.0235 97.0502 72.0405 95.5877 72.2315C94.9559 72.3302 94.4367 72.3795 94.004 72.3795L93.9867 72.3671ZM94.1771 68.4286C93.8656 68.4286 93.0348 68.5149 92.3425 68.8477C91.7973 69.1128 91.2001 69.6244 91.1049 70.1852C91.0357 70.5982 91.2347 70.9927 91.6934 71.3563C92.5761 72.0528 93.1992 72.4349 95.5271 72.0651C96.9377 71.8802 98.3916 70.8756 99.932 69.8154C100.754 69.2484 101.611 68.6567 102.528 68.1389C102.796 67.991 102.848 67.8308 102.77 67.7445C102.701 67.6643 102.511 67.6212 102.234 67.7137C99.1704 68.6875 96.929 68.5704 94.5492 68.4409L94.2377 68.4225C94.2377 68.4225 94.1944 68.4225 94.1684 68.4225L94.1771 68.4286Z" fill="#C7C7C7"/>
<path d="M47.2038 31.17C47.1518 31.17 47.1086 31.17 47.0653 31.17C46.2691 31.1268 45.6807 30.7632 45.3951 30.4304C44.8759 29.8202 44.8759 28.9634 44.9364 28.7231L45.0057 28.4334C45.5076 26.2268 45.9749 24.1435 44.8239 21.7213C44.6509 21.3699 44.8759 21.0371 45.1874 20.9262C45.3951 20.846 45.7066 20.846 45.9576 21.0802C46.6672 21.7274 47.498 22.3006 48.2942 22.8492C49.8259 23.9032 51.2711 24.8955 51.3923 26.1775C51.6952 28.267 50.9423 29.0312 49.6961 30.1099C48.7009 30.9728 47.8182 31.17 47.2124 31.17H47.2038ZM45.447 21.0248C45.3951 21.0248 45.3432 21.0371 45.2826 21.0556C45.0489 21.1419 44.8932 21.3946 45.023 21.6658C46.1913 24.125 45.7153 26.2268 45.2134 28.4519L45.1441 28.7415C45.0922 28.9634 45.0922 29.7832 45.5768 30.3441C45.8191 30.6276 46.3557 30.9728 47.074 31.0097C47.8701 31.059 48.7095 30.7016 49.5144 30.0112C50.7605 28.9326 51.4529 28.2238 51.1673 26.1898C51.0461 24.9633 49.6961 24.0326 48.1384 22.9601C47.3336 22.4054 46.4941 21.8322 45.7759 21.1727C45.6807 21.0741 45.5595 21.0248 45.4384 21.0248H45.447Z" fill="#C7C7C7"/>
<path d="M37.4936 48.958C36.9657 48.958 36.4465 48.9333 35.9446 48.884C27.6887 48.2307 26.1829 46.3939 24.4089 43.4539C23.431 41.8391 23.405 40.329 24.3223 38.9792C25.5425 37.1732 28.3637 35.922 30.6224 35.4906C33.7465 34.8866 36.8619 35.3858 37.6494 35.6324L38.61 35.922C45.9485 38.1409 52.8804 40.2365 64.0093 39.4969C65.3161 39.4044 66.043 39.8236 66.1815 40.2797C66.3286 40.7666 65.8613 41.4014 64.4939 41.7404C60.7901 42.6896 57.1727 43.9038 53.6852 45.0811C47.7659 47.0719 42.1408 48.9641 37.5023 48.9641L37.4936 48.958ZM33.7984 35.3488C32.8292 35.3488 31.7561 35.4228 30.6743 35.6324C28.4676 36.0576 25.707 37.278 24.5127 39.0408C23.6214 40.3536 23.656 41.8144 24.6079 43.3923C26.4079 46.3693 27.8185 48.0827 35.9705 48.7299C40.8168 49.2353 47.0216 47.1459 53.59 44.9332C57.0862 43.7559 60.7035 42.5417 64.4161 41.5863C65.6622 41.2782 66.0949 40.7234 65.9651 40.3043C65.844 39.916 65.2036 39.5647 64.0266 39.6448C52.8457 40.3906 45.888 38.2888 38.5235 36.0576L37.5542 35.768C37.0609 35.6077 35.5984 35.3488 33.7984 35.3488Z" fill="#C7C7C7"/>
<path d="M33.1061 33.0313C31.4359 33.0313 30.0772 32.0637 30.0772 30.8741C30.0772 29.6845 31.4359 28.7169 33.1061 28.7169C34.7763 28.7169 36.135 29.6845 36.135 30.8741C36.135 32.0637 34.7763 33.0313 33.1061 33.0313ZM33.1061 28.8709C31.5571 28.8709 30.2936 29.7708 30.2936 30.8741C30.2936 31.9774 31.5571 32.8773 33.1061 32.8773C34.6552 32.8773 35.9187 31.9774 35.9187 30.8741C35.9187 29.7708 34.6552 28.8709 33.1061 28.8709Z" fill="#C7C7C7"/>
<path d="M23.6474 13.4189C21.9772 13.4189 20.6185 12.4512 20.6185 11.2617C20.6185 10.0721 21.9772 9.10443 23.6474 9.10443C25.3176 9.10443 26.6763 10.0721 26.6763 11.2617C26.6763 12.4512 25.3176 13.4189 23.6474 13.4189ZM23.6474 9.25852C22.0984 9.25852 20.8349 10.1584 20.8349 11.2617C20.8349 12.365 22.0984 13.2648 23.6474 13.2648C25.1965 13.2648 26.4599 12.365 26.4599 11.2617C26.4599 10.1584 25.1965 9.25852 23.6474 9.25852Z" fill="#C7C7C7"/>
<path d="M37.4157 55.9105C35.7454 55.9105 34.3868 54.9428 34.3868 53.7533C34.3868 52.5637 35.7454 51.596 37.4157 51.596C39.0859 51.596 40.4445 52.5637 40.4445 53.7533C40.4445 54.9428 39.0859 55.9105 37.4157 55.9105ZM37.4157 51.7501C35.8666 51.7501 34.6031 52.65 34.6031 53.7533C34.6031 54.8565 35.8666 55.7564 37.4157 55.7564C38.9647 55.7564 40.2282 54.8565 40.2282 53.7533C40.2282 52.65 38.9647 51.7501 37.4157 51.7501Z" fill="#C7C7C7"/>
<path d="M3.62257 37.4876C1.95236 37.4876 0.593689 36.5199 0.593689 35.3303C0.593689 34.1408 1.95236 33.1731 3.62257 33.1731C5.29278 33.1731 6.65145 34.1408 6.65145 35.3303C6.65145 36.5199 5.29278 37.4876 3.62257 37.4876ZM3.62257 33.3272C2.07351 33.3272 0.810038 34.2271 0.810038 35.3303C0.810038 36.4336 2.07351 37.3335 3.62257 37.3335C5.17163 37.3335 6.4351 36.4336 6.4351 35.3303C6.4351 34.2271 5.17163 33.3272 3.62257 33.3272Z" fill="#C7C7C7"/>
<path d="M50.7604 53.5313C49.0902 53.5313 47.7315 52.5637 47.7315 51.3741C47.7315 50.1845 49.0902 49.2169 50.7604 49.2169C52.4306 49.2169 53.7893 50.1845 53.7893 51.3741C53.7893 52.5637 52.4306 53.5313 50.7604 53.5313ZM50.7604 49.3709C49.2113 49.3709 47.9479 50.2708 47.9479 51.3741C47.9479 52.4774 49.2113 53.3773 50.7604 53.3773C52.3094 53.3773 53.5729 52.4774 53.5729 51.3741C53.5729 50.2708 52.3094 49.3709 50.7604 49.3709Z" fill="#C7C7C7"/>
<path d="M83.8616 46.1042C82.1914 46.1042 80.8327 45.1365 80.8327 43.947C80.8327 42.7574 82.1914 41.7897 83.8616 41.7897C85.5318 41.7897 86.8905 42.7574 86.8905 43.947C86.8905 45.1365 85.5318 46.1042 83.8616 46.1042ZM83.8616 41.9438C82.3126 41.9438 81.0491 42.8437 81.0491 43.947C81.0491 45.0503 82.3126 45.9501 83.8616 45.9501C85.4107 45.9501 86.6741 45.0503 86.6741 43.947C86.6741 42.8437 85.4107 41.9438 83.8616 41.9438Z" fill="#C7C7C7"/>
<path d="M66.6144 73.1438C64.9442 73.1438 63.5855 72.1762 63.5855 70.9866C63.5855 69.797 64.9442 68.8293 66.6144 68.8293C68.2846 68.8293 69.6433 69.797 69.6433 70.9866C69.6433 72.1762 68.2846 73.1438 66.6144 73.1438ZM66.6144 68.9834C65.0654 68.9834 63.8019 69.8833 63.8019 70.9866C63.8019 72.0899 65.0654 72.9897 66.6144 72.9897C68.1635 72.9897 69.427 72.0899 69.427 70.9866C69.427 69.8833 68.1635 68.9834 66.6144 68.9834Z" fill="#C7C7C7"/>
<path d="M105.912 46.8007C104.242 46.8007 102.883 45.833 102.883 44.6434C102.883 43.4539 104.242 42.4862 105.912 42.4862C107.582 42.4862 108.941 43.4539 108.941 44.6434C108.941 45.833 107.582 46.8007 105.912 46.8007ZM105.912 42.6403C104.363 42.6403 103.099 43.5402 103.099 44.6434C103.099 45.7467 104.363 46.6466 105.912 46.6466C107.461 46.6466 108.724 45.7467 108.724 44.6434C108.724 43.5402 107.461 42.6403 105.912 42.6403Z" fill="#C7C7C7"/>
<path d="M71.071 29.4627C69.4008 29.4627 68.0421 28.495 68.0421 27.3054C68.0421 26.1159 69.4008 25.1482 71.071 25.1482C72.7412 25.1482 74.0999 26.1159 74.0999 27.3054C74.0999 28.495 72.7412 29.4627 71.071 29.4627ZM71.071 25.3023C69.5219 25.3023 68.2585 26.2022 68.2585 27.3054C68.2585 28.4087 69.5219 29.3086 71.071 29.3086C72.6201 29.3086 73.8835 28.4087 73.8835 27.3054C73.8835 26.2022 72.6201 25.3023 71.071 25.3023Z" fill="#C7C7C7"/>
</svg>
