<svg width="66" height="98" viewBox="0 0 66 98" fill="none" xmlns="http://www.w3.org/2000/svg">
<g clip-path="url(#clip0_227_451)">
<path fill-rule="evenodd" clip-rule="evenodd" d="M84.2611 47.0455C86.6623 47.4949 89.0492 47.4316 91.3193 46.4628C95.7721 44.5623 97.0038 38.4746 98.5362 34.7427C98.9118 33.8212 98.9471 32.8363 98.958 31.8524C98.8849 31.4974 98.816 31.1416 98.7446 30.7841C98.5085 30.2824 98.3094 29.7562 98.0229 29.2841C97.1012 27.7503 95.7225 26.6972 94.2203 25.8018C93.8977 25.6095 93.8053 25.4105 93.8263 25.053C93.9087 23.5825 93.8196 22.123 93.4961 20.6787C92.7803 17.4755 90.7505 15.4822 87.5596 15.0159C86.4237 14.8498 85.25 14.9063 84.0939 14.9316C83.61 14.9417 83.2176 14.8971 82.7841 14.6382C81.8944 14.1078 80.9635 13.6281 80.0141 13.2158C79.0757 12.8102 78.0666 12.6551 77.0467 12.8237C75.3613 13.0994 71.8444 12.5092 70.9984 14.2225C70.4338 15.3667 70.0095 16.5834 69.5491 17.7748C68.3242 20.9367 66.9581 24.0252 64.9518 26.7807C64.5393 27.3465 64.0755 27.8701 63.6302 28.4139C63.5344 28.2858 63.5344 28.22 63.5369 28.1534C63.6924 25.2335 64.614 22.5429 65.9692 19.9873C66.6623 18.6863 67.1421 17.317 67.4151 15.876C67.9839 12.9089 67.9167 9.92994 67.5067 6.95439C67.1815 4.564 65.949 2.81527 63.684 1.9038C62.9824 1.62218 62.2305 1.43078 61.487 1.30177C59.1849 0.906328 56.8921 1.16181 54.6086 1.47715C54.2918 1.52184 53.9423 1.478 53.6357 1.38778C52.6636 1.107 51.721 0.73938 50.7472 0.489802C48.4494 -0.0987308 46.149 -0.166184 43.8814 0.640729C41.2375 1.58339 39.3958 3.47715 38.086 5.8785C37.5727 6.82201 36.436 7.56484 35.4152 7.88525C31.7344 9.04798 29.797 11.8886 29.8979 15.7503C29.9617 18.2487 31.2119 20.3574 32.1041 22.6542C34.9195 29.9055 39.348 36.0218 45.14 41.1643C45.2198 41.236 45.3215 41.2824 45.5366 41.4181C44.094 38.4325 43.1051 35.4586 42.8993 32.2706C42.6909 29.0623 43.2522 28.9476 44.8023 26.1011C44.8342 31.5868 45.5021 34.0387 47.7563 39.1011C47.0757 33.7756 46.7086 32.8861 49.8726 28.4982C48.6661 33.7158 49.6407 34.9594 50.6178 40.2765C51.1891 36.3911 52.6267 32.8709 54.8438 29.7697C54.4154 31.8962 53.9314 34.0935 53.5399 36.3043C53.1778 38.3642 53.1265 42.3768 53.4727 43.0041C54.2507 40.9215 55.358 39.048 56.7476 37.3389C59.5613 33.8701 63.0606 31.2276 66.8194 28.8971C67.952 28.1955 69.1173 27.5471 70.2658 26.8751C64.9778 31.9552 59.6504 36.9653 55.8739 43.3642C60.5334 39.2453 65.8213 36.2394 71.6579 34.1905C70.4976 34.9721 69.3071 35.7057 68.1418 36.4763C64.3628 38.9814 59.5882 44.1256 56.5107 47.4915C56.5107 47.4915 64.0646 47.6728 66.5405 53.0185C66.5405 53.0185 57.0635 49.0041 56.7863 52.0286L56.667 51.8212C56.6602 51.8675 56.651 51.9122 56.6434 51.9569C56.7863 52.0286 56.9215 52.0986 57.0492 52.1686C59.4588 53.4712 59.6865 54.5041 61.8491 56.5286L64.5913 59.8625C61.6819 57.6382 58.7102 55.5041 55.421 53.8591C55.006 53.6483 54.5708 53.4696 54.1482 53.2765C55.589 55.6896 56.767 58.1652 57.5517 60.8178C58.338 63.4847 58.6917 66.2107 58.5783 69.0008C56.9434 63.6289 54.9413 58.4696 50.8371 54.3971C46.7237 58.3262 45.8726 59.6441 43.6092 64.7444C43.9848 59.9105 43.9251 59.0876 46.8086 55.295C41.1719 58.0623 36.7712 62.2588 32.9644 67.1635C35.0598 60.4653 39.6328 55.86 45.5072 52.2748C44.5191 51.7402 43.5395 51.4679 42.5246 51.3127C39.8941 50.9097 37.2711 51.1205 34.6935 51.6205C32.0856 52.1264 29.5089 52.8136 26.9271 53.4451C26.076 53.6525 25.2409 53.9299 24.4032 54.177C24.3772 54.1264 24.352 54.0733 24.3293 54.0218C25.9163 53.2436 27.4706 52.4105 29.0854 51.704C30.6952 51.0016 32.3368 50.3802 33.997 49.8136C35.6529 49.2487 37.3492 48.7976 39.0279 48.2976C32.231 46.7301 30.5591 46.6323 23.737 47.4654C29.0779 45.1483 29.5458 45.0067 35.2908 45.3186L33.1787 43.0564C33.1056 42.8987 33.0274 42.8018 32.9493 42.7065C29.1132 38.1863 24.3915 34.9965 18.7414 33.2234C16.3352 32.4679 12.6024 33.7242 10.4205 33.8473C8.18062 33.9738 6.49526 35.2107 5.7576 37.3304C5.37869 38.4282 5.25099 39.5657 5.24343 40.72C5.23923 41.263 5.4207 41.8869 5.21234 42.3271C5.00398 42.768 4.40495 43.0176 3.98823 43.3633C2.70531 44.4333 1.51313 45.5834 0.709934 47.0775C-0.260448 48.892 -0.189875 50.6627 1.05104 52.3144C1.52573 52.946 2.13484 53.4831 2.71959 54.0244C2.94559 54.2343 3.01029 54.4063 2.98928 54.7132C2.94055 55.3726 2.49695 58.1247 2.59357 58.8912C2.92795 61.5311 4.51669 63.2908 6.7826 64.4409C12.063 67.1256 17.2896 67.0353 22.3692 63.8836C25.298 62.0682 28.2814 60.3667 31.4664 59.0463C32.7762 58.5033 34.1129 58.0227 35.4337 57.5134C35.4589 57.5564 35.4815 57.5986 35.5076 57.6433C35.1909 57.9215 34.8792 58.2048 34.5649 58.4814C30.0088 62.4611 25.1476 65.833 19.1144 67.3018C15.8042 68.1062 13.2695 70.2799 11.4866 73.2411C10.46 74.9392 12.1814 78.564 12.5259 80.236C12.8376 81.7529 13.5576 83.0657 14.4566 84.2933C14.644 84.5488 14.7271 84.7824 14.686 85.1163C14.5524 86.1669 14.6532 87.1955 15.1144 88.1719C16.4923 91.0724 17.6685 94.6939 20.7897 93.5227C21.6567 93.1964 22.4935 92.7857 23.3673 92.4063C23.3925 92.4569 23.4312 92.5336 23.4749 92.6121C23.9596 93.5143 24.4049 94.4451 24.9409 95.3136C25.6038 96.3768 26.4448 97.3018 27.6168 97.8161C29.2652 98.5395 33.4072 96.2967 35.0396 95.5825C37.0896 94.6837 41.5458 94.2436 42.6136 91.7368C43.6344 89.3431 44.9779 87.1627 46.3834 84.9982C47.0119 84.037 47.5647 83.0033 47.9932 81.9401C48.9862 79.4603 49.3685 76.8347 49.618 74.1905C49.6878 73.478 49.7357 72.7655 49.7928 72.0547C49.9121 72.1003 49.9474 72.1551 49.9625 72.2132C51.1371 75.8018 51.6664 79.4814 51.5092 83.2554C51.4185 85.424 52.089 87.3127 53.492 88.9519C54.643 90.295 56.0856 91.2546 57.5987 92.1315C61.8852 94.6129 66.4825 88.204 70.0465 91.5336C80.5401 101.33 82.4682 84.5986 82.4682 84.5986C82.4682 84.5986 84.6005 88.6196 92.2351 84.0193C99.8679 79.4207 94.7068 63.9367 94.7068 63.9367C96.2275 62.4063 97.1105 60.6137 96.2989 58.4375C95.9527 57.5092 95.4251 56.58 94.7547 55.8566C90.6278 51.3802 85.6541 48.693 79.4168 48.7023C75.8873 48.7082 72.3737 48.4181 68.935 47.5387C68.7426 47.4881 68.5518 47.4207 68.362 47.36C68.3569 47.3018 68.3569 47.2436 68.3595 47.1863C69.8364 46.9485 71.3059 46.6466 72.7896 46.4856C76.6417 46.0691 80.4653 46.3347 84.2645 47.0471L84.2611 47.0455Z" stroke="#C7C7C7" stroke-width="0.5" stroke-miterlimit="10"/>
<path fill-rule="evenodd" clip-rule="evenodd" d="M34.1238 41.7006C41.2627 51.6795 51.2059 47.5867 51.2059 47.5867L51.4605 46.3076C41.2627 46.3076 23.9268 23.7908 23.9268 23.7908C23.9268 23.7908 26.9859 31.7216 34.1238 41.7006Z" stroke="#C7C7C7" stroke-width="0.5" stroke-miterlimit="10"/>
<path fill-rule="evenodd" clip-rule="evenodd" d="M21.7618 21.4881C23.0985 21.4881 24.1831 20.4004 24.1831 19.0572C24.1831 17.714 23.0985 16.6255 21.7618 16.6255C20.4251 16.6255 19.3379 17.7149 19.3379 19.0572C19.3379 20.3995 20.4225 21.4881 21.7618 21.4881Z" stroke="#C7C7C7" stroke-width="0.5" stroke-miterlimit="10"/>
<path fill-rule="evenodd" clip-rule="evenodd" d="M26.5515 23.9915C27.2581 23.9915 27.8269 23.4181 27.8269 22.7124C27.8269 22.0067 27.2581 21.4316 26.5515 21.4316C25.8449 21.4316 25.277 22.005 25.277 22.7124C25.277 23.4198 25.8483 23.9915 26.5515 23.9915Z" stroke="#C7C7C7" stroke-width="0.5" stroke-miterlimit="10"/>
<path fill-rule="evenodd" clip-rule="evenodd" d="M29.8449 27.2958C30.5507 27.2958 31.1203 26.7225 31.1203 26.0159C31.1203 25.3093 30.5515 24.7351 29.8449 24.7351C29.1384 24.7351 28.5704 25.3085 28.5704 26.0159C28.5704 26.7233 29.1417 27.2958 29.8449 27.2958Z" stroke="#C7C7C7" stroke-width="0.5" stroke-miterlimit="10"/>
<path fill-rule="evenodd" clip-rule="evenodd" d="M33.7752 29.7563C33.7752 29.0488 33.2064 28.4763 32.4998 28.4763C31.7933 28.4763 31.2245 29.0488 31.2245 29.7563C31.2245 30.4637 31.7958 31.0362 32.4998 31.0362C33.2039 31.0362 33.7752 30.4637 33.7752 29.7563Z" stroke="#C7C7C7" stroke-width="0.5" stroke-miterlimit="10"/>
<path fill-rule="evenodd" clip-rule="evenodd" d="M20.0596 25.5632C20.0596 26.2698 20.6309 26.8432 21.335 26.8432C22.039 26.8432 22.6103 26.2698 22.6103 25.5632C22.6103 24.8567 22.0424 24.2825 21.335 24.2825C20.6276 24.2825 20.0596 24.8558 20.0596 25.5632Z" stroke="#C7C7C7" stroke-width="0.5" stroke-miterlimit="10"/>
<path fill-rule="evenodd" clip-rule="evenodd" d="M24.1461 28.3127C23.4429 28.3127 22.8708 28.8861 22.8708 29.5944C22.8708 30.3026 23.4421 30.8743 24.1461 30.8743C24.8502 30.8743 25.4215 30.3009 25.4215 29.5944C25.4215 28.8878 24.8527 28.3127 24.1461 28.3127Z" stroke="#C7C7C7" stroke-width="0.5" stroke-miterlimit="10"/>
<path fill-rule="evenodd" clip-rule="evenodd" d="M26.3961 34.1779C27.1018 34.1779 27.6714 33.6045 27.6714 32.898C27.6714 32.1914 27.1027 31.6172 26.3961 31.6172C25.6895 31.6172 25.1207 32.1905 25.1207 32.898C25.1207 33.6054 25.692 34.1779 26.3961 34.1779Z" stroke="#C7C7C7" stroke-width="0.5" stroke-miterlimit="10"/>
</g>
<defs>
<clipPath id="clip0_227_451">
<rect width="99" height="98" fill="white"/>
</clipPath>
</defs>
</svg>
