<svg width="101" height="100" viewBox="0 0 101 100" fill="none" xmlns="http://www.w3.org/2000/svg">
<path fill-rule="evenodd" clip-rule="evenodd" d="M85.2171 48.0039C87.6182 48.4534 90.0051 48.3901 92.2752 47.4213C96.7281 45.5208 97.9597 39.4331 99.4922 35.7012C99.8677 34.7797 99.903 33.7948 99.9139 32.8109C99.8408 32.4559 99.772 32.1001 99.7006 31.7426C99.4645 31.2409 99.2653 30.7147 98.9788 30.2426C98.0572 28.7088 96.6785 27.6557 95.1763 26.7603C94.8537 26.568 94.7613 26.369 94.7823 26.0115C94.8646 24.541 94.7755 23.0815 94.4521 21.6372C93.7363 18.434 91.7064 16.4407 88.5155 15.9744C87.3796 15.8083 86.2059 15.8648 85.0499 15.8901C84.5659 15.9002 84.1736 15.8555 83.7401 15.5967C82.8503 15.0663 81.9194 14.5866 80.9701 14.1743C80.0316 13.7687 79.0226 13.6136 78.0026 13.7822C76.3173 14.0579 72.8004 13.4677 71.9543 15.181C71.3897 16.3252 70.9655 17.5419 70.5051 18.7333C69.2801 21.8952 67.914 24.9837 65.9077 27.7392C65.4952 28.305 65.0314 28.8286 64.5861 29.3724C64.4904 29.2442 64.4904 29.1785 64.4929 29.1119C64.6483 26.192 65.57 23.5014 66.9251 20.9458C67.6183 19.6448 68.098 18.2754 68.3711 16.8345C68.9398 13.8674 68.8726 10.8884 68.4626 7.91288C68.1375 5.5225 66.905 3.77376 64.6399 2.86229C63.9384 2.58068 63.1864 2.38928 62.4429 2.26027C60.1409 1.86482 57.8481 2.1203 55.5645 2.43565C55.2478 2.48034 54.8983 2.43649 54.5916 2.34627C53.6196 2.0655 52.6769 1.69788 51.7032 1.4483C49.4053 0.859765 47.105 0.792312 44.8374 1.59923C42.1934 2.54189 40.3518 4.43565 39.042 6.837C38.5286 7.78051 37.3919 8.52334 36.3711 8.84374C32.6904 10.0065 30.753 12.8471 30.8538 16.7088C30.9177 19.2072 32.1678 21.3159 33.0601 23.6127C35.8754 30.864 40.3039 36.9803 46.096 42.1228C46.1758 42.1945 46.2774 42.2409 46.4925 42.3766C45.05 39.391 44.0611 36.4171 43.8552 33.2291C43.6469 30.0208 44.2081 29.9061 45.7582 27.0596C45.7901 32.5453 46.4581 34.9972 48.7122 40.0596C48.0317 34.7341 47.6645 33.8446 50.8286 29.4567C49.6221 34.6743 50.5967 35.9179 51.5738 41.235C52.1451 37.3496 53.5826 33.8294 55.7998 30.7282C55.3713 32.8547 54.8874 35.052 54.4959 37.2628C54.1337 39.3227 54.0825 43.3353 54.4286 43.9626C55.2066 41.88 56.314 40.0065 57.7036 38.2974C60.5173 34.8286 64.0165 32.1861 67.7754 29.8555C68.9079 29.154 70.0732 28.5056 71.2217 27.8336C65.9338 32.9137 60.6063 37.9238 56.8298 44.3227C61.4893 40.2038 66.7773 37.1979 72.6139 35.149C71.4536 35.9306 70.2631 36.6641 69.0978 37.4348C65.3188 39.9399 60.5441 45.084 57.4666 48.45C57.4666 48.45 65.0205 48.6313 67.4965 53.977C67.4965 53.977 58.0195 49.9626 57.7422 52.9871L57.6229 52.7797C57.6162 52.826 57.607 52.8707 57.5994 52.9154C57.7422 52.9871 57.8775 53.0571 58.0052 53.127C60.4148 54.4297 60.6424 55.4626 62.805 57.4871L65.5473 60.821C62.6378 58.5967 59.6662 56.4626 56.377 54.8176C55.9619 54.6068 55.5267 54.4281 55.1041 54.235C56.545 56.6481 57.7229 59.1237 58.5076 61.7763C59.294 64.4432 59.6477 67.1692 59.5343 69.9593C57.8993 64.5874 55.8972 59.4281 51.7931 55.3556C47.6797 59.2847 46.8286 60.6026 44.5652 65.7029C44.9407 60.869 44.8811 60.0461 47.7645 56.2535C42.1279 59.0208 37.7271 63.2173 33.9204 68.122C36.0157 61.4238 40.5887 56.8184 46.4631 53.2333C45.4751 52.6987 44.4954 52.4264 43.4805 52.2712C40.85 51.8682 38.227 52.079 35.6494 52.579C33.0416 53.0849 30.4648 53.7721 27.883 54.4036C27.0319 54.611 26.1968 54.8884 25.3592 55.1355C25.3331 55.0849 25.3079 55.0318 25.2852 54.9803C26.8723 54.2021 28.4266 53.369 30.0414 52.6625C31.6511 51.9601 33.2928 51.3387 34.9529 50.7721C36.6089 50.2071 38.3052 49.7561 39.9838 49.2561C33.1869 47.6886 31.515 47.5908 24.6929 48.4238C30.0338 46.1068 30.5018 45.9652 36.2468 46.2771L34.1346 44.0149C34.0615 43.8572 33.9834 43.7603 33.9053 43.665C30.0691 39.1448 25.3474 35.955 19.6974 34.1819C17.2911 33.4264 13.5583 34.6827 11.3764 34.8058C9.13657 34.9323 7.45121 36.1692 6.71355 38.2889C6.33464 39.3867 6.20694 40.5242 6.19937 41.6785C6.19517 42.2215 6.37665 42.8454 6.16829 43.2856C5.95993 43.7265 5.3609 43.9761 4.94418 44.3218C3.66126 45.3918 2.46907 46.5419 1.66588 48.036C0.6955 49.8505 0.766073 51.6211 2.00699 53.2729C2.48168 53.9045 3.09079 54.4416 3.67554 54.9829C3.90154 55.1928 3.96623 55.3648 3.94523 55.6717C3.8965 56.3311 3.4529 59.0832 3.54952 59.8496C3.8839 62.4896 5.47264 64.2493 7.73854 65.3994C13.0189 68.084 18.2456 67.9938 23.3252 64.8421C26.2539 63.0267 29.2373 61.3252 32.4224 60.0048C33.7322 59.4618 35.0689 58.9812 36.3896 58.4719C36.4148 58.5149 36.4375 58.5571 36.4635 58.6018C36.1468 58.88 35.8351 59.1633 35.5209 59.4399C30.9647 63.4196 26.1036 66.7915 20.0704 68.2603C16.7602 69.0647 14.2254 71.2383 12.4426 74.1996C11.4159 75.8977 13.1374 79.5225 13.4819 81.1945C13.7936 82.7114 14.5136 84.0242 15.4125 85.2518C15.5999 85.5073 15.6831 85.7409 15.6419 86.0748C15.5083 87.1254 15.6091 88.154 16.0704 89.1304C17.4482 92.0309 18.6245 95.6523 21.7457 94.4812C22.6127 94.1549 23.4495 93.7442 24.3233 93.3648C24.3485 93.4154 24.3871 93.4921 24.4308 93.5706C24.9156 94.4727 25.3609 95.4036 25.8969 96.2721C26.5598 97.3353 27.4008 98.2603 28.5728 98.7746C30.2212 99.498 34.3631 97.2552 35.9956 96.541C38.0456 95.6422 42.5018 95.2021 43.5696 92.6953C44.5904 90.3016 45.9338 88.1211 47.3394 85.9567C47.9678 84.9955 48.5206 83.9618 48.9491 82.8985C49.9422 80.4188 50.3245 77.7932 50.574 75.149C50.6437 74.4365 50.6916 73.724 50.7487 73.0132C50.868 73.0588 50.9033 73.1136 50.9185 73.1717C52.093 76.7603 52.6223 80.4399 52.4652 84.2139C52.3745 86.3825 53.0449 88.2712 54.448 89.9104C55.599 91.2535 57.0415 92.2131 58.5547 93.09C62.8411 95.5714 67.4385 89.1625 71.0024 92.4921C81.496 102.288 83.4242 85.5571 83.4242 85.5571C83.4242 85.5571 85.5565 89.5781 93.191 84.9778C100.824 80.3792 95.6627 64.8952 95.6627 64.8952C97.1834 63.3648 98.0664 61.5722 97.2548 59.396C96.9087 58.4677 96.3811 57.5385 95.7106 56.8151C91.5838 52.3387 86.61 49.6515 80.3727 49.6608C76.8432 49.6667 73.3297 49.3766 69.8909 48.4972C69.6985 48.4466 69.5078 48.3792 69.3179 48.3184C69.3129 48.2603 69.3129 48.2021 69.3154 48.1448C70.7924 47.907 72.2618 47.6051 73.7455 47.4441C77.5977 47.0276 81.4212 47.2932 85.2204 48.0056L85.2171 48.0039Z" stroke="#C7C7C7" stroke-width="0.5" stroke-miterlimit="10"/>
<path fill-rule="evenodd" clip-rule="evenodd" d="M35.0798 42.6591C42.2186 52.638 52.1619 48.5452 52.1619 48.5452L52.4165 47.2661C42.2186 47.2661 24.8828 24.7493 24.8828 24.7493C24.8828 24.7493 27.9418 32.6801 35.0798 42.6591Z" stroke="#C7C7C7" stroke-width="0.5" stroke-miterlimit="10"/>
<path fill-rule="evenodd" clip-rule="evenodd" d="M22.7177 22.4465C24.0544 22.4465 25.1391 21.3589 25.1391 20.0157C25.1391 18.6725 24.0544 17.584 22.7177 17.584C21.381 17.584 20.2939 18.6734 20.2939 20.0157C20.2939 21.358 21.3785 22.4465 22.7177 22.4465Z" stroke="#C7C7C7" stroke-width="0.5" stroke-miterlimit="10"/>
<path fill-rule="evenodd" clip-rule="evenodd" d="M27.5075 24.95C28.214 24.95 28.7828 24.3766 28.7828 23.6709C28.7828 22.9652 28.214 22.3901 27.5075 22.3901C26.8009 22.3901 26.2329 22.9635 26.2329 23.6709C26.2329 24.3783 26.8042 24.95 27.5075 24.95Z" stroke="#C7C7C7" stroke-width="0.5" stroke-miterlimit="10"/>
<path fill-rule="evenodd" clip-rule="evenodd" d="M30.8009 28.2543C31.5066 28.2543 32.0762 27.681 32.0762 26.9744C32.0762 26.2678 31.5075 25.6936 30.8009 25.6936C30.0943 25.6936 29.5264 26.267 29.5264 26.9744C29.5264 27.6818 30.0977 28.2543 30.8009 28.2543Z" stroke="#C7C7C7" stroke-width="0.5" stroke-miterlimit="10"/>
<path fill-rule="evenodd" clip-rule="evenodd" d="M34.7311 30.7147C34.7311 30.0073 34.1623 29.4348 33.4558 29.4348C32.7492 29.4348 32.1804 30.0073 32.1804 30.7147C32.1804 31.4222 32.7517 31.9947 33.4558 31.9947C34.1598 31.9947 34.7311 31.4222 34.7311 30.7147Z" stroke="#C7C7C7" stroke-width="0.5" stroke-miterlimit="10"/>
<path fill-rule="evenodd" clip-rule="evenodd" d="M21.0156 26.5217C21.0156 27.2283 21.5869 27.8017 22.2909 27.8017C22.995 27.8017 23.5663 27.2283 23.5663 26.5217C23.5663 25.8152 22.9983 25.241 22.2909 25.241C21.5835 25.241 21.0156 25.8143 21.0156 26.5217Z" stroke="#C7C7C7" stroke-width="0.5" stroke-miterlimit="10"/>
<path fill-rule="evenodd" clip-rule="evenodd" d="M25.1021 29.2712C24.3989 29.2712 23.8267 29.8446 23.8267 30.5529C23.8267 31.2611 24.398 31.8328 25.1021 31.8328C25.8061 31.8328 26.3774 31.2594 26.3774 30.5529C26.3774 29.8463 25.8087 29.2712 25.1021 29.2712Z" stroke="#C7C7C7" stroke-width="0.5" stroke-miterlimit="10"/>
<path fill-rule="evenodd" clip-rule="evenodd" d="M27.352 35.1364C28.0578 35.1364 28.6274 34.563 28.6274 33.8565C28.6274 33.1499 28.0586 32.5757 27.352 32.5757C26.6455 32.5757 26.0767 33.149 26.0767 33.8565C26.0767 34.5639 26.648 35.1364 27.352 35.1364Z" stroke="#C7C7C7" stroke-width="0.5" stroke-miterlimit="10"/>
</svg>
